<svg width="312" height="186" viewBox="0 0 312 186" xmlns="http://www.w3.org/2000/svg">
  <title>
    balls
  </title>
  <g fill="none" fill-rule="evenodd">
    <path d="M1 63.7c3-13.7 17.3-22.3 31-19 13.7 3 22.5 17 19.3 30.7-3.2 13.7-17.5 22.2-31 19-13.8-3-22.6-17-19.4-30.7" fill="#000327"/>
    <path d="M29.3 69.2c.8.5 2 .4 2.7 0 1-.7 1.2-1.8 1-2.8-.3-1-1.2-1.8-2.2-2-1.3-.2-2.3.5-2.7 1.8-.2 1.3.3 2.4 1.3 3M22.4 58c-.2 1 .5 2 1.5 2.4.8.4 2 0 2.7-.6 1.4-1.4.2-3.6-1.6-3.7-1 0-2.3.8-2.6 2 0 .8 0-.4 0 0M38 76c.2-.8 0-2-1-2.4-1-.4-2 0-2.8.7-.6.7-1 1.8-.5 2.7.4 1 1.3 1.3 2.3 1 1 0 1.8-1 2-2 0 0-.3 1.3 0 0M15.4 66c2 .6 3.7-1.7 2.7-3.5-.4-1-1.4-1.3-2.4-1-.8.3-1.5 1.2-1.7 2-.3 1 .2 2.3 1.4 2.6.5.2-.8 0 0 0M27.7 79c-1 0-2 .2-2.6 1-.6.6-.6 1.8 0 2.5 1.2 1.5 4 1 4.5-1 .2-1-.7-2.2-1.8-2.4-1 0 .4.2 0 0M39.7 64c1-.5 1.2-1.6 1-2.5-.4-1-1.2-1.6-2-1.8-1-.2-2 .3-2 1.6-.2 1.2 1.3 3.6 3 2.7M13.5 75.4c-1.3-.2-2.2.7-2 2 0 1 .8 2 2 2.3 1 .3 2-.7 2-2 0-1-1-2-2-2.3 0 0 1.3.3 0 0M33 56c1 0 2.2-.3 2.3-1.4 0-1-1-2-2-2.2-1-.2-2.4 0-2.4 1.4 0 1 1 2 2 2 0 0-.7 0 0 0M44.8 71c.2-1 0-2.2-1-2.7-.7-.6-1.7 0-2 1-.5 1-.4 2.5.7 3 1 .7 2-.3 2.3-1.3.2-.8 0 .4 0 0M9.6 67.2c-1-.6-2 .4-2.3 1.3-.2 1 0 2.3 1 2.8 1 .6 2-.5 2-1.5.3-1 .2-2-.7-2.6M21 85.6c.2-1.2-1-2-2-2-1-.2-2.2 0-2.2 1.2 0 1 1 2 2 2 1 .2 2.2 0 2.3-1.2M18.7 51c-.4.4-.7.8-.6 1.3 0 .5.6 1 1 1 1 .3 2.2 0 2.8-.8.3-.3.6-.8.5-1.2 0-.6-.6-.8-1-1-1-.2-2 0-2.6.7M13.8 55c-.4-.2-1-.2-1.4 0-1 .4-1.8 1.3-1.8 2.4 0 1 1 1.4 2 1 .8-.3 1.3-1 1.6-2 .2-.5 0-1-.4-1.4M40.6 81c-1-.2-2 .5-2.5 1.2-.4.7-.7 2 .4 2.4 1 .3 2-.4 2.5-1 .4-.8.7-2.3-.4-2.6-.5 0 .4 0 0 0M33 86c-1 0-2 0-2.7.7-.3.3-.8 1-.7 1.3 0 .5.6 1 1 1 1 .3 2.2 0 2.8-.8.3-.3.6-.8.5-1.2-.3-.5-.7-.7-1-1-1 0 0 .2 0 0M44.7 60.3c1 .3 1-1 .8-1.7-.3-.8-1-1.7-1.7-2-1-.2-1.2 1-1 1.8.3 1 1 1.6 2 2 .3 0-.6-.3 0 0M27.2 50c.7.2 2 .2 2.4-.4.7-.8-.4-1.5-1-1.7-1-.3-2-.2-2.5.3-.8.8.5 1.6 1.2 1.7.5 0-.3 0 0 0M44.7 77.5c-.2.6-.2 2 .8 1.8.8-.2 1.4-1.2 1.6-2 .2-.5.2-1.8-.7-1.8-1 0-1.5 1.2-1.6 2 0 0 0-.5 0 0M6 64c.7 0 1.3-1.2 1.4-2 .2-.5.2-2-.7-1.8-1 0-1.4 1.3-1.6 2.2 0 .4 0 1.7 1 1.6M22.4 90c-.8.8.5 1.5 1 1.7.8.2 2 .2 2.5-.3.2-.3.3-.7 0-1-.3-.4-.8-.6-1-.7-1-.2-2-.2-2.6.4M8 82.2c.5.5 1.3.5 1.5-.2 0-.8-.4-2-1-2.5-1-1-1.8-.5-1.8 0 0 1 .5 2 1.2 2.7M39.8 53.2c.4 0 .8 0 1-.2.2-.3 0-1-.2-1.2-.5-.6-1.3-1.2-2-1.3-.4 0-1 0-1 .3-.2.3 0 .8.2 1 .5.8 1.2 1.2 2 1.4 0 0-1-.2 0 0M47.3 67c0 .4.4.8.8.8.5 0 .7-.4.8-.7.3-.7 0-1.7-.3-2.4-.2-.3-.5-.7-1-.7-.3 0-.5.2-.6.6-.2.8 0 1.8.3 2.5M14.6 88.4c.2-.3 0-.8-.3-1-.4-.7-1.2-1.2-2-1.4-.2 0-.6 0-.8.2-.2.4 0 .8.2 1 .4.8 1.3 1.3 2 1.4.3.2.8.2 1-.2M16.3 47.7c-.4.2-.8.5-1 .8 0 .4.3.6.6.6.6.2 1.3-.2 2-.5 1-.6 1-1.4 0-1.3-.4 0-1 0-1.7.5M40.3 88.5c.7-.2 1.3-.5 2-1 0-.3 1-1.5.3-1.6-1-.3-3.4 1.8-2.3 2.5 0 0-.3-.2 0 0M9.2 52.8v.7c.4.2 1 0 1-.2.8-.4 1.4-1 1.7-1.6 0-.3 0-.7-.3-.8-.3 0-.7 0-1 .2-.6.4-1 1-1.5 1.6 0 .2 0 0 0 0M36.2 90.2c-.8 0-1.5.2-2 .6-.6.2-1.5 1-.5 1.3.7.2 1.5 0 2-.4.4-.3 1.5-1 .5-1.4 0 0 .4 0 0 0M34 48c.4 0 2 .2 1.7-.5-.2-.6-1.2-1-1.8-1-.4 0-2-.4-1.6.3 0 .6 1.2 1 1.7 1 .4 0-.4 0 0 0M49.2 72.3v1c0 .3 0 1 .4 1 .6 0 .8-1.3.8-1.6 0-.6 0-2-.3-2-.4 0-.7 1-.8 1.6M3 67c0-.3.3-1.5-.3-1.7-.8-.4-1 3.3-.4 3.4.3 0 .7-1 .8-1.6M18.3 91.3c-.3 0-1.6-.5-1.7 0-.2.6 1 1 1.3 1.2.4.2 1.8.5 1.8 0 0-.4-1-1-1.5-1.2M22.6 46h2c.3-.2.8-.3.8-.6 0-.5-1.3-.4-1.6-.4-.5 0-1.8.3-1.8.6 0 .4.3.4.6.5M47.6 81c-.5-.2-1 .6-1.3 1-.2.3-1 1.4-.5 1.8.4.3 1-.8 1.3-1 .4-.4 1-1.5.6-2-.2 0 0 .2 0 0M43.2 51c-.2-.2-1.2-1.2-1.5-.8-.3.3.7 1.2 1 1.3 0 .2.4.4.6.6.3.3.7.6.8.4.3-.2-.4-1-.8-1.4M2 62c-.2.4-.4 1-.2 1.2.2 0 .6-.8.7-1.3.2-.6.4-1.5.2-1.5L2 62M29.6 45c.2 0 1.4 0 1.3-.2l-.8-.3h-1c-.4-.2-1-.2-1.2 0 0 .3 1 .4 1.6.4M38 47.5c.5.2 1.3.6 1.4.5 0-.2-.4-.5-.7-.7-.6-.3-1.7-.8-2-.7 0 .2 1 .7 1.4 1M15.5 46.4c-.5.3-1.5.8-1.4 1 .2.2 1-.3 1.5-.5.4-.3 1.3-.7 1.2-1l-1.2.4M51.7 68.4c0-.2 0-1-.3-1-.2 0 0 1 0 1.4 0 .4 0 1.3.2 1.2.2 0 .2-1 0-1.6M41 90c.3 0 .7-.2 1-.5.5-.3.8-.6 1-1-.8.3-1.7 1-2 1.6M10.3 50.2l1-1c-.3-.2-1 .5-1.4.8-.5.3-1.2 1-1 1 0 .2 1-.5 1.3-.8M.7 70.6c0 .3 0 1.3.3 1.3.2 0 0-2.7 0-2.7-.3 0-.3 1-.3 1.3M36.5 92.3l-1 .7c.8 0 2-.6 2.4-1-.5 0-1 0-1.5.3M47 84c-.5.6-1.2 1.5-1.4 2 .6-.5 1-1 1.5-2M6.6 53.3c-.7.6-1.2 1.3-1.5 2 .8-.7 1.2-1.3 1.6-2M19 70.3c.2-1 1-1.7 2-1.8 1.2-.2 2.2.4 2.7 1.5.5 1 .3 2.2-.6 3-.6.6-2 1-2.8.4-1-.5-1.5-2-1.2-3" fill="#FF1343"/>
    <path d="M27.7 79c1 .3 1.8 1.2 1.8 2.2 0 1-.7 1.7-1.6 2-1 .3-2 .2-2.7-.4-.7-.6-1-1.7-.5-2.6.6-1 2-1.3 3-1 .3 0-1-.3 0 0M33 86c.3.3.7.5.8 1 .2.4 0 .8-.3 1.2-.7.7-2 1-3 .8-.3 0-.7-.4-.8-1-.2-.4.2-1 .6-1.2C31 86 32 86 33 86c0 .2-1 0 0 0M44.7 60.3c-1-.3-1.5-1-1.8-1.8-.4-.7-.4-2 .8-1.8.8.2 1.4 1 1.7 1.8.2.6.2 2-.8 1.8-.5-.2.4 0 0 0M39.8 53.2c-.8-.2-1.5-.6-2-1.3-.2-.4-.4-1-.2-1.2 0-.4.6-.4 1-.3.7 0 1.5.7 2 1.3.2.3.4.8.2 1.2-.2.3-.6.2-1 .2-1-.2 0 0 0 0M4.6 71.3c.4 0 .6.4.8.6.4.7.5 1.6.3 2.4 0 .3-.2.6-.5.7-.4 0-.7-.3-1-.6C4 73.7 4 73 4 72c0-.4.2-.8.6-.7M36.2 90.2c1 .2 0 1-.4 1.3-.6.4-1.4.7-2 .6-1 0-.2-1 .2-1.2.7-.4 1.4-.6 2.2-.6.4 0 0 0 0 0M34 48c-.4-.3-1.4-.6-1.6-1.2-.3-.7 1.2-.4 1.5-.4.5.2 1.4.5 1.7 1 .3.8-1.3.5-1.6.5-.4-.3.4 0 0 0M6.4 56.4c-.3.6-.6 1.3-1 1.8-.3 0-.5.5-.8.4-.3-.2 0-.7 0-1 .2-.5.5-1 1-1.6.2-.2.4-.5.7-.3.2 0 0 .5 0 .7-.2.7 0 0 0 0M30 93.5c0 .3-.6.4-.8.5-.7 0-1.3.2-2 0-.2 0-.6 0-.6-.3s.6-.4.8-.5c.6-.2 1.3-.2 2 0 0 0 .6 0 .5.3M47.5 56.5c.2.3.8 1.3.4 1.6-.5.3-1.2-.7-1.3-1-.3-.4-.8-1.5-.5-1.7.3-.3 1 .8 1.3 1.2M50 63.8c0-.3-.2-.5-.3-.8 0-.2-.4-1.5 0-1.7.3 0 .7 1.2.8 1.4v1c.2.2.2.6 0 .6s-.4-.2-.5-.5M2 76.7c0-.5-.4-1.7 0-1.8.2 0 .6.8.7 1.3.2.5.4 1.5.2 1.6-.3 0-.8-1-1-1.3M50.5 76.2c.2.6 0 1.3-.3 1.8l-.6 1c0-.5 0-1 .2-1.5 0-.5.3-1 .7-1.3 0 .3 0 0 0 0M6.6 53.3c-.4.7-.8 1.3-1.5 2 .4-.7 1-1.4 1.6-2M22.8 44.3c0 .3-2.8 1-3 .6 0-.3.5-.4 1-.5l1.2-.2h.8M7.6 86.5c.4.4 1.2 1.3 1.3 1l-1-1c-.2-.5-1-1.2-1-1l.6 1M12.8 90.4c-.3 0-1.2-.7-1.3-.5l1.2 1c.3 0 1 .6 1.2.5 0-.2-.8-.8-1.2-1M3.5 80c.3 0 1.7 2.6 1.4 2.8-.2 0-.5-.3-.7-.8 0-.2-.5-.8-.6-1 0-.2-.3-.8-.2-1M23 93.5c-.2 0-1.4-.2-1.4 0s.6.3.8.4h1c.3.2 1 .3 1 0l-1.4-.5" fill="#FF1343"/>
    <g>
      <path d="M63.8 72c20 5.8 29.8 28.2 24.3 45.7-6 19.4-27 29.8-47 24-20-6-30.6-25.7-24.4-45C22.8 77.2 43.8 66 63.8 72" fill="#000327"/>
      <path d="M53.7 119.6c.4-1.4 2-2.5 4-2 1 .3 1.3 1 1 2-.5 1.2-2.3 2-3.8 1.8-1-.2-1.5-1-1.3-1.8m-3.2 4.2c2 1.4 4 1.7 6.5 1 1.2-.3 2.4-1 3.4-1.6 1.3-1 2.3-2 2.7-3.5.2-.2.3-.5.3-.7.5-2.2-.3-4-2.6-5-1-.4-2.3-.5-3.4-.4-1.4 0-2.7.3-3.8 1-1 .4-1.7 1-2.5 1.7-1 1-1.8 2.2-2 3.7-.4 1.5.2 3 1.5 3.8M73.6 106v-.4-.7.6l.5-1.2.6-.8c.2 0 .4-.3.6-.4.8-.4 1.6-.2 2 .6.5 1 0 3-1 3.5-1.4.7-2.6 0-2.6-1.2m7-2c0-1-.4-2-1-3-.4-.7-1-1.3-1.8-1.7-1.6-.6-3.8 0-5 1.2l-.2.3c-.2 0-.3 0-.3.3v.2c-.2 0-.4.3-.5.4l-1 1.2c-1.2 2.3-1.3 4.6-.3 7 .5 1 1.5 2 3 2 2.3.2 3.8-1 5.3-2.4 1-1.7 1.7-3.5 1.7-5.4M31.4 124.8c-.4-.6-.5-1.2 0-1.6.2-.5 1-.8 1.6-.6.8.2 1.5.6 2 1 .5.7.6 1.2.4 1.7-.3.6-1 1-1.6.8h-.5c-1-.3-1.5-.6-2-1.2m2.4 4.3c2 .6 3.8 0 5.2-1.2.5-.5 1-1.2 1-2 0-1-.2-2-.7-2.7-1-1.4-2-2.4-3.6-3.2L33 119c-1.3 0-2.4 0-3.5.5-1.6.8-2.7 2.4-2 4.3.8 2.6 2.7 4.4 5.6 5l.7.3M72.3 126.2c-1 .2-1.5-.2-1-1.4.4-1 1-2 2.4-2.4h.4c1-.3 1.6.2 1.3 1-.4 1.2-1.3 2-2.4 2.7-.3.2-.5.2-.7.2m6.5-3.8c.2-.8.4-1.6.2-2.5 0-.5-.2-.8-.5-1-.5-.6-1-.8-1.8-.8-1.3 0-2.5.4-3.5 1-1.2.5-2 1.4-3 2-1.5 1.3-2.7 2.6-3.4 4.2-.3.8-.5 1.6-.3 2.4.2 1 .6 1.6 1.7 1.8.8.2 1.5.2 2.2 0 2.5-.5 4.5-1.7 6-3.5 1-1 2-2.2 2.4-3.6M47.3 134.5c.4-.4 1-.6 1.5-.7.7-.2 1.4 0 2 0l1 .5c.5.4.5.7 0 1 0 .3-.2.4-.4.5-1.2.5-2.5.7-3.8.2-1-.3-1-1-.3-1.5m9.7.4c.4-.8.4-1.6-.2-2.2-.7-.8-1.5-1.3-2.6-1.6H54c-2.8-.6-5.6-.4-8.2.4-1.2.3-2.3 1-3 1.7-1.2 1-1.2 2.4 0 3.3 1.5 1 3 1.7 5 1.8 2 .2 4.3 0 6.3-1 1.4-.4 2.4-1.3 3-2.5M24 109.6c-.7-1-.8-2.2.2-3.3.6-.6 1.4-.5 1.8.4.3.7 0 1.4 0 2.2l-.6.8c-.5.5-1 .5-1.5-.2m4.2 1.6c.3-1 .3-1.6.4-2.3.2-1 .2-1.6 0-2.4 0-1-.2-2.2-.8-3-1-1.4-2.2-1.7-3.6-.8l-.8.7c-1.6 1.6-2.3 3.5-2 5.6 0 1.5.4 2.8 1.4 4 1 1 1.7 1.2 3.3.6 1.3-.5 2-1.5 2.2-2.4M88 105.2c.3 1.3 0 2.6-.6 3.7-.2 0-.3.3-.6.2-.2 0-.3-.3-.3-.5-.2-.8-.2-1.7 0-2.5.2-.4.4-1 .8-1.2.3-.3.6-.2.7.2m-1.8-3.5c-1.6 2.6-2 5.5-2 8.5v1c.3.6.3 1.2.7 1.8.4.5 1 .6 1.6.2l1-1c.5-.7.8-1.6 1.2-2.4l.3-2c.2-2 .2-3.8-.2-5.7 0-.5-.5-1-1.2-1.2-.7 0-1 .4-1.4 1M57.6 97.4c.3 0 .6.3 1 .5l.5 1c0 .5.2 1-.2 1.6-.7 1-2 1-3 .2l-.8-1c0-.4-.2-1 0-1.3.4-1 1.5-1.5 2.6-1m-2.2 7.4c3.7.8 6.5-1 7.4-4.2.5-1.6 0-3-1-4.3-.2.4-.4.8-.7 1 0 .3-.2.4-.4.5.2 0 .3-.2.5-.4.4-.3.6-.7.7-1-.2-.6-.6-1-1-1-1.7-1.4-3.4-2-5.4-1.6-3.3.5-4.8 4-3.6 7 0 .7.3 1.3 1 1.8 0 .2 0 .3.2.3.5 1 1.4 1.7 2.4 2M68.5 137.3l-.7.6c-1 .4-2 1-3 1-.2.2-.5.2-.6 0v-.5c1-1 2.4-1.7 4-1.8.5 0 .5.3.3.6M72 134c-.8 0-1.5 0-2 .2-2.2.5-4.2 1.2-6 2.2-1.3.7-2.6 1.3-3.7 2.3-.4.3-.6.7-.7 1 0 .6 0 1 .6 1h.7c1.4 0 3 0 4.4-.7 1.8-.6 3.4-1.4 5-2.4.8-.6 1.6-1.4 2-2.3.4-.7.2-1-.5-1.3M82.5 88.2c.7 1 1 1.8 1 2.8-.2.6-.5.7-1 .4-.7-.8-1.2-1.7-1.2-2.8 0-.3 0-.6.4-.7.4-.2.6 0 .8.2M78.8 86c0 .4-.2.8 0 1.3.3 2.6 1.3 4.8 3 7l1 .7c1.2.6 2.3.2 2.6-1 .2-1 .2-2.3-.3-3.4-.5-1.3-1.3-2.6-2.2-3.8l-1.4-1.5c-1-1-2-.6-2.6.7M68 89l-1.4-.8-.5-.6c-.5-1 0-2 1.2-2l.8.2c.7.3 1.3.6 1.6 1.3.3.6.4 1.2 0 1.5-.4.4-1 .6-1.6.4m5-.4c-.3-2.4-2.7-5-5.5-5.2-1-.3-2.2-.3-3.3 0-1.2.6-2 1.6-1.8 2.8.2 1.6 1 3 2.4 4 1 1 2.3 1.7 3.8 2h1.8c1.3-.3 3-1.8 2.7-3.6M42.7 87.8c.7.3 1.3 1.5 1 2.2-.2.7-.8.8-1.3.4-.6-.4-1-1.8-.5-2.4 0-.3.4-.4.7-.2m-2-2c-.2 0-.2.2-.3.4-.3 1.3-.4 2.7-.2 4 0 1.3.6 2.3 1.7 3 .4.5 1 .8 1.7.7 1.3-.3 2.3-1.2 2.5-2.4 0-.7 0-1.4-.2-2-.7-2-2-3.4-3.8-4.4-.8-.4-1.3-.2-1.6.5M43 105.8c-.6.2-1 .5-1.4.8v.5c.2.8 0 1.4-.2 2-1 1-2 1-2.7.4-.4-.3-.5-.7-.7-1 0-.3 0-.6-.2-1 .2-.4.3-1 .6-1.3 1-1 2-.8 2.8 0 0 .3.3.4.4.6l1.3-.8c0-.2.3-.2.6-.3-.3 0-.5 0-.7.3m-3-4c-.6 0-1.3 0-2 .4-2 1.2-3 3-3.3 5-.2.7-.3 1.3 0 2 0 0 0 .4.2.7.4 1.4 1.3 2.7 3 3.3 2 .7 4 .4 5.6-1 1.8-1.6 2.3-3.5 1.7-5.7l-.8.7.8-.7c-.3-.4 0-1-.6-1.4-.7-2-2.6-3.3-4.6-3.5M48.5 84.2c-.2-.2-.3-.4-.2-.6.2-.3.4-.3.6-.3.8 0 1.5.3 2.2.7.3.3.5.5.4 1-.2.2-.5.3-.8.2H50c-.6-.2-1-.5-1.5-1M55 86c0-.7-.2-1.2-.6-1.6-.7-1-1.8-1.6-3-2-1.5-.3-3-.6-4.6-.6-.5 0-1 0-1.4.4-.3.5 0 1 .3 1.3 1.2 1.7 2.7 3 4.6 3.7 1 .5 2.2.7 3.4.2.7-.3 1.2-.7 1.2-1.5M26.8 132c1.2.6 2.3 1.3 3 2.3.2 0 .3.2.2.4h-.4-.4c-.5-.2-1-.5-1.3-1-.6-.2-1-.6-1.6-1 0-.2-.2-.4 0-.5 0-.2.2 0 .4 0m-1.8-3l-1-.2c-.7 0-1 .3-.8 1l.5 1c2 2 4.3 3.8 6.8 5.5l1 .4h1.7c.8 0 1-.3.7-1-.3-.6-.7-1-1-1.3-1.5-2-3.3-3.2-5.4-4.3-1-.4-1.8-.7-2.6-1.2M33.2 92c0-.5.2-1 .5-1.4 0-.3.4-.7.7-1 0-.2.3-.4.5-.3.2 0 .2.4.2.5 0 .5 0 1-.2 1.3-.2.6-.4 1-.8 1.4-.2.2-.3.3-.6.3s-.4-.4-.4-.7m1 4l.7-.8c.5-.7.8-1.4 1-2.2l.5-1.4c.4-1.4.4-2.8.2-4.3 0-.4 0-1-.6-1-.4-.2-.8.2-1 .6-1.5 1.4-2.6 3-3.4 5-.4.8-.5 1.8-.2 2.8.3 1.3 1.5 1.8 2.7 1M18.3 119.8c-.4-.2-.7-.6-.8-1-.4-.7-.5-1.4-.7-2v-.5h.6c0 .2.3.3.3.4.5.8 1 1.7 1 2.6v.3c0 .3-.2.3-.4.2m2.8 2.8c.3-.5.2-1.2 0-1.8-.4-1.8-1-3.4-1.7-5-.6-1.2-1.3-2.2-2.3-3-.6-.5-1-.5-1.2 0-.4.7-.3 1.3 0 2 .3 2 1 4.2 2 6.3.2 1 .8 1.7 1.6 2.2 1 .6 1.4.4 1.7-.6M70 77.2c.5.2 1 .5 1.2 1 0 0 .3.2.2.4-.2.2-.3.2-.5 0h-1c-.8-.3-1.4-.5-2-1 0 0-.4-.2-.3-.5 0-.2.4-.2.7-.2.6 0 1 0 1.6.4m-5.3 0c.7.7 1.4 1.3 2.3 1.8 1 .6 2.2 1 3.4 1.4l1.3.4 1.5.2c1.2 0 1.7-1 1-2-.7-.7-1.4-1.5-2.4-2s-2-1-3-1.3c-1-.5-2.3-.5-3.5-.2-1 .2-1.2 1-.6 1.7M55 78.8c0 .2 0 .3-.3.3-1 .3-2 .3-3 0 0 0-.2 0-.3-.2 0 0 0-.2.2-.3 1-.3 2-.4 3 0 .3 0 .5 0 .5.3m-6.6-.5c-.3 0-.7 0-.7.5 0 .4.4.5.8.6 2.5 1 5.2 1 7.8 1.2.7 0 1.3 0 1.8-.4 1-.5 1-1.4.2-2l-1.6-.7c-.7 0-1.3-.4-2-.3-2 0-4.2.4-6.2 1M27.3 90.7c-.2-.2 0-.4 0-.6.2-.6 1.7-2 2.6-2v.2c-.6 1-1.3 1.8-2.2 2.4 0 0-.3.2-.5 0m1 1.7c.3-.6.8-1 1.2-1.7 1.2-1.4 2.2-2.8 3-4.4 0-.3.3-.7 0-1-.3-.3-.7 0-1 .2l-4.2 3c-1 1-1.7 2-2.2 3.4v1c-.2.3 0 .7.3 1 .4.2.8 0 1 0 .8-.4 1.4-1 2-1.5M17.2 100.7c-.2-1 0-2 .4-3 0-.2.5-.7 1-.6.4.3.2.8 0 1 0 .5-.2 1-.4 1.4-.2.4-.2.7 0 1-.4 0-.4 0-.8.4h-.2m.3 3.3c.5-.4.7-1 1-1.7v-1c-.2-.2-.5-.4-.3-.8.2.3.3.7.6 1 0-.2.2-.2.2-.3 1-1.8 1.3-3.8 1.5-5.7v-.8c-.2-.8-.7-1-1.4-.4-.8.7-1.3 1.6-1.7 2.6-.5 1.5-1 3-1.2 4.6 0 .8 0 1.5.3 2.2.2.8.6 1 1.2.3M37 81.4v.2h.2c0-.2 0-.2-.2-.2" fill="#FF1343"/>
      <path d="M41 79c.2-.2.3-.3.4 0h-.2s-.2.2-.3 0m-3.2.3c.2 0 .4 0 .6.2 0 0 .2 0 .2.3h-1.8c-.5 0-1 .2-1.2.5.6.2 1.2 0 1.7.2 0 .3-.2.3-.3.4-.5 0-1 .4-1.5.6 0 0-.4.2-.3.4 0 .3.4 0 .6 0l1-.6h.3c.2-.3.5-.3.6-.4 0 0 .3-.2.4 0l-.3.2-.4.4c-.3.4-1 .7-1 1.4 1.4-.3 1.8-1.4 2.6-2.2 0 .4 0 .6-.2.8 0 .4-.2.7-.3 1 0 .2 0 .4.2.5.2 0 .4 0 .5-.2v-.3c0-.6.4-1.2.4-1.8.2 0 .3.2.4.3.2.5.8.7 1.3 1 .4 0 .5-.2.4-.6 0-.2-.2-.3-.4-.4-.4-.3-1-.4-1-.8 0-.2.2 0 .4 0 .5 0 1 0 1.6.2.5 0 1 0 1.3-.4l-2-.4v-.2l2-.7s.4 0 .3-.3c-.2-.3-.5-.2-.6 0-.5 0-1 .2-1.3.3 0 0-.2.2-.3 0 0-.2 0-.2.2-.3.2-.3.5-.5.6-1l-1.4.7c-.4.3-.6 1-1.2 1 0-.5.3-.8.4-1.2 0 0 .2-.3 0-.4H40c-.2.2-.2.4-.2.5l-.5 1.3c-.4-.5-.8-.7-1.3-.8-.2 0-.5 0-.6.3 0 .2 0 .4.4.5M47 142.6c-1 .2-3.7-.2-4.3-.7.3-.4.8-.3 1-.2 1.2.2 2.3.2 3.4.8m-7-2.2h-1l-.5.4c0 .2.3.3.4.4.6.6 1.5.7 2.3 1 2.2.5 4.5.7 6.8 1 1 .2 2 0 3-.2 0 0 .4 0 .5-.3 0-.2-.2-.3-.4-.4-.6-.4-1.4-.7-2.2-1-3-.6-6-.6-9-1M53.2 74.3c-.7.7-2.3 1-3.3 1 .7-1 2.2-1.4 3.2-1m-6 1.3c-.2 0-.3.2-.5.4s0 .3.2.4h.6c.8 0 1.6 0 2.3-.2 2-.3 3.8-.8 5.7-1.3.4-.2 1-.4 1-.8-.2-.5-.7-.5-1-.7-1.6-.3-3-.3-4.5 0-1.5.5-2.8 1.2-4 2M29 83.8c-.7 1-2 1.8-3 1.8.7-1 1.7-1.4 3-1.8M23.7 88c.3.2.5 0 .8 0 .4 0 .7-.4 1-.6l1-.6c1.4-1 2.8-2 4.2-3.2l.8-.8s.2-.3 0-.4c0-.2 0 0-.3 0-.7 0-1.3 0-2 .3-2.4.7-4 2.2-5.3 4 0 .3 0 .5-.2.6 0 .3-.2.6 0 .8M85.4 122c.2.2 0 .4 0 .6l-1 2-.2.3-.3.6v-.6c-.4.3-.5.8-1 1-.3-.7 0-1 .2-1.5l1-1.5.7-.7c0-.2.2-.4.4-.3m-1.5 0v0m2-3.2c-.8.7-1.5 1.5-2 2.4v.2c-1.7 1.7-3 3.6-3.8 5.8 0 .4-.3.8-.3 1.3 0 .2-.2.6 0 .7.4.2.7 0 1-.2l3-2.8v-.2l.5-.7c1-1.8 2.2-3.7 3-5.7 0-.5.3-1-.3-1.4-.5-.2-1 .2-1.2.6M44.7 73.7v-.2c.6-.6 1.2-1 2.3-1-.6 1-1.3 1-2 1.4 0 0-.2 0-.3-.3m-2 1.4c.3.3.5.3.8.2l1-.3c1.5-.7 3-1.6 4.6-2.5.2 0 .5-.2.4-.4 0-.2-.3 0-.5 0-.4 0-.7-.2-1 0-1 0-2 .3-3.2.6-1 .3-1.6 1-2 2 0 0-.2.3 0 .5M30 80c.6-.8 1-1.2 2-1.2 0 0 .2 0 .2.2v.3c-.7.4-1.3.6-2.3.6m4-1c.4-.2.3-.4 0-.7-.3-.4-1.2-.7-1.8-.4-1.3.6-2.6 1.4-3.6 2.4-.3.2-.5.5-.5.8 2-.2 3.8-1 5.5-1.7.2 0 .4-.3.6-.4M37.4 75.5c-.3-.3 0-.5.2-.7h.2l.7-.3c.3 0 .4 0 .3.3 0 .4-.4.6-.7.7 0 0-.4.2-.6 0m3-1.3c.2-.3 0-.5-.4-.4-.8 0-1.6.4-2.3.8h-.2c-.6.3-1 .5-1.5 1-.5.2-.5.4 0 .7.7.4 1.5.5 2.3 0 1-.3 1.7-1 2-2M60.7 71.8c-.7 0-1.4-.2-2-.4-1-.3-2-.4-3.2-.2 1.5.5 3 .8 4.5 1l4.4.5c-1.2-.4-2.4-.8-3.7-1M19.4 91c1-1.3 2-2.6 2.7-4-1 1.2-2 2.4-2.6 4M86 90c0 .2 0 .2.2.2z" fill="#FF1343"/>
    </g>
    <g>
      <path d="M83 157.7c5.5 1.8 10 5 13.7 9.5 2.7 3.2 4.7 7 6 11-3.8-9.6-10.2-16.5-19.7-20.5" fill="#FF1343"/>
      <path d="M69 114c17.7-12.4 42.2-8 54.6 10 12.5 17.8 8 42.2-9.7 54.5-18 12.3-42.3 7.8-54.8-10-12.4-18-8-42.3 9.7-54.6" fill="#000327"/>
      <path d="M95.2 165.6l.6-.8v-1c-.4-.8-1-1-1.8-1-.4 0-.8 0-1 .3l-1 1-1.6 1.8c-.4.5-.5 1.3 0 2 .2 0 .4.2.6.4l1 .2c.7 0 1.2-.6 1.7-1 .4-.6 1-1 1.4-1.7h.2M81 173l2.6-2.2c.2-.3 0-.5 0-.8 0-.3 0-.5-.4-.7-.5-.4-1-.7-1.7-.6-.4 0-.5.2-.8.5l-.6.7-.5.5-.6.7c-.7.8 1.2 2.5 2 2M109.6 124.6c-.4-.3-1-.5-1.6-.2-.5.4-.8 1-1.2 1.4l-.4.5-.4.7c-.2.5.2 1.3.4 1.5.5.4 1 .8 1.7.7.8 0 1-.8 1.5-1.3.3-.6 1-1.2 1-1.8 0-.6-.3-1.3-1-1.6M98.8 129.5c-.6-.4-1.5-.2-2 .3-.6.6-1 1.4-1.7 2-.4.5-.8 1-.8 1.7 0 .6.3 1 .8 1.5.5.4 1.3.6 2 .3l.7-1 .8-.8v-.2l1-1 .5-1c0-.2 0-.8-.3-1 0-.3-.6-.7-1-.8M97 123.7c-.7 0-1.4.8-1.8 1.3l-1.5 2c-.3.3 0 1 .2 1.4 0 .2.4.5.7.6.2 0 1 .3 1.6 0l2.4-2.6c.4-.6.6-1.3 0-2-.3-.5-1-.7-1.8-.7M103 119.4c-.4-.2-1.2-.3-1.6 0-.3 0-.4.2-.6.4l-.6.5-.7.8c0 .3-.4.6-.4 1 0 .5.5 1 1 1.3.3.2.7.3 1 .3.3 0 .5 0 .7-.2.3 0 2-1.8 2.2-2.5.2-.7-.4-1.3-1-1.6M107.3 119.7c-.3 0-.5 0-.8.2l-.7.8c-.3.3-1 .8-1 1.3 0 .6.3 1 .6 1.3.3.3 1.2.6 1.5.6.4-.2.8-.7 1-1 .4-.4 1-.8 1-1.3.6-1-1-2-1.7-2M117.5 141.8c-.4-.4-1.2-.4-1.6 0v.2c-.5.6-.8 1-1 1.7-.4.6-1 1-1 1.8-.2.6 0 1.4.6 1.8.2.2.5.3.7.3.4 0 .6 0 .8-.4.6-.5 1-1 1.2-1.7.3-.7 1-1.2 1-2 0-.6-.2-1.3-.7-1.7M103 123.8c-.2 0-.6 0-.8.4l-.5.5-1.3 1.6c-.5.6-.5 1.2 0 2 .2.5 1 .8 1.6.8.8 0 1.2-.6 1.7-1.2l.7-1 .5-.6c.2-.5 0-1.2-.2-1.5-.4-.5-1-1-1.7-1M109.7 129.6c-.7 0-1 1-1.5 1.4-.4.5-1 1-1.2 1.7-.2.6 0 1.3.4 1.7.3.3.5.5.8.6.5.3 1 .3 1.5-.3l.7-1 1.2-1.7c.3-.5 0-1.2-.4-1.6-.4-.5-.8-1-1.5-.8M114 130.4c-.2.3-1.3 1.8-1.5 2.5 0 .4 0 1 .4 1.5.3.4.8 1 1.4.7.6 0 1-.8 1-1.3.3-.4 1-1.4 1-1.7.2-.5 0-1-.3-1.5-.6-.8-1.5-1-2-.4M116.2 135.7c-.6-.2-1 0-1 .3l-1.7 2.5c-.2.6-.2 1.2 0 1.8.2.5.8 1 1.4 1 .4 0 .8-.3 1-.8l1-1.8c1-1.3.4-2.5-.8-3M101.5 134.8c.5.4 1.3.5 2 .2.3 0 .5-.4.7-.7l.8-1c.5-.7 1-1.3 1-2 .2-.6-.3-1.3-.7-1.6-.5-.4-1-.5-1.7-.3-.3 0-.5.3-.7.6l-1 1c0 .3 0 .2 0 0-.4.7-1 1.3-1.2 2 0 .6.2 1.4.7 1.8M78.5 165.3l.2-.2c0 .2-.2.3-.2.3M87.4 150.5c-.6-.5-1.5-.6-2.2-.2-.6.4-1 1.2-1.4 1.8-.3.5-.6 1-1 1.2 0 .3-.4.6-.5 1-.3.6 0 1.5.6 2 .4.5 1.2.6 2 .2.3 0 .5-.4.7-.8l1-1s1.4-2 1.4-2.2c.2-.7 0-1.5-.6-2M95.6 141.7c.4.3.5.4 1 .4.4.2.7 0 1-.2.7-.3 1-1 1.5-1.5.6-.7 1.4-1.4 1.6-2.3.2-.7 0-1.3-.5-2-.4-.4-1.4-.6-2-.3-.7.4-1.2 1.2-1.6 1.8 0 0-.8 1-1 1 0 .4-.4.7-.6 1.2v1c.2.5.4.7.8 1M86.6 154.5c-.4.6 0 0 0 0M93.2 142.8c-.7-.2-1.4 0-2 .4L90 145s.4-.6 0 0c0 0-1.4 1.6-1.5 2-.2.4-.2 1.2.2 1.7.2.3.7.6 1 .7.6.2 1.2 0 1.7-.3.6-.4 2.5-2.8 2.8-3.4.6-1 .2-2.5-1-2.8M102 131c.2 0 0 0 0 0M93 136.2c-.5-.3-1.2-.4-1.7 0-.7.2-1 .8-1.5 1.4l-1.5 2c-.4.4-.6 1-.4 1.6 0 .4.4 1 .8 1.2.5.2 1.5.5 2.3-.3.4-.2.6-.6 1-1l1.5-2c.2 0 .3-.4.4-.7v-.8c0-.5-.4-1-1-1.3" fill="#FF1343"/>
      <path d="M98.6 133.3v.2c-.3.2 0-.2 0-.2M93.7 149.7h-1.5l-.7 1-.7.7-1.2 1.6c-.2 0-.6 1-.6 1v1c.3.7.7 1 1.4 1.2.6.2 1.2 0 1.6-.3l.7-1c.2-.2.5-.5.7-1l1.5-1.7v-1.5c-.3-.5-.7-1-1.3-1M90 162.2c.5.5 1.5.6 2 .3 1-.3 3.3-3.5 3.4-4 .2-.5 0-1.2-.5-1.7-.7-.4-1.2-.4-1.8-.3-.4 0-.8.3-1 .6-.5.4-2.4 3-2.6 3.3-.3.6 0 1.5.5 2M80 163.5c-.5.4-1.8 2-2 2.4-.2.2-.3.5-.3 1 .2.5.6.8 1 1.2.5.3 1 .3 1.6 0 .7-.2 1.2-1 1.7-1.5.5-.6 1-1.2.8-2 0-.6-.5-1-1-1.3-.6-.3-1.3-.3-1.8 0M97 149h1l.3-.3c.6-.4 1-1.2 1.4-1.7.4-.6 1-1.2 1.3-1.8.7-1 0-2.5-1-3-1.6-.3-2.4 1.3-3.2 2.2l-1.4 2c0 .5-.2 1.3.2 1.8.3.4.8.8 1.3.8M86.2 173.3c.7 0 1.3-.2 1.8-.8l1.5-1.4c.5-.4.4-1 0-1.7-.3-.4-1-.6-1.5-.6-.3 0-.7 0-1 .3-.2 0-.4.5-.6.7l-1.6 1.5c-.3.5-.4 1 0 1.4.3.4 1 .7 1.4.7M86 162.5c.6-.7 1-1.5 1.8-2 .5-.7 1-1.3 1-2.2-.4-1.4-2.2-2-3.3-1-.7.5-1 1.3-1.6 2-.4.3-.6.5-.8 1-.2.2-.3.6-.3 1 0 .3 0 .5.3 1l1 .5c.5.2 1.2.2 1.7-.3M88.7 163.5c.3.2-.2-.2 0 0" fill="#FF1343"/>
      <path d="M85.8 168.5c.8 0 1.2-.7 1.7-1.3l1-1c.2-.2.5-.4.6-.7.4-.7.3-1.6-.3-2-.4-.4-1.3-.5-1.7-.4-.7.3-1 .7-1.4 1.2l-1.6 2c-.4.4-.4 1 0 1.6.5.5 1 .8 1.8.7M61.8 150.8c.3 0 1-1 1-1.2 0-.3 1-1.8 1.2-2.5 0-.4 0-1-.4-1.5s-1-.5-1.4 0c-.4.4-.7 1.2-1 1.8-.3.6-.6 1-.6 1.8 0 .6.2 1 .6 1.5l.6.3M69.3 130.8c0 .5.2.6.5 1h1c.6-.3 1-.8 1.5-1.4.4-.6 1-1 1.4-1.7.3-.5.7-1 .6-1.6 0-.4-.7-1-1.2-.8-.7 0-1 .4-1.5 1s-1 1.2-1.4 2c-.3.4-.8 1-.7 1.6M69.7 125.5c0 .3 0 .6.3.8.2.2.5.2.8.2.6 0 1-.6 1.4-1l1.5-1.6c.3-.5 1-1 1-1.7 0-1.3-1.7-1-2.4-.3l-1.4 1.8c-.6.5-1 1-1.3 1.7M68.4 123l-.7.4-1.2 1.4c-.4.5-1 1-1 1.5-.2.4-.4 1.2.2 1.4.4.2 1 0 1.2-.5.4-.5 1-1 1.3-1.6.4-.5 1-1 1.2-1.5 0-.2.2-.5 0-.8 0-.2-1-.4-1-.3M73.7 117.7c-.2 0-.4.2-.6.4l-.7.8c-.4.4-.8 1-1.3 1.3v.2l-.5.6v.7c.2.5.8.4 1.2.2.2 0 .5 0 .7-.3l.6-.7 1.4-1.3c.3-.4 1-1 .7-1.5-.2-.7-.8-.5-1.3-.3M60.8 132.8c0 .6 0 1.4.8 1.2.5-.2.8-.8 1-1.2l1.2-1.6c.4-.5.7-1 .7-1.6 0-.5-.2-1-.8-1-.5.2-.8.8-1.2 1.2l-1 1.6-.7 1.4M60.4 137.8c0 .4 0 1.3.5 1.5.5.2 1-.3 1.2-.8l1-1.7.6-.8.2-.8c0-.5 0-1.2-.5-1.4-.6-.2-1 .3-1.3.7 0 0-1 1.4-1 1.6l-.5 1c-.2.2-.2.4-.3.8M76.3 143.6c.8 0 1.3-.6 1.7-1 .6-1 1-1.6 1.7-2.3.4-.6 1-1.2.7-2-.2-.7-.8-1.2-1.5-1.3-.8 0-1.6.6-1.8 1l-1.7 2c-.5.7-1 1.3-.7 2.2.2.7.7 1.3 1.5 1.4M82 177c.4 0 .8-.3 1-.6.5-.4 1.3-.8 1.5-1.3.2-.2 0-1-.4-1-.3-.4-.8-.6-1.4-.6-.6 0-1 .5-1.4.8-.2.2-.4.3-.5.6l-.6.5c-.3.5 0 1 .5 1.2.5.3.8.5 1.4.5M79.6 116.4h-.8c-.5.3-1 .6-1.3 1l-1.2 1c-.4.5-1 1-1 1.5 0 .6.8.7 1.4.6.6 0 1-.5 1.4-1 .6-.3 1-.8 1.5-1.2l.7-.6c.2-.3.2-.6.2-1-.2 0-.5-.4-.8-.4M75.5 125.2c.6.3 1.3 0 1.8-.3l.6-.7.7-.8c.6-.7 2.3-2 1-3-.2-.4-1.2 0-1.6 0l-1.5 1.6c-.4.6-1.2 1-1.4 1.7-.2.6 0 1.2.5 1.5M79.8 120.6s0-.2 0 0M71.5 175c.3.3.8.6 1.2.5.4 0 .7-.6 1-1 .4-.3.5-.5.3-1l-.8-1-1.2-.3c-.4 0-1.3 1.3-1.4 1.4v.6c0 .3.6.7 1 1M69.7 169v-.2M75 136.7c.6.5 1.5.3 2 0 .7-.3 1.2-1.2 1.6-1.8 0 0-.2.2 0-.2l1.5-2c.3-.4.2-1.2-.2-1.6-.5-.5-1.4-.6-2-.3-.6.3-1 1-1.5 1.6l-1 1c0 .3-.4.6-.5 1-.3.6-.3 1.5.3 2M72 171c.3-.5.8-.8.7-1.4 0-.6-.3-1-.7-1.2-.5-.4-.8-.7-1.4-.5-.4 0-1.6 2-1.6 2 0 .5.3 1 .6 1.2.4.3.7.6 1.2.6.6 0 .8-.4 1.2-1M75 172.5c.2 0 .7.2 2-1 .5-.3 1-1 1-1.4 0-1-1.2-1.7-2.2-1.6-.7 0-1 .6-1.3 1-.2.4-1 1-1 1.5 0 .4.3.8.7 1l.8.5M84 174c.3 0-.2-.2 0 0M63.4 139.5c.3.2 0 0 0 0M77 179l1.2.4c.4 0 .8-.3 1.2-.5.3-.3.8-.5 1-1 0-.7-1.3-1.2-2-1.2-.3 0-.7 0-1 .3l-1 1c0 .4.3.7.5 1M60.7 144.8c.4.5 1 .2 1.4-.3l.5-1 .5-.7c.3-.6.7-1 .8-1.7 0-.5 0-1.2-.4-1.5-.3-.2-.5-.3-1 0l-.4.4c-.2 0-.7 1-.8 1.3-.2.3-.8 1.3-.8 1.6-.2.4 0 1.3.3 1.8M66.6 170.8c.4.2.6 0 .7-.3 0-.2 1-1.3.8-1.8 0-.5-.2-.8-.6-1-.3-.4-.6-.7-1-.7-.5 0-.7.7-1 1 0 .4-.3 1-.2 1.4.2.7.7 1.2 1.4 1.4M120 136c-.2-.2-.3 0-.5.2-.4.4-.5 1-.8 1.4-.3.6-.5 1-.6 1.6 0 .5.2 1 .5 1.4 0 .2.3.4.5.5.2.3.5.4.8.2.3-.2.5-.5.6-.8 0-.3.3-.4.5-1l.4-1.4c0-.6-.2-1.4-.6-2h-.7M62.8 156.3c.3 0 .7-.7 1-1.2l.4-.7.3-.7c.4-.8 0-2.4-1-2.6-.8 0-1 .4-1.2 1l-1 1.8c-.3 1 .7 2.7 1.5 2.5M61 161.7l-.3.6c0 .2 0 .4-.2.7v1c0 .3.3.7.5 1 .3.4 1 .8 1 .6.3-.3.5-1 .6-1.2.2-.5.3-1 .2-1.4-.2-.5-1-2-1.8-1.3M69.8 167.2c.3 0 1.4-1.8 1.6-2 .4-.8 0-1-.3-1.7 0-.2-.5-.4-.7-.6-.4-.4-1-.4-1.4 0-.3.2-1.4 2-1.4 2.3v.6c.2.6 1.4 2 2.2 1.2M68.3 135c-.3.4.2-.2 0 0M76 163.5c-.4-.3-1-.5-1.5-.4-.3.2-.4.4-.5.6l-.8 1c-.4.4-1 1-1 1.7 0 .5.4 1 .8 1.3.4.3 1 .5 1.4.4.7 0 2-2 2-2.2.2-.2.5-.4.5-.8 0-.6-.5-1-1-1.5M74 157c-.3 0-.6.2-.8.4l-1.8 2.6c-.4.6-.3 1.2 0 2 .3.3.8.6 1.4.7.6.2 1-.3 1.3-.8l1.6-2c0-.3.3-.6.3-1s-.2-.7-.4-1c-.4-.6-.8-1-1.5-1M64.3 137.5c0 .6.6 1.2 1.3 1 .7-.3 1-1 1.4-1.6l1.2-2c.5-.5.6-1 .4-1.6-.2-.5-.7-.8-1.2-.8-.2 0-.6.4-.8.5l-.6 1-1.4 2c-.3.5-.4 1-.3 1.5M66.6 132.3l.5-.8.8-1c.4-.5 1-1 1-1.6.3-.6.3-1.4-.3-1.6-.6 0-1.2.2-1.5.6l-1.3 1.7c-.4.6-1 1.2-1 2 0 .3 0 1 .5 1 .5.3 1 0 1.4-.4M80.8 161v.2M92.8 130c-.4-.3-1-.5-1.6-.4-.6 0-1 .5-1.3 1-.6.4-1 1-1.6 1.6-.4.5-.8 1-1 1.5-.2 1 .5 2 1.4 2 1.5.3 2.2-1 3-2l1.5-2c.2-.6 0-1.2-.5-1.6M81.3 157.5c-.5-.4-1.3-.7-2-.3-.6.4-1 1.2-1.4 1.7-.5.5-1.3 1.3-1.3 2 0 .6.4 1.4 1 1.7.5.3 1 .3 1.6 0 .6-.3 1-1 1.4-1.5 0 0 0 .2 0 0 .2 0 1.3-1.6 1.3-2 .2-.6 0-1.2-.7-1.7M92 124.2c-.3-.3-1-.6-2 0-.2 0-.4.3-.7.5l-1.5 1.8c-.5.5-1 1-.7 1.8.2.4.4.5.7.8.4.3.6.4 1 .4.8 0 1.4-.3 1.8-1l1.8-2c.4-.4.7-1 .3-1.7 0-.2-.4-.4-.6-.5M85 143.3c-.8.3-1.2 1-1.7 1.7l-.8 1-.8 1.2c-.3.7 0 1.6.5 2.2.2.2.6.5 1 .5.5 0 .6 0 1-.2.7-.6 1.2-1.2 1.7-2 .4-.6 1-1.2 1.4-2 .3-.6.2-1.4-.2-2-.5-.6-1.4-1-2.2-.5M65 144.5c.6.3 1.2-.2 1.5-.6v-.2c.2-.2 0 0 0 0l1.2-1.8c.3-.6 1-1.2 1-1.8 0-.6-.3-1.4-.8-1.6-.8-.3-1.4 0-1.7.6-.5.5-2 3-2 3.5 0 .6 0 1.5.7 1.8M71.8 150.3l.7-1 1.5-2c.7-1 .7-2.7-.7-3-.7-.3-1.3 0-1.7.6-.4.6-1 1.2-1.4 2-.4.5-.8 1.3-.7 2 .2.8 1 1.5 1.5 1.5.4 0 .7 0 .8-.2" fill="#FF1343"/>
      <path d="M92 133.6s-.2 0-.2.2v-.2M74.7 153.7c-.4.5 0 0 0 0M67.6 162.2c.5.3 1 0 1.2-.4 0 0 1-1.5 1-1.7.4-.4.6-1 .5-1.5-.2-.6-.6-1.2-1.2-1.4h-.6c-.3 0-.5.3-.7.5l-1 1.8c-.4.6-.5 1.2-.2 2l1 1M79.5 127.8l.6-1v-.8c0-.4-.6-.8-1-.8-1 0-1.5.4-2 1l-1.6 1.8c-.4.4-.8 1-.7 1.6 0 .7.6 1.3 1.3 1.3.8 0 1.3-.7 1.8-1.3l1.6-1.8v-.2M73.6 150.7c-.7 0-1.2.2-1.5.8l-1.3 2c-.4.5-.6 1.2-.5 2 .2.6.7 1 1.4 1.3.7 0 1.2-.2 1.6-.8l1.5-2.3.4-1v-.8c-.3-.7-.8-1.2-1.4-1.3M72.2 131.8c-.7.4-1.2 1.2-1.6 1.7l-1.3 2c-.3.5-.4 1.3 0 1.8.5.5 1.2.6 1.8.2.7-.5 1-1 1.5-1.7l1.4-2c.2-.5 0-1.2-.2-1.7-.3-.5-1-.4-1.6-.2M67.3 156.6l2.2-3.5c0-.6-.2-1.2-.7-1.7-.3-.4-1-.5-1.5-.2-.6.4-2 3-2 3.6 0 .5.2 1.2.6 1.6.2.4 1 .7 1.3.4M66.2 150.7c.6-.2.8-.8 1.2-1.3l1-1.8c.4-.5.7-1.3.3-2-.3-.6-.6-1-1.3-1-.3 0-.6.2-1 .5 0 .3-.3.7-.5 1-.6.6-.8 1-1 1.8-.4.6-.5 1.5-.2 2s.8 1 1.4 1M72.8 137.7c-.8 0-1.3.6-1.7 1.3l-1.5 2.2c-.3.5-.4 1-.3 1.6 0 .7 1.3 2 2.2 1l.8-1 1.5-2.2c.4-.5.6-1.3.4-1.8 0-.6-.6-1-1.2-1M60 160.8s.3.4.6.3l.3-.4c0-.3 0-.5.2-.7l.2-.8c.3-1 .2-1.8-.5-2.5-.4-.3-1-.4-1.2 0 0 .3-.2.5-.3.7v.6c-.3.5-.5 1-.3 1.5 0 .5.3 1 .7 1.3-.2 0-.3 0 0 0M53.2 154.6c0 .2.3.3.4 0 0-.5 0-1 .2-1.8v-1c-.2 0-.2-.6-.5-.8 0 0 0-.2-.2 0v3c0 .3 0 .5.2.6M54.6 157c0-.6-.2-1.7-.8-1.8v2l.3 1 .4.6c.2 0 .2-.2.2-.4v-.6-1M53 150.7v-1l.2-1.3c0-.5 0-1.5-.3-2-.6.5-.6 4.4 0 4.3M54.4 141.5c-.7.4-.7 1.5-1 2.3 0 .6-.3 1.5 0 2 .3.7.5 0 .6-.3l.4-1.2c0-.5.3-1 .3-1.4 0-.5 0-1-.2-1.4M120.8 147.6l-1 1.8c-.3.5-.8 1-1 1.7 0 .6 0 1.2.4 1.6.4.5 1 .4 1.4 0 .5-.5.7-1.3 1-1.8l.5-1c.2-.2.4-.5.4-.8 0-.5 0-1-.3-1.5s-.8-.4-1.2 0M52.8 145.3l.3-1 .2-1c0-.2 0-.8-.2-1-.2 0-.3 0-.3.3v.5l-.3 1c0 .3-.3 2.5 0 2.4.4 0 .4-1 .4-1M96 182.6c-.7-.2-1.4 0-2 .2l-1 .5c-.4.2-.8.4-.8.6 0 .2.6.3 1 .3.5 0 1-.2 1.4-.4l1.4-.7c.4-.2.5-.5 0-.7M109.4 179.7c-.2-.3-.8 0-1 0l-1.2 1c-.4 0-.7.3-1 .5-.5.2-.7.3-.8.5v.3c.5.3 1.7-.5 2.2-.8.4-.2 2.2-1 1.8-1.5M64.8 173.8c0-.3-.2-.5-.4-.7l-1.2-1c-.3.7 0 1 .4 1.6 0 0 1 1 1 .7l.2-.3v-.2M94.6 184.2l-1 .3-1 .4c-.3 0 0 .2.4.2h1.2l1.2-.4c.3 0 .7-.2 1-.5-.2-.3-1.5-.2-1.8 0M96.4 180.7c0-.4-.7-.4-1.3-.3l-1 .2-1 .5c-.3.3-1 .5-1 1-.2.2.2.5.3.5.5.2 1.2.2 2-.2.6-.2 1-.5 1.4-.8.3 0 .8-.4.7-.8M57.8 134.6c0 .6.5.7 1 .3.6-1 1-2 1.7-3l.4-1.3c0-.5-.6-.8-1-.5-.5.3-.7 1-1 1.3-1.3 2.4-1.3 3-1.2 3M82 112.7c.4 0 1 0 1.3-.2.2 0 .3-.2.4-.3.3 0 .5-.2.7-.4l1-.7c.3 0 .7-.2.5-.6-1-.6-2.3 0-3 .5-.6.2-2.5 1.4-1 1.7M81 115.4c.5.4 1.3.4 1.8.3l.7-.4c.2 0 .4-.4.6-.5.6-.3 1-.6 1.3-1 .5-.3 1-.6.4-1-.3-.5-1.2-.3-1.5-.2-.5 0-1 .4-1.3.7-.5.3-1 .5-1.3 1-.3.2-1 .6-.6 1M86 116.3c0-.3-.4-.5-.6-.6-.5-.2-1.2 0-1.6 0L81 118l-.2.7c0 .4.2.6.5.8.5.3 1 0 1.6 0 .5-.2 2.3-2 2.8-2.5.2 0 .3-.5.2-.7M55 154.8v-.5l.3-2.2s0-.4-.2-.6c0-.2-.5-.7-.6-.2-.2.4-.2 1-.2 1.3 0 .5-.2 1 0 1.4 0 .3 0 .6.3 1 .2.4.5.2.5-.2M88.7 119l.8-.5.6-.6c.7-.6 2.5-1.7 1.4-2.5-.4-.3-1-.4-1.4-.4-.8.2-1 .6-1.7 1l-1.3 1.2c-.6.5-.5 1 0 1.5.3.5 1 .5 1.7.2M76 115.8c-.3.7.3 1 .8 1 .3 0 .7-.2 1-.5.3 0 .7-.4 1-.6l.5-.5c.4-.2 1-.6 1.2-1 .2-.2.3-.4.2-.6 0-.3-.4-.4-.7-.4-1 0-2 1-2.8 1.5-.3.3-1 .7-1 1M85.7 112.7s-.2-.3 0 0M85.8 117s.2 0 0 0M125.2 130.4c0 .7.6 1.6.7 1.7 0 .3 0 .4.2.3.2 0 .2-.3.3-.6v-.5-.4c0-.6-.4-1.2-.8-1.6l-.3-.3c-.3-.2-.3.2-.3.4 0 .4 0 .6.2 1M71.6 117l-.3.5c0 .3.2.5.5.5.4 0 1-.2 1.3-.5l1.4-1c.3-.5.8-.7 1.2-1 .3-.4.3-1-.2-1-.4-.2-1 0-1.2.3-.5.2-.8.6-1.2 1-.5.3-1 .6-1.3 1M81 111c-.4-.2-1 0-1.5 0l-1.2.8c-.3.2-2.2 1.3-1.5 1.8.4.2 1 0 1.3-.2l1.4-.7 1-.8c.4-.3.8-.6.7-1M55.8 162.4c.2 0 0-.6 0-.8v-1c-.2-.3-.5-1.2-1-1.4 0 .5 0 1 .2 1.6l.6 1.5h.2M86 185c.3 0 1.5-.2 1.6-.4 0-.4-1.6-.6-2-.5l-.7.2c-.3 0-.6 0-.8.3.2.2.4.3.7.3h1M111.7 179.5c.5-.5 1.5-1.2 1.4-1.4 0 0-.4 0-.6.2-.2 0-.4.3-.6.4l-1.2.8c-.4.3-1 .5-1 .8-.3.2-.5.4 0 .5 0 0 .4 0 .7-.2.2 0 1.3-1 1.4-1M99.8 108c-.3 0-.7.2-.5.4l.8.3c.3 0 .5 0 .7.2h1c0-.2.4-.2.5-.3l-.4-.3-.7-.2h-1.3M55.8 129.5c.2.2 1-1.6 1.2-2l.6-.8.4-1c0-.2-.6.6-1 1l-.7 1.5-.6 1v.3M63.7 119l.8-1c.2 0 .4-.3.6-.5.2 0 .7-.6.5-.7-.2-.2-.5 0-.6.2l-1.5 1.4c-.4.5-1 1-1.2 1.6.5 0 1-.8 1.4-1M74.8 110.5s-.6.4-.3.5c.3 0 .8-.2 1-.4.6-.3 1.2-.5 1.7-1 .2 0 1-.2 1-.5l-2 .8-.4.2-1 .5M67 115.2s-.6.4-.5.6c0 .3.5 0 .6-.2.3 0 .4-.2.6-.3l.3-.3.7-.7c.3-.2.5-.2.7-.5l.4-.3s.3 0 .2-.3h-.4c-.3.3-.5.5-.8.6l-1 .8-.7.6M123.2 124.4c-.3 0 0 0 0 0M109.4 111.5l-.6-.2c-.2 0-.5 0-.6.2 0 .4.8.8 1 1h.7s.5 0 .6-.2c0-.2-.3-.3-.5-.4 0-.2-.3-.4-.6-.5M98.5 108.6h-1c-.5 0-.8.2-1.2.3-.3 0-.7.2-.3.4.6.4 1.4.6 2 .4.2 0 .3 0 .5-.2 0 0 .3 0 .4-.2.2 0 .8 0 .4-.5l-1-.4M122 123.4c.3.4 1.3 1.6 1.4 1.2 0-.3 0-.7-.2-1l-1-1.3c-.4 0-.3.2-.3.4v.7M124 127.2c0 .2 0 .3.3.6 0 .2.2.5.5.5.4 0 .2-1 0-1.3v-.5l-.3-.4c-.2-.2-.5-.3-.7-.2-.2.2 0 1 0 1.4M60.5 170.2c.3-.4 0-1 0-1.3-.4-.7-.7-1-1.2-1.5-.3.3 0 1 .2 1.5l.5.6.5.6M89.3 114.6l1.2-1c.5-.3.8-.5.8-1l-.7-.5h-.8c-.3 0-.5 0-.8.2-.2 0-.3.2-.5.3l-1.4 1c-.3.2-.7.5-.5 1 0 .4.7.6 1 .6.7.2 1.4 0 1.8-.4M82 183.6h-1.6v.2l2 .5h.2c.3 0 .7-.6-.5-.7M87 108.3h1.3l1-.5.7-.2c.5-.2.2-.4 0-.4-1 0-1.6 0-2.4.3-.3 0-.8 0-1 .4-.3.2 0 .4.4.3M87 110c.4 0 1 0 1.4-.3l2-1c.5-.2-.3-.5-.6-.5h-1c-.4 0-.8.3-1.2.4l-.5.3s-.3 0-.5.2c-.4.5.2.7.5.8M69.7 114c.4.2.8-.2 1-.4.3 0 .7-.4 1-.5l1-.5s1-.6.7-.8H73s-.4 0-1.3.7l-1.6 1c0 .3-.2.5-.3.7M54.2 146.5c-.2.2-.4 1-.4 1l-.3 2c0 .4 0 .7.2 1 0 .2.4.2.5 0 .2 0 .3-1.3.5-2 0-.5.2-1 0-1.5 0-.4-.2-.6-.5-.5M104.2 157.4s0-.2.2-.2l-.2.2M112.8 148.3c-.2-.2-.5-.2-.7 0-.7 0-1 .7-1.5 1.3l-1.4 2c-.3.6-.5 1.3-.2 2 0 .2.2.5.5.7.3.2.7.2 1 .2.4 0 .7-.2 1-.6.2-.4.5-.8.8-1l.8-1.2c.2-.3.5-.6.6-1 .3-.6.4-1.2 0-1.8 0-.3-.3-.6-.6-.7M113 142.5c-.2-.3-.5-.7-1-.7h-1l-.7 1c-.5.6-1 1.3-1.3 2-.5.6-.8 1.2-.6 2 .2.6.8 1.2 1.4 1.3.7 0 1.3-.4 1.6-1 .4-.6 1-1.2 1.3-2 .3-.5.7-1 .6-1.7 0-.2 0-.6-.3-.8M111.2 135.5c-1-.3-1.3.5-1.8 1.2l-1.3 1.8c-.2.5-.3 1-.2 1.6.3 1.3 2 2 3 1 0-.4.3-.8.5-1l.7-1.2c.4-.7.8-1.2.5-2-.2-.7-.7-1.2-1.3-1.3" fill="#FF1343"/>
      <path d="M107.8 155.7c-.5-.6-1.3-.6-2-.2-.5.4-1 1-1.4 1.7l-.2.2s-1.3 1.6-1.4 2c-.2.4-.2 1 .3 1.5.4.2.6.4 1 .4h1l.7-.8 1-1c.7-1 2.3-2.7 1-4M106.6 161.4c-1 0-1.2.7-1.7 1.3l-1.6 1.8c-.5.5-.8 1-.6 1.7.2.7 1 1 1.6.8.6 0 1-.5 1.5-1l1.5-1.8c0-.2.2-.2.2-.2.4-.5.7-1.3.4-2-.2-.5-.8-.8-1.4-.6M124.2 147l-.7 1.8c-.2.5-.6 1-.7 1.5 0 .5 0 1 .2 1.5.3.5.8.4 1 0 .4-.5 1.4-2.7 1.4-3v-1.5c-.2-.3-.3-.5-.5-.5-.3 0-.6 0-.7.2M106 148.7c-.7 0-1.2 1-1.7 1.6l-1.6 2c-.3.8-.4 1.5 0 2 .3.7.8.8 1.4 1 .6 0 1-.2 1.2-.5l.8-1 1.7-2.2c.4-.6.5-1.3.2-2-.4-.7-1-1-2-1M121.5 141.7s-.4-.3 0 0M122.6 156.8c.2.7.7.5 1 .2l1-1.5c.2-.4.3-1 .6-1.4.2-.4.2-1 0-1.5 0-.6-.6-.5-1 0-.5.7-1 1.8-1.4 2.7-.2.5-.4 1-.2 1.6M122 162c.3.4.8 0 1-.3l1-1.6.4-.6c0-.3.3-.5.4-.7 0-.4.2-1 0-1.4-.3-.6-.8 0-1 .3l-.8 1.3-1 1.4c0 .4-.3 1.2 0 1.5M109 160c0 .2.5.5.7.5h1c.6-.4 1-1.2 1.5-1.8.8-1 2.2-2.4 1.3-3.8-.4-.7-1.2-.6-1.7-.4l-.7.8-.6 1-1.3 1.7c-.2.6-.4 1.4 0 2M112.6 160.4c-.7 0-1.2.4-1.6 1l-1.5 1.8c-.4.5-1 1-1 1.8 0 .7.6 1 1.2 1s1-.3 1.4-.8l1.6-2c.4-.4 1-1 1-1.6 0-.6-.3-1.2-1-1.2M120.8 161.5s.2-.3 0 0M121.8 158.5c-.8-1-2 1.3-2.4 1.8-.4.6-1.8 2.3-1 3 1 .8 2-1 2.3-1.7.6-.8 1.7-2.3 1-3M118 168c.3 0 .5 0 .7-.4l.5-.5 1-1.3c.3-.4 1.7-2.3.6-2.6-.5 0-1 .5-1 .8-.5.5-.8 1-1 1.4-.6.7-2.2 2.3-.8 2.8M104.5 171.7c.3 0 .5-.2.7-.4l.7-.7 1.3-1.4c.4-.4.7-1 .6-1.6-.3-.7-1-.8-1.6-.7-.3 0-.7 0-1 .4l-.8 1-1.4 1.3c-.2.3-.4.5-.5 1 0 .3 0 .5.2.8.3.4 1 .5 1.5.2M119.5 158.5c.6 0 1-.7 1.3-1.2l1-1.7c.3-.6.6-1 .5-1.8 0-.5-.3-1-.8-1-.6.3-1 1-1.3 1.5l-1 1.6c-.3.4-.5 1-.5 1.5s.3 1 .8 1M123 136.8c-.3.6-.6 1-.8 1.7l-.2.8v.6c.2.3.3.8.7 1 .7.5 1-.2 1.2-.7v-.6l.3-.6c.2-.4.4-1 .2-1.4l-.6-1.2h-.3c-.4-.4-.7 0-.8.4M113.8 163.5c0 .6 0 1.2.8 1.3.5 0 1-.4 1.4-.8.4-.5.8-1 1-1.6.4-.6 1-1 1-1.7.2-.5 0-1-.4-1.3-.6-.3-1.2.3-1.5.7-.4.8-.8 1.5-1.3 2l-.6 1s0 .3-.2.5M115 153.7h1l.7-1 1.2-2c.4-.6.6-1 .5-2-.2-.4-.6-1-1.2-1-.7 0-1 .6-1.4 1.2l-1.4 1.8c-.3.5-.5 1.2-.4 1.8.2.6.4.8 1 1M108 174.6c.3.2 1 0 1.4-.2 1-.7 1.7-1.7 2.6-2.5l.3-.6v-.7c-.3-.5-1-.4-1.5 0-1 .5-1.8 1.7-2.7 2.5-.2.3-.6 1 0 1.4M120.3 141.8l-.4.7c-.3.3-.5.8-.7 1.2-.2.5-.6 1-.6 1.5s0 1.2.4 1.5c.5.5 1 .5 1.5 0 .5-.4.6-1 1-1.6.4-1 1-2.4 0-3.3-.4-.3-1-.3-1.2 0M114.4 159.2c.3.5 1 .4 1.5 0 .2 0 .5-.5.7-.8l.6-1 1-1.7c.2-.5.3-1.2 0-1.7-.4-.5-1-.4-1.5 0-.5.3-1 1-1.2 1.6 0-.2-.3.4 0 0-.8 1-2 2.4-1.2 3.6M114 169.4c.3 0 .6-.2 1-.4 0-.2.3-.5.5-.7l1.2-1.6c.4-.5.8-1 .8-1.6 0-.5-.6-.7-1-.4-.7.2-1 .6-1.3 1l-1.2 1.6c-.4.4-.8 1-.8 1.4 0 .6.3.8.8.8M106.7 176.6c.3-.4.2-1-.4-1h-.7c-.2 0-.5 0-.7.3-.6.2-2.4 1.6-2.7 2 0 .2-.3.4-.2.6 0 .2.4.3.7.4.5 0 1 0 1.4-.4l2.7-2M102.3 178c.2-.2 0 0 0 0M91.7 180c-.2 0 .4 0 0 0M93.5 180.2c.2 0 2-1.3 2.4-1.7.4-.3.6-.6 0-1-.3-.3-1-.4-1.3-.3-.6 0-1 .4-1.4.7-.5.2-.8.4-1.2.8l-.5.6s0 .4.2.5c.6.2 1.2.4 1.8.2M102 181.3c.2.3.6.2 1 0 1-.5 2-1 3-2 0 0 .3-.2.2-.5 0-.2-.5 0-.7 0-1 0-1.7.5-2 .7-.5.3-1 .5-1.2.8-.2 0-.4.3-.5.5-.2.2-.2.3 0 .5M96 173.6c-.7-.3-1-.4-1.8-.3-.6.2-1 .6-1.4 1l-1.3 1c-.3.3-.4.5-.4.8 0 .5.2.6.4.8.5.3 1 .5 1.7.3.7 0 1-.5 1.6-1 .6-.4 2.4-1.5 1.3-2.4M101.6 177.7c.4-.5 0-1-.4-1-.5-.3-1.2-.2-1.6 0-.3.2-1 1-1.3 1-.3.4-.8.6-1 1H97c0 .2-.2.4 0 .7 0 .2.3.3.5.4H99c.6-.3 2.3-1.7 2.6-2M113 125l-.6.5-.5.7c-.3.4-.7 1-.7 1.4 0 .6.4 1.2.8 1.5.5.5 1.2.8 1.7.4.2 0 .4-.4.6-.7 0-.3.4-.6.5-1 .4-.4.5-.7.3-1.3 0-.3-.3-.8-.5-1-.4-.4-1.2-.6-1.6-.4M97 172.4c.6.4 1.3.3 2 .2.5-.2 1-1 1.4-1.3l1.5-1.6c.8-1.2-.7-2.3-2-1.8-.5 0-1 .7-1.4 1l-1.5 1.7c-.4.5-.5 1.3 0 1.7M101.7 172.8c-.4-.3-1.2-.3-1.7 0-.5 0-1 .6-1.4 1l-1.5 1.4s-.3.3-.2.7c0 .2.3.4.5.5.6.3 1.3.2 1.8 0 .7-.4 1-1 1.6-1.2.4-.3 1-.8 1.2-1.2.3-.2.3-1 0-1.2M99.6 181.5l.6-.4c.2 0 .4 0 .6-.2.2-.2.8-.4.6-1-.2-.3-1-.2-1.3 0h-.4l-.8.4-1 .7c-.4 0-.7.4-1 .8.7.7 2 .2 2.8-.3M85.2 179c.8-1-.6-1.6-1.4-1.7-.5 0-1 0-1.3.4-.4.3-1 .6-1.3 1-.6.8 1 1.2 1.5 1.3.5 0 1 0 1.3-.3l1.2-.7s-.3.2 0 0M97 170.7s0 .2 0 0M61.6 129c.8 1 2-1.2 2.2-1.7.4-.5 1-1 1.2-1.6.2-.3.6-1 .2-1.4-.3-.2-1 0-1 .3-.6.3-1 1-1.2 1.3 0 0-2 2.2-1.4 3M75.6 176c0-.2 0 0 0 0M64.4 161.4c0-.3.3-.5.4-.7l.4-.8c.5-1 .5-2-.4-2.8-.3-.4-.8-.6-1.2-.3-.2 0-.3.4-.4.6l-.4.7c-.3.6-.6 1.2-.5 1.7 0 .4.3 1.3.8 1.6.6.2 1 .3 1.4-.2M96 119c-.7.2-1 .7-1.5 1l-1.4 1.6c-.2.6.2 1 .6 1.5.3.3.5.5 1 .5h.8c.7-.3 2.4-2 2.8-2.7.3-.5 0-1-.5-1.4-.5-.4-1-.5-1.8-.4M97.7 119.4s-.2-.2 0 0M78 176c.2-.4.8-.8 1-1.2.3-.4 0-1-.4-1.2-.4-.3-1-.6-1.5-.6-.4 0-.8.3-1 .7-.4.3-1 .8-1 1.2 0 .3.3.6.6 1 .7.4 1.6.7 2.3 0M69.3 173.8c.3-.4.5-.6.4-1 0-.4-.4-.7-.7-1l-1-.5c-.4 0-.6.2-.8.5-.2.4-.4.7-.4 1 0 .5.4.7.7 1l1 .6c.5 0 .6-.3.8-.6M65 166.6h.7l.4-.7.5-1 .3-.6c0-.2 0-.7-.2-1 0-.2-.4-.7-.8-1-.4-.2-1-.4-1.2 0-.4.4-.5 1-.8 1.5-.2.3-.3.7 0 1.2 0 .4 1 1.3 1.2 1.4M112.3 165.7c-.7 0-1.3.5-1.7 1l-1.4 1.6c-.4.5-1 1-1 1.5 0 .8.5 1 1 1 .3 0 .6-.2.8-.3.2 0 .4-.4.6-.5.5-.5 1-1 1.3-1.5.3-.4.8-.8 1-1.4 0-.5 0-1-.7-1.3M78 111.3c.4 0 .8 0 1.2-.4l.6-.3.4-.3 1.2-.6c.5-.4 0-.6-.5-.5-.6 0-1 .2-1.5.4-.7.3-1.3.8-2 1.2-.2.3 0 .4.4.3M84.3 119.6c-.8 0-1.2.6-1.7 1.2l-.8.8-.8.7c-.3.4-.5 1-.2 1.5 0 .2.3.4.6.5.4.2.7.2 1 0 0 0 .7 0 .8-.2.2 0 .4-.2.5-.4l1.7-1.6c.4-.5 1-1 .7-1.7-.2-.6-1-.8-1.7-.7M82.5 124.4c-.2 0 0 0 0 0M84 108c-.3 0-2 .4-1.7.7.2.3 1 0 1.2 0 .4 0 .7-.2 1-.3l1.6-.7c.2-.5-1.7 0-2 .2" fill="#FF1343"/>
      <path d="M79.7 108.8c-.4 0-1 .3-1.2.5 0 0-.4.2-.3.3 0 .2.3 0 .4 0 .4 0 .8 0 1.2-.2l.4-.2h.3l.4-.4h.3c.2-.2.8-.3.7-.6-.8-.2-1.6.3-2.3.6M81.7 110c.6.7 1.8.3 2.4 0l1-.6c.3 0 .8-.2 1-.4.3-.5-.6-.5-.8-.5-.5 0-1 .2-1.4.4-.4 0-.8.2-1.2.4l-.4.3c-.2 0-.4 0-.5.3M84.8 124.4c-.7 0-1.2.4-1.7 1l-1.6 1.8-.7.8v1c.2.7 1 1 1.6 1 1.6 0 2.4-2 3.4-3 .5-.5.8-1 .6-1.6 0-.7-1-1-1.5-1M81.4 127.2c0-.2 0 0 0 0M97.2 107.5h-1-.5c0 .2-.4.2-.5.2-.4.3 1 .5 1 .5h1.3c.4 0 .8 0 1-.2-.3-.4-1-.4-1.3-.5M93.8 107.2h-1c-.4 0-.8 0-1 .2-.3 0-1 0-1 .3 0 .4 1.4.4 1.7.4.4 0 .7 0 1-.2l1-.2c0-.3-.5-.4-.7-.4M93.2 108.2c-.4 0-.8.2-1.2.4-.2 0-.7.2-.8.4 0 .2 0 .3.3.4.2 0 1 .3 1.3.2l1.5-.4c.3 0 .8-.2 1-.5-.4-.6-1.6-.6-2-.5M85 130c-1 0-1.3.5-2 1.2l-1.6 2c-.4.5-.8 1.2-.6 2 .2.5.8 1 1.5 1 .8.2 1.4-.3 2-.8l1.5-2c.5-.6 1-1.2 1-2-.3-.8-1-1.4-1.8-1.3M90.6 110c-.3-.2-.8-.3-1.2-.3-.5 0-1 .3-1.2.5l-1 .6c-.4.2-1 .5-.7 1l.7.2c.2 0 .8.2 1.3 0l.7-.5 1.2-.7c.3-.2.8-.5.2-.8M77 110.3c-.4 0-.6 0-.8.2l-1 .6-1 .8c-.3 0-1 .4-1 .7.4.8 4-1.8 4.3-2l-.6-.2M54 136.4c0 .3-.2.8 0 1 .6-.8.8-1.6 1.2-2.3l.5-1.2v-.7c0-.2 0-.2-.3 0-.6.5-1.4 3-1.5 3.4M56 129.8l-.6 1c-.3.7-.6 1.4-.7 2 0 .8.4 0 .5-.2l.8-1.4c.3-.7 1-2 .7-2 0-.2-.4.2-.6.6M56.3 131.6c0 .2 0 .4.4.3 0-.2.3-.4.4-.5l.8-1.5c.4-.7 1.4-2.3 1-2.5-.2-.2-.6.3-.8.6l-.7 1.3c-.4.7-1 1.4-1 2.3M57.4 127.8c0 .6.6-.2.7-.3.6-.8 1-1.6 1.7-2.4 0 0 .6-.7.4-1 0-.2-.6.3-.7.5-.6.7-1 1.5-1.5 2.3 0 .3-.4.7-.4 1M53.7 141.6c.3-.3.5-.8.6-1.2 0-.4.2-.8.4-1 .2-.6.3-1 .3-1.6 0-.4 0-1-.5-.6-.3.3-.3.8-.5 1.2l-.4 1.2c0 .4-.5 1.8 0 2M98.6 110c-.4 0-.6.2-1 .3l-.6.4-.4.3c-.3.3.3.7.7 1h1c.4 0 1 0 1.2-.3.2-.2.7-.3 1-.6.5-.6-1.5-1-2-1M52.7 140c0 .4-.2.7-.3 1v1.2c.4 0 .7-1.8.8-2 0-.4.2-.8.3-1V138c-.6.5-.6 1.3-.8 2M68.4 115h-.2c-.2.3-.4.4-.6.5l-1 .7-.8 1c-.3.2-1 .8-.7 1h.7c0-.2.2-.3.3-.4.2 0 2.3-2 2.4-2l.3-.6s0-.2-.3-.2M68.4 116.4c0 .3.6 0 1-.3.3 0 .7-.4 1-.6 1-.7 1.8-1 2-2-.8-.2-1.6.6-2 1-.7.6-2 1-2 2M63.8 121.2c.4.4 1.4-.8 2-1.5l1-1c.3-.3.8-.8.7-1.2-.3-.7-2 1.2-2.2 1.4-.5.5-1.8 1.8-1.5 2.2M63.4 119.6l-1 1-1 1c0 .3-.6.8-.5 1.2 0 .3.5 0 .6-.2l1-1.2c.6-.7 1.8-2 1.6-2.2 0-.2-.5.2-.8.4M87.5 177.3c.6 0 1-.7 1.5-1l.7-.6.6-.6c.6-1-1.2-1.6-2-1.5-.7.2-1 .6-1.5 1-.4.4-1 .7-1.2 1v.2c-.8 1 1 1.7 2 1.6M116 116.8c-.3-.2-.6-.3-.8 0l-.3.5c0 .6.7 1 1 1.2.2 0 .3.3.4.3h.4l.4-.7c.2 0-.7-.8-1.3-1.2M129 137.5v1.3l-.2 1c0 .3 0 .6.2 1 0 0 0 .6.3.6.4 0 .3-1.6.3-2 0-.2 0-1.8-.6-2M128 133.6c-.2 0 0 .7 0 1v1c0 .4.3 1.5.8 1.6v-2l-.7-1.6M127.4 131.2l-.3-1h-.2v1.3c.2.6.4 1.3 1 1.6v-.8l-.4-1M123.2 127.8l-.2.6v1.2c-.2.5.3 1.5.8 2 .7.3.8-1.3.8-1.7 0-1-.3-1.5-.6-1.8l-.3-.3c-.2-.2-.3-.3-.5-.2M126.4 135.2c0 .4.4 1.6 1 1.5.2-.4 0-.8.2-1.2v-1c0-.3-.4-2-1-1.7v1.4c-.2.3-.2.7-.2 1M124.7 132.2c-.3 0-.5.8-.5 1.4v1.2c0 .3.2 1 .5 1 0 .2.3.5.5.5s.3-.3.3-.4l.3-1c0-.5.2-1 0-1.3 0-.6-.3-1.8-1-1.5M127.5 138l-.2 1.4c0 .5 0 1.7.7 2 .4-.6.4-1.3.5-2v-1c0-.3-.2-1-.5-1.3-.5 0-.5.8-.5 1M129.8 141.7c-.3 0-.3.8-.3 1v1l-.2 1c0 .2 0 1 .3 1 .3.2.4-1.4.5-1.6v-1.3c0-.3 0-.8-.2-1M129 150.7c-.4 0-.4.5-.6 1 0 .3-.2.7-.4 1l-.4 1.4v1c.4.6.7-.3.8-.5 0-.5.3-.8.4-1.2.2-1 .6-1.7.3-2.6M128.8 146.2c-.2 0-.6 2-.8 2.4 0 .3-.3 2.2.3 2 .2 0 .3-.2.3-.4s.8-2.7.7-3.2c0-.3 0-1-.5-.8M128.3 142.2l-.3 1.3-.2 1.3.3 1.2c.6 0 .6-.3.7-.6 0-.4.2-.8.3-1 0-1 .3-2-.2-2.7-.4-.4-.4.2-.5.5M130.3 146.3c0-.6-.4-.3-.4 0l-.4 1.3v1.4c-.2.4-.5 1 0 1 .5-.2.4-1 .5-1.7.3-.6.4-1.3.3-2M129.2 154.2c.3-.3.4-.5.4-1l.3-1c0-.2.4-2.2 0-2-.2 0-.3.7-.3 1l-.2.6c0 .2 0 .3-.2.5 0 .3-.4 1.6 0 2M112.2 115c-.2.3-.7.6-.8 1 0 .2 0 .5.3.7.3.3 1 1 1.6 1l.6-.6.2-.3-.3-.5c-.4-.5-1-1-1.7-1M111.8 113.5c-.5-.2-1-.7-1.6-.5 0 0-.5.3-.5.5s.4.4.6.6c.3.4 1 1 1.5.7l.6-.5c0-.2-.5-.5-.6-.7M113.2 114.7c-.2.3.7.8 1 1 0 .2.4.4.7.4 0 0 .2 0 .4-.3-.5-.4-1-.8-1.5-1-.3-.3-.7-.5-.8 0M101 109.2s-.3 0-.4.2c-.2 0-.4 0-.3.3 0 .3.6.4 1 .5.2.2.5.2.8.2.4 0 .7 0 1-.2.2 0 .6 0 .6-.3 0-.5-1-.8-1.7-.8h-1M106.4 112s-.5 0-.6.3c-.2.5 1.2 1 1.5 1.2.7.3 1.6-.2 1.6-.5v-.2c-.2-.5-1.2-1-1.6-1h-1M106 110.2h-.6-1c0 .4.2.5.4.6l1 .5c.2 0 .4.2.7 0h.8c0-.5-1-1-1.2-1M103.2 110.7c-.6 0-1.4.4-2 .8-.4.4 1.2 1 2 1 .3.2.8 0 1.2-.2.2 0 .5-.3.6-.5 0-.3-.6-.6-.7-.7-.5 0-.7-.2-1-.3M119.2 119c0-.2-1-1-1.2-1-.3.2 0 1 0 1.2.5.4 1.3 1.4 1.5 1 0 0 .2-.4 0-.6l-.3-.6M120 120.7c-.3.2-.3.4-.3.7v.7c.3.6.7 1 1 1.4.7.3 1-.7.7-1-.3-.7-.7-1.3-1.4-1.7M118.8 123c-.3.8-.6 1.2-.3 2 0 .3.5.7.7.8.3.2.7.4 1 .4l.3-.6c0-.3 0-.5.2-.8 0-.6-.3-1-.6-1.4 0-.2-.2-.3-.4-.4-.3-.2-.7-.2-.8 0M121.8 124c-.3.2-.3.8-.4 1v1l.6.8c.3.3.8.6 1 .2 0-.6.2-1 0-1.6 0-.3-.7-1.5-1.2-1.3M117.2 119.4c-.2 0-.5.6-.5 1 0 .3 0 .5.3.8.3.4.7 1 1.3 1h.3c0-.4.3-.7.4-1 0-.4-.2-.7-.4-1-.3-.2-1-1-1.4-.8M116.2 116c-.3.4 0 .5.3.8l.5.4s.4.4.6.4c.2 0 0-.2 0-.4l-1.3-1.2M111.4 112.8c0 .3.7.6 1 .8l.5.3c.2 0 .3 0 .4-.2-.6-.4-1-.8-1.7-1h-.3M130.3 142.3v1.2c0 .6-.2 1.6.2 2v-.7-3c-.2 0-.2.4-.2.5M129.7 138.2v2.1c.2.2.2.4.2.6v.6h.2v-.8c0-1-.2-1.8-.4-2.7v.2M129 136c.2.4.2.8.2 1 0 .2 0 .5.3.6v-.2c0-1-.5-1.8-.5-1.5M128.7 155c-.4 0-.6.7-.7 1l-.6 1.3c0 .4-.3.8-.4 1.2 0 .3-.2 1.3.3.8.3-.3.4-.8.6-1.2l.3-1c.2-.7.6-1.4.4-2M125.3 126.7v1l.3.7s.7 1.4.8 1v-1l-.2-.3-.8-1.2M106.5 110c.4.4 1 .6 1.3.8l.5.2h.4l-2-1h-.2M53 138l.8-2.2.4-1c0-.5 0-.8-.3-.5-.4.7-.5 1.4-.8 2 0 .6-.2 1-.3 1.6 0 .2 0 .4 0 0M121.4 121.6c.3.2.2-.2 0-.5l-1.2-1.3c-.4.3 1 1.8 1.2 2M71.3 179.7c0-.2-.8-.8-1-1-.2 0-.4 0-.6-.2h-.4l2 1.2M66 175.5c-.2 0-.8-.8-1-.7v.2l1.6 1.5c.2-.4-.4-.8-.6-1M59.3 164.5c.2 0 .2-.3.3-.6 0-.4 0-.7.2-1 0-.5 0-1-.3-1.2l-.6-1c-1-.5-1 1.2-1 1.7 0 .7.3 1.5 1 2h.3M62 171.7c0-.2-.7-1-1-1l1.5 2c0-.5-.3-.8-.5-1M74.6 181c-.3-.5-1-.7-1.3-1l-.6-.2s-.6 0-.6.3v.3l1.7.8c.3.2.6 0 1 0M57 164.3c0-.4-.4-1.2-1-1.4l.3.6 1 2-.2-1.3M59 166c0-.2 0-.4-.3-.6 0-.3-.7-1.7-1-1.3-.2.2 0 1 0 1 0 .4 0 .6.2 1 0 .3.4 1 1 1v-1M59 164.4c-.3-.2-.2 0 0 0M79.3 183c-.3 0-.6 0-1-.3 0 0-.8-.2-1.2 0l2.4.7c.3 0 .2 0 0-.3M120.2 172.2c-.2 0-.4.3-.4.4-.2 0-.2.2-.4.4l-.7.7-1 1s-.6.5-.5.8l1-.6.8-1 1-1s.6-.8.2-.8M129.7 154.5v-.4c-.3 0-.3.3-.3.4l-.2.8c0 .3-.2.5-.3.8l-.3 1c-.2.3-.5 1-.3 1 .3.2.5-.7.7-1.2.2-.3.7-2 .7-2.3M115.5 177.2l.5-.4s.2 0 .2-.2c0-.4-.6 0-.7 0L114 178l-.8.5c-.2.2-.5.4-.5.6.2.2.4 0 .6 0l2.2-1.8M108.5 181.5c0-.4-2 .5-2 .6l-.7.4c-.4 0-.6.3-.8.4l-.3.3v.2l2.7-1c0-.2 1-.6 1-.7M61.3 121l-.7.7-.7 1c-.4.3-.6.5-.8 1-.3.2-.5.5-.5 1 .3 0 .7-.7 1-1 0-.3.4-.6.7-1l1-1.2c0-.2.3-.6 0-.5M105 116.4c-.4.3-.7.5-1 1l-.4.4.3.6c.2.4.6.6 1 .8h.8c.3 0 .4 0 .6-.2l1.2-1c.7-1-.7-1.8-1.3-2-.6 0-1 0-1.4.4M117.2 126c-.4 0-.5.6-.8 1l-.4 1.3c0 .4.3 1 .6 1.3.3.3.7.6 1 .5.6 0 .7-.4 1-.8 0-.5.5-1 .5-1.5s-.2-1-.5-1.4c-.3-.3-1-.6-1.3-.4M99.5 112.3c-.5 0-.7.3-1 .6-.5.2-.7.4-1 .8-.3.3.3.8 1 1 .2.2.6.3 1 .3.5 0 1-.4 1.5-.7.2-.2.7-.5.7-.8 0-1-1.6-1.3-2.2-1.2M102.4 115.8c-.6-.3-1-.5-1.7-.5-.5 0-.8.5-1.2.8l-1 1c-.4.4-.3 1 0 1.2.5.4 1 .6 1.5.7l1-.3 1.7-1.6c.3-.3 0-1-.3-1.2M96.7 115.3c-.5-.3-1.3-.4-1.8 0-.6 0-2.3 1.6-2.4 1.7-.3.4 0 1 .3 1.4.3.4 1 .4 1.5.4.6 0 2.8-2 3-2.3 0-.6-.4-1-.8-1.2M115 118.4c-.3 0-.6-.4-1-.4-.2 0-.4.4-.6.6-.2.3-.5.6-.4 1l.8 1c.2.2.7.5 1 .5.4 0 .5-.3.7-.6.3-.4.5-.6.3-1 0-.4-.6-.8-1-1M111.4 120.7c-.4.3-.8 1-1 1.3l-.4.5v.7c.3.4.8.7 1.2 1 1 .7 1.6-.4 2.2-1 .7-1 0-2-.7-2.4-.4-.2-1-.4-1.3 0M116.7 122c-.3-.2-.7-.6-1-.5-.5.2-.7 1-1 1.2-.2.5-.3 1 0 1.6.2.3.6.7 1 .8.2.2.7.3 1 .2.2 0 .3-.5.5-.8 0-.2 0-.5.2-.7v-.5c0-.5-.3-.8-.7-1.2M110 117c-.4 0-.5.4-.8.7-.3.3-.7.6-.5 1 .2.8 1 1.2 1.8 1.4.3.2.5 0 .7 0l.4-.7c.3-.3.6-.6.5-1 0-.7-1.2-1.5-2-1.4M110 114.6c-.6-.4-1.2-1-2-.4-.2.2-.7.4-.8.7 0 .3.3.6.5.8.5.4 1.4 1 2 .4.2 0 .7-.5.8-.8 0-.3-.3-.6-.5-.8M104 113l-.5.3c-.2 0-.4.3-.5.4-.3.3-.6.4-.5.8.2.4.7.7 1 .8.2 0 .4.3.6.4h.7v-.2c.4 0 .7-.4 1-.6.4-.3.8-.7.5-1.2-.4-.5-1.5-1-2-.8M69.7 120.7c-.2.2 0 0 0 0M69 117l-1 1.2c-.3.2-1 .8-.7 1.2 0 .3.8 0 1 0 .3-.2.4-.4.5-.6l.7-.6 1.2-1.2c.3-.2.6-.5.7-1 0 .2 0 .2 0 0-1-.5-1.8.5-2.3 1M80 144c-1.7-1.2-2.8.8-3.6 2 0-.2-.8 1-1 1.2l-.2 1c0 .4 0 .7.2 1 0 .4.4.5.7.8.7.4 1.4.3 2 0 .6-.5 1-1.4 1.5-2 .4-.7 1-1.3 1.3-2 .2-1-.2-1.6-1-2M76.5 112v0c-.3-.3-3 1.6-3.5 1.8-.2.2-1 .8-.6 1 .2.4 1 0 1.2-.2L76 113c.2-.2.7-.6.5-1M66.8 121.5c-.3.3-.8 1-.6 1.5 0 .5.8.3 1 0 .6-.2 1-.6 1.2-1l1.2-1.2c0-.2 0-.2 0 0l1-1.3c0-.6-.7-.6-1-.5-1.2.5-2 1.7-2.8 2.5M64.2 121.8l-1 1.4c-.3.2-.4.4-.5.7l-.2.5c0 .5.6.3 1 0 .4-.2.7-.7 1-1 .7-1 1.7-1.6 1.8-2.8-.6-.7-1.7.7-2 1M80.3 150.6c-.7-.2-1.3-.2-2 .2-.6.5-1 1.5-1.5 2-.3.7-1 1.3-1 2 0 .6.4 1.2 1 1.6.2.3.4.4 1 .4.3 0 .6 0 1-.4l1.5-2 .6-1c.2-.3.4-.5.4-1 0-.7-.4-1.6-1-1.8M88.5 124c.7-.2 1.2-.6 1.7-1 .5-.5 1-1 1.3-1.5.3-.3.6-.5.7-1v-.7c-.5-.7-1.3-.8-2-.7-.7.2-1 .7-1.5 1.2l-1.7 1.5c-.4.4-.3 1 0 1.4.2.6 1 1 1.5 1M94.5 109.8h-1l-1 .6c-.5.2-.8.4-1 .8.4.4.6.6 1 .6.6 0 1 0 1.5-.2.2 0 .4 0 .6-.2l.5-.4c.3 0 1-.4.8-.7-.2-.4-1-.5-1.3-.5M84 137l-1.5 1.8c-.4.5-1 1-1.2 1.7-.6 1 .2 2.2 1.3 2.5 1.4.4 2.3-1.2 3-2.2 0 0 1.3-1.7 1.3-2 0-.4.2-1 0-1.6-.7-1-2.2-1.2-3-.3M95 112c-.7 0-1 .2-1.5.5l-1.2 1c-.4 0-.4.7 0 1 .4.3.8.4 1 .4.7 0 .8-.2 1.3-.5.3 0 .6-.3 1-.5l.4-.4c.4-.3.8-.7.4-1-.3-.5-1-.6-1.4-.6M127 157.4c0-.3.3-1 0-1.3-.5-.4-1.2 1.8-1.4 2-.4.8-1.2 2-.6 2.8.4-.2.6-.4.7-.8l.4-.6c.3-.3.3-.5.4-.7.2-.4.5-.8.6-1.3M107.5 172.4c0-.5-.5-.8-1-.8s-1.2.3-1.5.6l-1.5 1.4-.6.7c-.3.2-.6.5-.6.7 0 .6.6.8 1 1 .6 0 1-.4 1.5-.8l1.4-1.3.6-1c.2 0 .4-.3.5-.6M116.5 169.2c-.3-.5-.7-.2-1 0-.5.2-.8.7-1.2 1l-1.3 1.4c-.4.4-.7.8-.6 1.4.7 1 2-.6 2.5-1l1-1.4c.3-.4 1-1 .5-1.4M111.6 176.4c.4.2 1-.2 1-.4.5-.2.8-.5 1-.8l1.3-1c.2-.4.7-1 .5-1.4-1.2-.2-2 1-2.7 1.6-.3.4-2 1.7-1.2 2M116.8 171.7c.2 0 .4 0 .5-.2.5-.2.8-.6 1-1l1.2-1.4c.3-.3.7-.7.7-1.2 0-.3 0-.4-.4-.4-.2 0-.3 0-.5.2-.4.3-.8.8-1 1.2-.7.8-1.6 1.6-2 2.6.2.2.2.3.5.3M120 170c.4-.2.7-.3 1-.7l1-1.2c.2-.3 1.5-1.7 1-2-.4-.5-1 .3-1 .5l-1 1.2-1 1.2s0 .4-.2.6c0 .3 0 .6.3.5M106.5 138.5c-.3.5 0 0 0 0M91.8 173c.3.2.5.2.8.2.7-.2 1.2-.7 1.7-1.2l1.4-1.4c1.2-1.2-.4-2.4-1.7-2.2-.7.2-1 .6-1.5 1.2L91 171c-.2.3-.4.5-.4.8 0 .5 0 .7.5 1l.8.3M87 180.3h1.5c.5-.4 2.6-1.5 2.4-2-.3-.6-1-.8-1.4-.8-.5 0-1 0-1.4.2-.2 0-2 1.4-2 1.8 0 .4.6.6 1 .8M97.5 155.8c.6 0 1.2-.2 1.6-.6.6-.5 1-1.3 1.5-2 .4-.4 1-.8 1-1.4.3-.6.4-1.3 0-1.8-.3-.4-.8-.8-1.4-.8-.4 0-1 0-1.2.4l-1.4 1.8-1.5 2c-.3.5-.2 1.3 0 1.7.5.5 1 .8 1.5.8M103 141.7c.8.2 1.4-.2 2-1l1.8-2.6c.3-.3.3-1 .2-1.2-.3-.6-.7-1-1.4-1.3-.8-.2-1.5 0-2 .8l-1.4 2c-.4.6-.8 1-.7 2 .2.6.6 1.3 1.4 1.4M103.3 148.5c1.8.4 2.5-1.5 3.3-2.6.5-.7 1-1.4 1-2.2 0-.7-.4-1.5-1-1.7-.8-.2-1.5 0-2 .6-.3.3-2 3-2.2 3-.3.4-.3.7-.3 1 0 1 .6 1.7 1.3 2M124 161.7h-.3c-.8.3-1 1-1.4 1.7l-1 1.6-.3.6v.6c.3.6 1-.2 1-.4l1-1.4c.6-.7 1.5-2.4 1-2.7M108.2 177.7c.6-.2 1-.6 1.5-1 0-.2 1-.8 1-1 .5-.4 1-1 .8-1.2-.5-.4-1-.3-1.5 0-.2 0-1.8 1.5-2.2 1.8-.2.3-.8.7-.8 1 0 .8 1 .5 1.2.4M125.6 162.6l.6-1.2v-.4c.2-.3 0-.4 0-.7-.3 0-1 1.2-1.4 1.8l-.7 1.5c0 .2 0 .4-.2.6v.7c.5.6 1.6-2 1.8-2M126 136.7c-.4 0-.5.8-.6 1 0 .5-.2 1-.3 1.3v1.4c.2.3.5.8 1 .8.3 0 .5-.7.5-1 .3-1 .6-2 0-3 0-.2-.2-.8-.6-.5M122 131.4c-.2 0-.3.4-.3.6l-.3.6c-.2.5-.4 1-.3 1.6.2.5.4 1 .8 1.3l.5.3h.3c.4-.4.5-1 .7-1.5.3-1 .3-1.8-.3-2.5-.2-.3-.8-1-1-.4M124 141.6s-.2 0-.3.3c0 .3-1 2-1 2.6-.2.7-.3 1.2 0 1.7 0 .2.3.3.6.4.2 0 .6 0 .7-.2.2-.2 1-2.6 1.2-3 0-.4 0-1-.3-1.5-.3-.4-.7-.7-1-.4M118.3 131l-.4.8-.7 1.2c-.4.8.2 2.3 1.2 2.5.6 0 .8-.2 1-.7l.7-1.5c.2-.6.2-1 0-1.7-.3-.5-.5-.7-1.2-1-.3 0-.5.2-.7.3M120.7 126.8l-.2.2-.4.8-.2 1v.3c0 .4.2.7.4 1l.4.5.6.3c.3 0 .6-.5.7-.7v-.6c.2-.2.2-.4.2-.7 0-.8-.6-2-1.5-2M127.4 151.4c-.6-.4-1.2 1.5-1.3 1.8-.2 1-1 2-.4 3 .5.2 1-.4 1-.8l.3-.7c0-.2 0-.5.2-.7 0-.4.4-1 .4-1.3 0-.3 0-1-.2-1.3M62.8 122.2c-.3-.2-.7.3-1 .4l-.8 1.2-1 1.4-.3.6c0 .2-.2.5 0 .7.2 0 .3 0 .4-.2.3 0 .5-.3.6-.4l1-1.4 1-1.4c0-.2.5-.7.2-1M127.4 146.5c-.5-.4-1.2 2-1.3 2.2v.6c-.3.4-.3.6-.3 1s0 .7.4 1c.6.2.8-.4 1-.8 0-.2 0-.5.2-.7l.2-.6.2-.7.2-.8c0-.3 0-1-.4-1.2M74.5 178.4c.2 0 .5-.5.8-.7.3-.3.3-.5 0-.8-.2-.5-.6-.7-1-1-.3 0-.8-.2-1 0l-1 .8c-.2.3-.2.5 0 .7.6.4 1.4 1.2 2.2 1M89.8 185.2c.4 0 1 0 1.4-.2 0 0 .7-.2.8-.4 0-.3-1.4-.3-1.6-.3l-1.2.3c-.3 0-.7 0-1 .3.4.3 1 .2 1.6.2M97 167.5c.2.2.7.3 1 .3.3 0 .6 0 1-.2.6-.3 1-1 1.5-1.5 1-1 2.6-2.3 1.2-3.5-.6-.5-1.3-.4-2 0-.3 0-.4.3-.6.5l-.8 1c-.7.8-2.6 2.3-1.2 3.5M89.2 182.5c.2 0 2-1 2-1.2.3-.4-.4-.6-.7-.7-.3-.2-.8-.2-1.2 0-.4 0-1 .3-1.4.5l-.6.5c-.2 0-.3.2-.5.3-.4.5 0 .6.2.8.7.4 1.3.3 2 0M89.8 184l1.2-.3c.2 0 .8-.2.6-.6-.3-.4-1.7-.3-2.2-.2l-1 .5c-.4.2-1 .5-.7.7 1 .3 1.4.4 2 0M97 167.5c-.3-.3.2.2 0 0M96.8 161.8c.6.4 1.3.4 1.8.2.8-.3 1.2-1 1.7-1.7l1-1.2.8-1c.3-.7 0-1.5-.7-2-.4 0-.6-.2-1 0h-.7c-.4.2-.6.5-.8.8l-1 1c-.2.5-.5.8-.8 1.2l-.7 1c-.2.5 0 1.3.5 1.8M80.4 181.5l.5-.3s.3 0 .4-.2c0-.3-.2-.7-.4-1-.6-.3-1.5-.5-2.2 0-.3 0-.7.4-1 .6-.5.4 1.2 1 1.3 1 .6.2 1 0 1.4 0M81 183.3c.3 0 1.8-.3 1.5-.6-.2-.3-.5-.5-.8-.6h-1c-.4 0-1.6.2-1.6.5 0 .4 1.7.7 2 .8M83.7 183.6c.3.2.8.3 1.2.3l1.8-.6c.6-.3-1-1-1.3-1-.8 0-1.5.5-2.2.8 0 0 .3-.2 0 0s0 .3.4.4M84 182.3h.3c.2 0 1.4-.7 1.7-1 .3-.2.2-.3-.2-.6s-.8-.4-1-.4c-.4 0-.8 0-1.3.3-.6.2-1.8.6-1 1.3l1.5.3M111 178.8c.5 0 .8-.4 1-.7.4 0 .8-.3 1-.6.4-.3.8-.6 1-1 0 0 0 .2 0 0 .4-.4.4-.8-.2-.6-.5 0-.8.4-1.2.7l-1 1c-.3.2-.8.4-1 .7-.3.4 0 .7.5.6M122 170.7l.7-1 .7-1c0-.2.6-.7.6-1 0-.5-.6.3-.7.4-.2.5-.5.8-.8 1.2-.5.6-1 1.3-1.3 2l.8-.5M118.6 173c.3.2 1.4-1 2-1.6 0-.3 1.5-1.7 1-2-.3-.4-1.5 1.3-1.7 1.6l-1 1.2c-.2.2-.7.6-.4 1M115 176.8c.2 0 1-1 1.2-1l.6-.5c.2-.2 1-1 .8-1-.2-.7-1.7 1-2 1l-.8 1c-.3.2-.6.5-.8 1 .3.2.7-.3 1-.5M119 171.4c0-.6-.5-.3-.8 0-.4 0-.6.5-1 .8l-1 1c0 .2-.4.5-.6.7-.2 0-.2.4-.4.6.3.3.7.2 1 0l1-1 1-1c.3-.4.7-.8.8-1.2M125.4 165.7c.3-.3.5-.7.6-1l1-2c-.4 0-.5.4-.7.7l-.6 1-1 2c.3.2.6-.5.7-.7M125 165.3c0-.3.4-.7.3-1-.2-.3-.7.4-.8.5l-.7 1.2c-.5.6-1.2 1.4-1.2 2.2.4.2.7-.4 1-.7l1.4-2.2M101.7 184c.4 0 .7-.2 1-.3l1-.4 1-.5c0-.3-.8-.2-1 0-.3 0-.7 0-1 .3l-1 .6c-.3 0-.8.2-1 .5.3.3.7 0 1 0M100.7 182.6c0-.3 0-.7-.3-.7h-.5c-.5 0-1 .2-1.3.3l-1 .6c-.3 0-.8.2-1 .5.2.5 1 .3 1.4.2.5 0 .8-.2 1-.3l1-.5.7-.4M98.8 184.5c.6-.2 1.7-.5 1.8-.8 0-.6-1.5 0-2 0-.3.3-.7.4-1 .5l-.6.3s-.3 0-.3.2c.5.4 1.6 0 2-.2M105.3 181.4c.4-.6-.5-.5-.8-.4l-1.3.6c-.7.4-1.5.7-2 1.3.3.4 2-.3 2.3-.5l1-.5.8-.6M76.7 182.2l.8.2.6-.2c.6-.4-.7-1-1-1-.5-.3-1 0-1.7.2.4.4 1 .7 1.4.8M110.4 177.3c-.3-.2-1 0-1.2.3l-1 .6c-.4.3-2.3 1.3-2 2 .6.2 1 0 1.4-.3l1-.8c.2-.2 2.5-1.5 1.8-2M60 135c-.3-.3-1 0-1 .3l-1 1.6-.6 1.5c0 .4-.2 1.3.2 1.6.4.3 1 0 1-.4l1.5-3c.3-.5.3-1.3 0-1.6M56 159.5c0-.4 0-.8.2-1.3v-1c0-.3-.5-2-1-1.5-.2 0-.2.7-.2 1v1c0 .5.4 2 1 1.8M55 139.6c0 .5 0 1 .3 1.3l.5-.5.4-.6.6-1.6.5-1.4c0-.2 0-1-.4-1-.6 0-.8.7-1 1l-.5 1.3-.5 1.3M55 145.3c0 .4.5.8.8.3l.2-.8.3-.6.5-1.2c0-.5.3-1 0-1.5 0-.5-.3-1-.8-.4v.2c-.5.7-.7 1.7-1 2.5-.2.5-.2 1.2 0 1.6M57 163.3c.4.5.3 0 .4-.4v-1c0-.8-.4-1.6-1-2-.3.4-.3 1.2-.2 1.7 0 .5.3 1.2.7 1.6M57.8 160.3c.4 0 .8-2 .7-2.4 0-.5 0-1-.3-1.3-.3-.4-.7-.7-1-.4l-.3 1c-.2.5-.4 1-.4 1.5 0 .4.6 1.7 1.2 1.5M56 146l-.2.8c0 .2-.6 1.6-.6 2v1.3c0 .4.4 1 .8.8.2 0 .3-.4.4-.7 0-.2.6-1.6.6-2v-1.5c-.2-.4-.7-.8-1-.4 0 0 .2 0 0 0M58 145.4c.6 0 1-1.6 1.2-1.8 0-.3.6-1 .7-1.4v-.7-1c-.2-.2-1-.4-1.3 0-.2 0-.3.4-.4.7l-.7 1.5c-.3.5-.5 1-.4 1.6 0 .5.3 1.2.8 1M56.4 155.6c.4.3.5 0 .6-.4l.4-1.4c.2-.5.3-1 .2-1.6 0-.5-.5-1-.8-1-.3.2-.6.4-.7 1 0 .3 0 .7-.2 1 0 .8 0 2 .6 2.4M59.4 156c.3 0 .5-.5.6-1 0-.3.5-1.3.6-1.5.4-1.2 0-2.8-1.2-2.4-.3.2-.3.4-.4.6l-.3.6-.5 1.4c0 .2-.3 1.2 0 1.8.3.3.8.8 1.2.6M58.7 130.4c.6.2.8-.2 1-.6l1-1.4.8-1.3c0-.2.5-.8 0-1-.3-.4-.8.2-1 .5-.4.4-.6 1-1 1.3-.2.6-1.3 1.8-.8 2.6M59 135.3c0-.3 0 .2 0 0M58.8 150.6l.4-1 .3-.7.6-1.4c0-.5.2-1 0-1.5-.3-.3-1-.7-1.3-.2l-.7 1.6-.5 1.5c0 .3 0 1 .3 1.4.2.3.7.6 1 .2M57.6 131.5c-.5 0-1 1.4-1.4 2.2l-.4.7c0 .2 0 .4-.2.7 0 .3-.3 1.2 0 1.2.5 0 1-.8 1-1l1-2c0-.2.4-.7.4-1 0-.3 0-1-.4-.7M128 159c-.4.2-.7.6-.8 1l-.7 1.3c0 .2-1 2-.4 2 .4 0 2-3.6 2-4.4M74.5 180.3c.3 0 .6.3 1 .3h.8c.2-.2.6-.3.6-.6 0-.2-.4-.6-.5-.7l-1-.4c-.8-.3-1.6.3-1.6.5 0 .3.2.5.5.8M71.5 179.2l.7.3c.3 0 1-.3.8-.6-.3-.6-.8-.8-1.3-1.2-.5-.2-1-.2-1.2.2-.4.5.6 1 1 1.2M70.8 177c.3-.2.6-.4.5-.7 0-.6-.8-1.2-1.3-1.3-.2 0-.5-.2-.7 0-.4 0-.5.3-.7.6v.4c.2.6.8 1 1.5 1 .4.3.5.2.8 0M59.7 165.2l-.2.7v.8c0 .7.5 1 1 1.3.2.3.5.2.6 0l.2-.4v-.8c0-.5-.5-1.2-1-1.6 0 0-.4-.2-.5 0M62.4 171.5c.3.2.3.2.5-.2v-.7c0-.5-.6-1-1-1.3 0-.2-.5-.6-.7-.3v1c0 .3.5 1 1 1.5M63.7 169.7l.3-.6c0-.2.4-.7.4-1 0-.7-.7-1.6-1.4-1.8-.8-.3-1 1.3-1 1.7 0 .6.5 1.2 1.2 1.5l.5.2M69.2 178s.2 0 .3-.3v-.3c-.3 0-.4-.3-.7-.5-.2-.3-.8-.8-1.2-.7-1 .6 1.2 1.6 1.6 1.8M66.4 175.4c.2.2.5.5.8.5l.4-.6c.4-.6-.4-1-.7-1.4-.4-.2-.7-.5-1-.5-.3 0-.3.3-.4.6-.2.6.4 1 .8 1.4M65.5 173l.5-1c0-.6-.7-1.4-1-1.7-.5-.2-.8-.3-1 0-.2.3-.3.6-.3 1 0 .5.6 1 1 1.5.2.2.6.4.8 0M103.2 109.2c.2.2.7.4 1 .4.4.2 1 .3 1.6 0-.7 0-1.4-.4-2-.6-.2 0-1 0-.6.2M126.7 141.6c-.4 0-.5.5-.6.8 0 .5 0 .8-.3 1.3 0 .5-.2 1 0 1.4 0 .4 0 1 .3 1 .4.4.6 0 .7-.4l.4-1.3c.3-.5.4-1 .4-1.5 0-.4-.2-1.2-.7-1.2" fill="#FF1343"/>
    </g>
    <g>
      <path d="M171.4 95c25.4 7.7 37.6 35 29.8 57.3-7.8 22.5-30.2 34-54.5 27C123.2 173 107 146 115 122.8c7.6-22.5 32.5-35.2 56.4-27.8" fill="#000327"/>
      <path d="M168.4 144.5c-2-.5-3-1.2-3.8-2.4-1.7-2.4-.4-5.7 2.7-6.5.7-.2 1.5-.2 2.3 0l4.4.6c3.6.5 5.3 4.4 3.6 7.3-1 1.7-3 2.6-5.2 2l-4-.8M158 148.5l3 1c1 .4 2 1 2.6 2.3 1 2 0 4.4-2.2 5.2-1.2.4-2.4.4-3.6 0-2-.8-4-1.7-6-2.8-1-.7-2-1.7-2.3-3-.5-1.5.2-3 2-3.6 1-.4 2.4-.4 3.7 0 1 .2 2 .6 2.8 1M158 127.4c-1-.4-2-1-2.5-1.6-1.2-1.3-1.2-3 .2-4.3 1-1 2.2-1.4 3.6-1.5h5.2c1.6 0 3 .5 4 1.8 2 2.4.7 5.6-2.4 6.2h-1.3c-1.8 0-3.6-.2-5.4-.4-.5 0-1 0-1.4-.2M182.4 159c-.8 1.8-2.2 3-4.3 3.6-.5 0-1 .2-1.6 0-1.4-.3-3-.5-4.3-1-2-.4-2.8-2-2.7-3.7.2-2 2-4 4-4.4 1-.3 2-.3 2.8 0l4 .7c1.5.3 2.5 1.2 2.7 2.6 0 .5 0 1.3-.3 2M179 129.5c-1.8-.8-3-2-3.4-4-.2-1-.2-2 .3-3 .6-1.2 2-2 3.4-1.8l4.4.6c1 .2 1.7.6 2.3 1.2 1.6 1.5 2.2 3.2 2 5.2-.2.8-.6 1.4-1 2-.7.5-1.5.8-2.4.7l-5-.7-.6-.2M149.5 139.6l-2.7-.8c-1-.4-2-1-2.8-2-.6-.7-1-1.4-.7-2.2 0-.8.6-1.3 1.2-1.7 1.2-.8 2.6-1 4-.7l5 .7c1.5.2 2.8.8 3.7 2 1.4 2 .6 4.5-1.8 5.3-1 .3-2 .3-3 0l-3-.7M193.7 145.2c-.4 1-1 1.8-1.6 2.4-.6.6-1.4 1-2.3.8l-3.2-.4c-1-.2-2-.7-2.4-1.6-.6-1-.8-2.4-.6-3.7.2-1.2.7-2.4 1.7-3.3 1-.8 2-1.2 3-1l3.4.7c1 .2 1.5.8 2 1.5.6 1.2.7 2.4.5 3.7 0 .4-.3.8-.3 1M161.2 164.8l2.5 1c.6 0 1.2.4 1.7.8 1.3 1 1.3 2.8 0 4-1.4 1-3 1.4-5 1-.6 0-1.2 0-1.8-.4l-4-1.7c-.8-.4-1.5-1-2-2-.7-1.2-.4-2.5 1-3.3 1-.7 2.4-.8 3.7-.7 1 0 2 .5 2.8.8.5.2 1 .3 1.2.5M166.5 113.6c-1-.3-1.7-.8-2.3-1.4-.5-.5-.8-1-1-1.6-.3-1 0-1.8.8-2.5.6-.4 1.3-.8 2-1 2 0 3.8-.2 5.7 0 2 0 3.7 1.2 4.7 3l.4 1.3c0 1-.4 1.7-1.3 2.2-.6.4-1.2.5-2 .5h-5c-.7 0-1.4-.3-2-.4M144 162.4c-1-.3-1.8-.7-2.4-1.3l-4-3.2c-1-1-1.7-2-2-3.4-.2-.4-.2-.8-.2-1.3 0-.4.5-.7 1-.8h1.3c1.2 0 2.2.7 3.2 1.4l4.7 3.3c1 .5 1.5 1.3 2 2.2.2.5.3 1 .3 1.6 0 .7-.5 1.2-1 1.5-.8.4-1.6.4-2.4.3l-.7-.2M145.4 116.2c-2-.6-2.4-1.8-1.4-3 .7-1 1.6-1.6 2.6-2 2-.8 4-1.4 6-1.8 1.3-.3 2.5-.2 3.6.5 1.5.7 1.8 2.3.6 3.6-.7.8-1.6 1.3-2.7 1.5-.7.3-1.5.4-2.3.5l-3.7.7c-1 .2-2 0-2.6 0M135.6 139.2l1.6.7 4 1.8c.8.5 1.5 1 2 2 .5.5.8 1.2.8 2 0 1-.6 1.6-1.6 1.8-.7.2-1.4.2-2 0l-1.8-.8-4.3-3c-1-.8-1.8-1.8-2.4-3-.2-.2-.3-.6-.3-1 0-.5.2-1 .8-1 .6-.2 1.2 0 1.8 0 .3 0 .6 0 1 .2l.3.2M146.3 121.6c.6 0 1 .4 1.4.8.8.7 1 1.8.3 2.7-.3.6-.7 1-1.2 1.2-1 .5-2 .8-3 .8h-5c-1 0-2-.2-3-.7-1.2-.7-1.3-1.6-.4-2.5.8-.7 1.7-1.2 2.7-1.4 2.2-.5 4.3-1 6.4-1 .6 0 1.3 0 2 .2M186 109c2.6.5 4.3 2.3 5.5 4.6.2.6.4 1.2.3 1.8 0 1-.7 1.3-1.7 1-.3 0-.7 0-1.2-.2l-2.3-.6c-.7-.2-1.3-.4-1.8-.8-1.6-1-2.8-2.4-3.3-4.3v-1c0-1 .7-1.4 1.6-1.3.4 0 1 0 1.3.2.6 0 1 .3 1.6.5M171.4 174.4c-1.4-.4-1.8-1.3-1.2-2.3.3-.5.8-1 1.3-1.4 1.2-1 2.6-1.5 4-1.7.6-.2 1-.2 1.6-.2h3.7c.2.2.4.2.6.2 1 .2 1.5.8 1 1.8-.2.4-.5.8-.8 1-1.3 1.4-3 2.3-4.8 2.7-1.3.2-2.5 0-3.8 0h-1.6M150.8 104.3c-1.5-.5-1.8-1.6-.7-2.7.6-.6 1.3-1 2-1.2 1.6-.6 3.4-1 5-1.5 1.4-.3 2.7-.3 4 .2.5.2 1 .5 1.4 1 .5.6.5 1.3 0 2-.3 0-.6.4-1 .5-.5.3-1 .5-1.7.6l-4.4 1c-1.3.3-2.5.4-3.8.2-.2 0-.4 0-.7-.2M196.6 133c-.4 0-.7-.2-1-.3-.6 0-1-.4-1.4-.8-1.6-2-2.2-4.2-1.7-6.6 0-.3.3-.6.5-1 .4-.5 1-.7 1.7-.4l2.5 1c.4.3.8.6 1 1 1.3 1.7 1.7 3.7 1.5 5.7 0 .4-.2.8-.4 1-.2.6-.7 1-1.4.7l-1.4-.5M195.3 158.3c-.6 1.5-1.5 2.8-2.8 3.8-.6.6-1.2 1-2 1l-2.3.4c-1 0-1.6-.4-1.8-1.3 0-.7 0-1.3.3-2 .6-1.5 1.6-2.8 3-3.8.7-.5 1.5-.7 2.3-.7h2.3c.8-.2 1 0 1.2.8.2.7 0 1.3-.2 2M175 98.4c1.2.4 2.2 1 3 1.6.5.3.8.6 1 1 .2 0 .3.2.4.4.4.7 0 1.2-.7 1.4h-1.2l-4-.4c-1.6-.2-3-.7-4.5-1.6-.4-.2-.7-.5-1-1-.3 0-.4-.3-.5-.6-.3-.5 0-1 .5-1.3.5-.3 1-.4 1.6-.3l4 .3c.5 0 1 .3 1.4.4M132.7 112.3l1-1.6c.8-1 1.7-1.5 2.6-2l3-2.2c.8-.5 1.6-1 2.5-1 .5-.2 1-.2 1.6-.2 1 0 1.3.8 1 1.6l-1 1c-.4.4-1 1-1.6 1.3l-5.6 3-2 1h-1c-.5 0-.7-.2-.6-.7v-.3M128.7 132.5c-.7-.3-1.2-.7-1.7-1.2-.8-.6-.7-1.2.3-1.5.8-.2 1.6-.2 2.4 0 1.7 0 3.4.3 5 .5 1 .2 1.6.5 2.2 1 0 .2.3.4.4.5 1 1 .4 2.4-1 2.8-.8.2-1.6 0-2.5 0l-5.3-2M144 172.2c-1.7-.5-3-1.2-4.4-2-1.3-1-2.6-2-3.8-3.2-.7-.5-1.2-1-1.6-1.8l-.3-.8c-.2-.6 0-1 .8-1 .7 0 1.3.2 2 .5 1.3.4 2.5 1.2 3.7 2 1.4 1.2 3 2.2 4.3 3.2l1.6 1.3.5.8c.2.5 0 1-.7 1H144M201.5 147c0 .3-.4.7-.6 1.2-.3.3-.6.5-1 .5-.5 0-1 0-1.5.2-.4 0-.7-.3-1-.6l-.3-1c-.3-1-.2-2.2 0-3.3.2-.8.5-1.7 1-2.5l.7-.7c.2-.2.5-.3 1-.2.3.2.8.3 1.2.3.4 0 .7.2.8.6l.2 1.2c0 1.4-.2 2.7-.7 4.3M130.2 148.7c-.6-.2-1-.6-1.4-1l-1.4-1.6c-1-1.5-2.2-3-3-4.7l-1-2.5v-.8c0-.2.2-.3.5-.2l.4.4 2 2 3.7 4c.7.8 1 1.5 1.4 2.3l.3 1.2c0 1-.6 1.3-1.5 1M123.2 149c.4 0 .6.3.8.5.8.7 1.3 1.6 2 2.5l1.5 3 2 3 1 2.4c.2.3.2.7.2 1 0 .6-.4.8-1 .7l-.8-.4c-1.2-.7-2-1.7-2.6-2.8-1.2-2-2.4-4.4-3-6.8-.3-.7-.4-1.4-.5-2.2 0-.2 0-.5.2-.7M127 122.3c0-.3 0-.6.2-.8.7-1 1.7-1.7 2.7-2.4l4-2.4c.8-.4 1.6-.7 2.4-.8h1c.6.2 1 .7.8 1.3 0 .6-.4 1-.8 1.3-.7.7-1.4 1-2.3 1.5l-6 2.3c-.4.3-1 .4-1.4.5-.2 0-.5 0-.7-.2M137 102.6c0-.2 0-.4.2-.6.4-.4.8-1 1.2-1.2 1.6-1.2 3.3-2.3 5.2-3 1-.5 1.8-.8 2.7-1 .5 0 1 0 1.4.2.5.2.6.6.3 1 0 .3-.3.5-.6.7l-1.2.8c-1.8 1-3.5 2-5.3 2.8l-2.2 1-1.3.2c-.6 0-1-.3-.6-1M152.3 176c.2-.4.5-.5.7-.6 1.5-.4 3-.5 4.4-.2 1 0 2 .4 3 .6l3.5 1c.3 0 .6 0 1 .3.4.4.7 1 0 1-1.2.3-1.8.3-2.5.2-2-.2-3.2-.2-5.4-.6L153 176h-.5M152.8 95.6c-.3-.2-.7-.3-.7-.6 0-.4.4-.6.7-.7l.7-.3c2.6-.6 5.3-1 8-.6.8 0 1.5.3 2.2.5.3 0 .7 0 .6.4 0 .4-.3.4-.6.5h-1.4c-1.3.3-2.6.4-4 .6-1.6.3-3.2.3-4.8 0h-.6M124.6 117.2c-.2-.3 0-.5 0-.7l1.3-2.6c1-1.8 2-3.3 3.4-4.8.6-.7 1.2-1.3 2-1.8l1-.5c.4-.2.6 0 .6.4l-.3.7c-.5 1-1 1.7-1.8 2.5l-4 4.4-1.8 1.7c0 .2-.3.3-.6.5M122 158.6c.3 0 .5 0 .7.3l1.2 1.2 2.5 3.8c.6 1 1.3 1.8 2 2.6l.8 1.4.3.7h-.7l-1.5-1.2c-2.2-2-3.7-4.4-5-7l-.5-1c0-.3-.3-.7 0-1M199.6 120l.4 1.3.3 1h-.2s0-.2-.2-.3l-2-1.8c-.5-.4-1-1-1.2-1.4-1-1.2-1.7-2.6-2-4-.2-.3-.2-.7-.2-1 0-.3.2-.4.5-.3l.5.4c1.2 1 2.2 2.3 3 3.7l.3.6.2.4.6 1.4zM118 141c.3 0 .3.2.4.4l.6 3c.4 2 .8 4.2 1.4 6.3 0 .7.2 1.4.3 2 0 .4 0 .7-.2 1-.4 0-.5-.4-.7-.6l-1-2c-.5-1.7-.7-3.4-1-5 0-1.5-.2-3 0-4.2v-.8h.2M126.7 109c-.2-.3 0-.6 0-.8.3-.5.5-1 1-1.5 1-1.8 2.5-3.4 4.2-4.8.6-.6 1-.7 1.7-1 .2-.3.5-.3.7-.3.2.2.2.3 0 .5 0 .3-.3.6-.6.8l-5.6 6-1 .7c0 .2-.3.2-.5.3M120.5 129.7l1.6 1.2 3 2c.8.6 1.6 1 2 2l.5.7c.2.6-.2 1-1 1-.6-.3-1.2-.8-1.7-1.3-.6-.6-1.2-1-1.7-1.8l-2.3-3.2-.4-.6h.2M120.7 127.8l.7-.4c1.7-1 3.5-1.6 5.4-2.2l1.8-.3c.4 0 1 0 1 .5.3.5 0 .8-.5 1-.5.4-1 .7-1.7.7-2 .3-4 .4-6.2.6h-.3M184.5 172.4c0-.4.2-.7.5-1 .7-1 1.7-1.8 2.6-2.6l3-2c.7-.2 1.3-.6 2-1h.4l-.2.2c-1.7 1.8-3.4 3.6-5.5 5-.6.5-1.3 1-2 1.3-.2 0-.5.2-.8 0M120.7 125.6l1.3-2.2c1-1.6 2-3.2 3.4-4.6l1.6-1.6.8-.4h.4v.4l-.3.7-2 2-5 5.4v.3h-.3M120.3 142.7c-.4-.5-.5-.8-.6-1.6-.5-2.8-.7-5.7-.6-8.6 0-.2 0-.3.2-.5v.4c.4 3 1 6 1.7 9v1c0 .3-.5.8-.7.3M203.4 136c-.6-.3-1-.7-1-1.2-.7-1.7-1-3.4-1-5.2 0-.4 0-.8.4-1 .2 0 .3.3.4.5.5 1 1 1.8 1 3l.3 3.4v.6M125 107.7v.3l-4.2 9s-.2 0-.3.2v-.4c0-.5 0-1 .2-1.3.6-2 1.3-4 2.6-6l1-1.4c.3 0 .5-.2.7-.4M119 156.8c-.5-.6-1.3-2.4-1.7-3.6-.6-1.8-1-3.2-1.2-5 0-.2 0-1 .2-1 .2.2.3.2.3.4l.8 2.2 1 4 1 2.6c0 .4.4 1 .2 1.2-.3 0-.4-.5-.6-.8M119.8 124.8l.3-1.8c.6-2.2 1.2-4.3 2-6.4l1.4-2.4c0-.2.3-.3.6-.5v1c-.5.8-.8 1.8-1.3 2.7-1 2-1.8 4.3-2.5 6.5l-.3.8h-.2M148.7 93.8l-1 .3-5.3 2.2c-1 .5-2 .8-3 1-.3.3-.7.3-1 .4v-.2s0-.2.2-.3c.5-.2 1-.6 1.7-.8 2.5-1 5-2 7.8-2.5h.6M200.5 153.4l-1 2.5c-.6 1-1 2-1.7 3l-1 1-.2.2c-.2-.3 0-.5 0-.8.5-1.6 1.3-3 2.2-4.4l.8-1 .8-.7M118 131.4c0 1.2-.4 2.4-.6 3.6l-.7 5.7c0 .4 0 .8-.2 1.3 0 0 0 .2-.2.3-.2-.2-.2-.4-.2-.6v-3c.4-2.3 1-4.6 2-7v-.3" fill="#FF1343"/>
      <path d="M122 142c-.7.4-2.4-7.6-2.4-10.2v.4l2.6 8.3c.2.7 0 .2 0 1v.6M114.3 144.5c0-1 0-1.7-.2-2.3 0-1.5.2-3 .6-4.4 0-.5.3-1 .6-1 .2 0 0 .8 0 1l-.2 3v4c0 .2 0 .6-.2.7-.2.2-.4 0-.5-1M179 176.3c-2.8 2-8.8 3.2-11.2 3.2.4-.2 2.5-.7 3-1l4-1 4.3-1.2M119 117v1c0 1 0 2-.2 3v3.6c0 .3 0 .6-.2 1v-.4c-.5-2-.7-4-.4-6 0-.7.4-1.3.6-2h.2M117.7 129.7c-1.3 1.7-2.3 3.6-3.3 5.4 0 0 0 .2-.3.2v-.5c0-1 .4-2 1-2.8.8-1 1.6-1.8 2.7-2.3M115.5 124.5l.3.3c.7 1 1.5 2 2 3-.2-.2-.6-.2-1-.3l-1-.5c-.6 0-.7-.4-.8-1 0-.4.2-1 .5-1.5M116.6 122.3c-.3 0-.4-.4-.3-.7 0-.5 0-1 .2-1.7l1-2.2c0 .8-.6 4-1 4.5M113.5 132.2c0-1 .3-2 .4-2.8v-.4c.2-.2.5-.2.6 0 .2.4.2.7 0 1 0 .5-.4 1-.6 1.5 0 .3-.3.5-.4.8M119.6 128.5c1.7 0 2.8.3 3.2 1h-.7l-1.7-.6-.7-.5M119.6 129.5c.6 1.2 1.2 2.4 1.5 3.7 0 0-.2 0-.2-.2l-.7-1.4c0-.7-.3-1.4-.5-2M123 125c-1 1-2 1.8-3 2.6.8-1 1.6-2 3-2.6M119.8 126.4c.5-1.4 1-2.7 1.7-4-.4 1.5-1 2.7-1.7 4M118.7 128.4c-1 .5-1.8.8-2.3.7 0-.2.3-.4.5-.5h1.7M118.8 127.6c-1-1-1.4-2-1.2-2.7.4.3.5.8.7 1.2l.5 1.4M118.2 134.6c0-1.3.2-2.7.6-4 0 1.4-.3 2.7-.4 4h-.2M119.6 122.5c0 1.3-.2 2.6-.4 4-.2-1 0-3.4.4-4M118.4 129.5c-.5 1-1 2.3-1.6 3.3.2-1.3 1-2.3 1.6-3.3M146.5 178.8l-1.8-.6-4-1.8-1.4-.8c-.3-.2-.7-.5-.6-.7 0-.2.3-.2.4-.2 1.3.3 2 1 3.2 1.4l4.2 1.5 5 1.5c.4 0 1 .3 1.5.5v.2h-1.2c-.5 0-.8 0-1.4-.2l-4-1zM190.8 106.8V107M190.7 106.6c-1.5-1.4-2.7-2.5-4-3.5l-2.6-2-1.2-.3c-.3 0 0 .7 0 .8l.8.8c1 1.3 2.3 2.3 3.7 3.2l3 2.2c.3 0 1 .5 1.2.4.3 0-.3-1-.8-1.4" fill="#FF1343"/>
    </g>
    <g>
      <path d="M198.2 133c-1.3 0-2.5-.6-3.7-1-2-1-3.7-2.2-5.3-3.5-4.5-3.4-8.4-7.5-11.7-12-2-3-4-6-5.4-9-.6-1.7-1.2-3.4-1.5-5-.2-1-.2-2.2 0-3.2.2-1.3 1-2.3 2.2-2.6.5-.2 1-.2 1.6-.2 1.3 0 2.4.5 3 .7 1.3.5 2.4 1 3.5 1.7 3 1.5 5.7 3.5 8.2 5.8l.4.4-.6-.4c-1-.8-2-1.4-3-2-.7-.2-1.4-.5-2-.5-1 0-1.8.5-2 1.5 0 .4 0 1 .2 1.3 0 1 .4 1.8.7 2.6 1 2 2 3.6 3.3 5.3 2 2.5 4 4.8 6.8 6.6.8.6 1.7 1 2.7 1.4l1.4.2c.7 0 1.3-.5 1.4-1.3v-1.4c0-.7-.5-2-.6-2.6l.3.6c2 4 3.5 8 4.3 12.2v.6c.2 2-1 3.5-3 3.6h-1" fill="#FF1343"/>
      <path d="M228.4 62.2c23 12 39.3 40.7 26 66.2-11.5 22-43 29-67 14.2C169 131 151 105 161.8 81.2c10.2-22.6 34.7-35.5 66.7-19" fill="#000327"/>
      <path d="M181.4 60.7h4.5c1.4.2 3 .5 4.4 1 1.5.5 3 1.2 4.4 2 2.6 1.4 5 3.3 7.2 5.4 2 2 4 4.3 5.4 6.6l2 3.6 1 2c0 .3 1 2 1.4 3.5h-.5l-1-2.3-1-2c-.4-.5-.7-1.2-1-1.8l-2.3-3.3c-1.7-2.2-3.5-4.2-5.6-6-2.2-1.7-4.5-3.3-7-4.6-1.3-.7-2.7-1.2-4-1.7l-4.3-1c-1.3 0-2.7-.2-4 0l-2.2.5-1 .2-2 .7 1.4-1c.2 0 .3-.2.5-.3l.4-.3h.2l.4-.3c.2 0 .3-.2.5-.3.3 0 .4 0 .6-.2h1.8" fill="#FF1343"/>
      <path d="M213.4 82.4zm-15-26c1 .5 2.2 1 3 1.7 2 1.4 3.6 3 5.2 5 1.3 1.7 2.5 3.6 3.5 5.7 1 2 2 4.2 2.6 6.3l.8 3.3v.8c.2.4.4 1.7.5 3v2.8l-.5-.2c0-1-.3-2.5-.4-3.6-.2-2-1-4.4-1.6-6.5-.7-2-1.6-4.2-2.7-6-1-2-2.3-4-3.7-5.5-1.5-1.8-3-3.3-4.8-4.4l-3-1.5c-.6 0-2.2-.5-3.2-.7-.8 0-2.4-.3-3-.4l.6-.3h.6c.3-.2.5-.2.7-.2h.5c2 0 3.6.4 4.8 1z" fill="#FF1343"/>
      <path d="M189.4 57.5c.8 0 1.6 0 2.4.3 1.6.4 3 1 4.5 1.7 1.5.8 2.8 1.7 4 2.7 1.2 1 2.3 2 3.3 3.2 2 2.2 3.8 4.7 5.2 7.4 1.4 2.6 2.6 5.4 3.3 8.3.4 1.2.7 2.2.8 3.3h-.4l-.2-.7-1.5-4.6c-1-2.8-2.5-5.5-4.2-8-1.7-2.5-3.8-5-6.2-7-1.2-1-2.5-2-4-2.7-.6-.5-1.4-1-2.2-1.2l-2.2-1c-1.6-.4-5-.8-7.5-.8h-.6l1.6-.7h4" fill="#FF1343"/>
      <path d="M179.3 64.5c1.8-.2 3.7 0 5.5.2 2 .3 3.8 1 5.6 1.5 1.8.7 3.6 1.6 5.2 2.5l4.5 3c1.4 1 2.7 2.3 3.8 3.5 1.2 1.2 2.3 2.5 3.3 3.8l1.5 2 .7 1.2 1 1.6c0 .4.3.8.5 1.2h-.2l-.3.2-1-1.8c-1-1.5-2-3-3.2-4.3-2-2.4-4.6-4.7-7.4-6.6-1.5-1-3-2-4.7-2.8-1-.4-1.7-.8-2.6-1-.8-.5-1.7-.7-2.7-1L186 67l-2.7-.6c-1.7-.3-3.4-.3-5.2-.2-1.4.2-3 .5-4.4 1-.7.2-1.4.6-2 1-.5 0-1 .3-1.2.6l-.4.2 1-1 1-1.2c.8-.5 1.6-1 2.3-1.2 1.6-.6 3.3-1 5-1" fill="#FF1343"/>
      <path d="M165 76c0-.4.2-.6.3-1 .4-.5.8-1 1-1.5 1-.8 2-1.5 3-2 1.6-1 3.4-1.6 5.2-2 2-.4 4-.5 5.8-.4 1 0 2 .2 3 .4 1 0 1.7 0 2.5.3l3.8 1c1.4.5 2.8 1 4.2 1.7 2 .8 3.7 1.8 5.5 3 1.5 1 3 2.2 4.5 3.5 1.4 1.2 2.6 2.6 3.8 4l1.8 2.8s-.2 0-.2.2c-1-1.4-2.4-2.8-3.7-4.2-1.4-1.3-2.8-2.5-4.4-3.7-1.5-1-3.2-2-5-2.8-1.7-1-3.6-1.7-5.6-2.3-2-.7-4-1.2-6.2-1.5-2-.3-4-.4-6.2-.3-2 0-3.8.3-5.7 1-1.6.3-3.2 1-4.6 1.8l-2 1.4-1 1-.3.3s0-.3.2-.4l.2-.3" fill="#FF1343"/>
      <path d="M164 79.5c1.2-1.2 2.7-2.2 4.3-3 1.7-.7 3.5-1.2 5.3-1.6 1.8-.5 3.7-.6 5.6-.7h3c.5 0 1 0 1.5.2.5 0 1 0 1.6.2l3 .5 3.2 1c2 .5 4 1.2 6 2 2 1 3.7 2 5.4 3.3 1.5 1.2 3 2.6 4.4 4 .4.5.8 1 1 1.5v.4c-.8-1-1.8-1.8-2.7-2.6-1.5-1.2-3-2.3-4.8-3.2-2-1-3.7-1.8-5.6-2.5l-3-1c-.5 0-1 0-1.5-.2-.6 0-1-.3-1.6-.4l-3-.5-3-.4h-5.7c-1.8.3-3.5.5-5.3 1-1.7.4-3.3 1-5 1.8-1.3.6-2.6 1.5-3.8 2.5-1 .7-2.3 2.2-3.4 3.7l.4-1v-.2s0-.3.2-.4l.2-.5v-.3c.2 0 .2 0 .2-.2v-.3c.2 0 .2 0 .2-.2l.6-.7c.6-1 1.2-1.6 2-2.3" fill="#FF1343"/>
      <path d="M162 93.5c1-1.4 2.5-2.6 4-3.5 1.6-1 3.3-2 5-2.6l5.4-1.8c2-.5 4-1 5.8-1 2-.4 4-.5 6-.5s4 .2 6.2.4c1 0 2 .3 3 .5 1 0 2.2.3 3.2.6 2 .6 4 1.5 5.7 2.5.7.6 1.5 1 2.2 1.7V90.2c-1.7-1-3.4-2-5.3-2.5-2-.7-4-1-6-1.3-2.2-.2-4.2-.3-6.3-.2-2 0-4.2.2-6.2.5l-6 1.2-2.8.7c-.5 0-1 .3-1.4.5l-1.4.6c-1.8.7-3.6 1.6-5.3 2.6-1.8 1-3.3 2-4.7 3.4-1.3 1.3-2.6 2.8-3.2 4.5 0 .5-.3 1-.5 1.6 0 0 0 .4-.2.7l-.2-1.6v-1.6c.3-2 1.6-4.5 3-6" fill="#FF1343"/>
      <path d="M159.2 91c.6-1 1.7-3 2.3-3.7 1-1.4 2.6-2.6 4-3.6 1.7-1 3.5-1.8 5.3-2.4 1.8-.7 3.7-1 5.6-1.4 2-.5 4-.6 6.2-.7 2 0 4.2 0 6.4.4 1 0 2 .3 3.2.5l3.2.8c.6 0 1 .3 1.6.5.5 0 1 .2 1.6.4 1 .4 2 1 3 1.3l2.7 1.6c.8.5 1.7 1 2.5 1.7l1.6 1.5v.7l-1-1-2.5-1.8c-1.8-1-3.6-1.7-5.4-2.4-2-.7-4-1.2-6-1.5-2-.4-4.2-.6-6.2-.6h-5.8c-2 .2-3.7.5-5.5 1-1.7.3-3.5.8-5.3 1.4-1.7.8-3.3 1.5-5 2.5-1.4 1-2.8 2-4 3.5-.6.6-2 2.4-2.3 3.2l-.5 1.2V94v-.7-.6-.4-.2-.2-.2-.3c.2 0 .2-.3.2-.4zM216.6 79.4c0-2.2 0-4.4-.4-6.6 0-1-.3-2.2-.5-3.2l-.7-3.3-1.2-3-1.4-2.8c-.5-1-1-1.7-1.8-2.4l-3.5-2.7c.5 0 1 0 1.4.2.4 0 1 0 1.3.2.4 0 .6 0 1 .2 1 1.2 2.7 3 3 3.8 1.3 2 2 4 2.6 6.2.6 2.2 1 4.5 1 6.8.3 2.4.2 5 0 7.3 0 1.3-.2 2.5-.4 3.7l-.3 1.8v.6c-.3 0-.4 0-.6-.2l.6-6.4" fill="#FF1343"/>
      <path d="M201.8 54.7c1.2.4 2.7 1.4 3.7 2 1 .7 2 1.5 2.8 2.5 1.6 1.8 2.8 3.8 3.8 6 1 2.3 1.8 4.6 2.3 7 .6 2.5 1 5 1 7.5v5.5c-.2 0-.3 0-.5-.2v-.5-2-2c0-.7 0-1.4-.2-2l-.7-4-1.2-3.8-1.3-3.7c-.5-1.2-1.2-2.3-1.8-3.4l-2.2-3.2L205 58c-.5-.5-1-1-1.7-1.2-.5-.4-1.8-1-2.4-1.2-.4 0-1.7-.4-3-.8h3.8M247 77H245l-1.5.5-3 1.3c-2 1-3.7 2-5.6 3.2l-5.5 3.7-5.4 4-2 1.5s0-.2-.2-.3l3-2.8c1.8-1.5 3.6-3 5.4-4.3 1.7-1.5 3.5-3 5.3-4.2 2-1.3 3.8-2.5 5.8-3.6l1.4-.8 2-1c0 .3.3.5.5.7v.2L247 77M254.6 97.3c-2.4-1.6-4.8-2.6-8-3.3-3.2-.7-6.8-1-10.4-1l-7.5.7-4.5.8v-.2-.2l5.3-1c2.6-.5 5-1 7.2-1 4.2-.4 7.7 0 8.8.2 4.4.8 7.7 2.5 9.3 3.4l3.3 2c.2.4 1 3.7 1 4.6-1.2-2.3-2.8-3.8-4.4-5M241.2 71.2l.5.5v.2c-.4 0-.7.3-1 .4-1.6 1.2-3.2 2.6-4.7 4l-5 4.4-4.6 4.4-4.7 4.6c-.2 0-.4.3-.5.5l-.4-.4 1.7-2 4.8-5c1.6-2 3-3.6 4.7-5.4l4.8-5.2c.7-.8 1.7-2 2.5-2.7h.2l.4.3.3.4 1 .8zM249.6 82.2H248c-1.2 0-2.3 0-3.4.2l-3 1c-1.2.2-2.2.6-3.2 1-2 .7-4 1.6-6 2.6l-6 3.3c-1 .4-2 .8-3 1.4l-.5.4c-.2 0-.3 0-.3-.2l5-3.3 5.6-3.2c2-1 3.8-2 5.8-2.8 2-1 4.2-1.8 6.3-2.2 2-.3 3.4-.3 4.2-.2.3.5.6 1 1 1.3 0 .2 0 .4.3.6 0 .2.3.4.4.6l-1.6-.4M218 61.7c-.3-1-.7-1.7-1.2-2.6l-2.4-2.5 3 1c.4.2.6.7 1 1l1.4 3c.7 2 1 4.3 1 6.6 0 2.5 0 5-.4 7.2 0 1.2-.3 2.4-.6 3.6l-.7 3.6c-.2 1.2-.5 2.4-1 3.6 0 .2 0 .4-.2.6 0 0-.2 0-.2-.2 0-.4.2-.7.3-1v-2l.5-1.6.5-3.5c0-1 .3-2.3.4-3.4v-7c-.3-2-.7-4.2-1.4-6.3M160.3 106c.3-1.8 1.4-3.6 2.7-5 1.2-1.5 2.7-2.7 4.2-3.8l5-3 5-2c1.8-.7 3.6-1.3 5.3-1.7 1.8-.5 3.7-1 5.5-1.2 2-.3 3.8-.5 5.8-.6 2 0 4 0 5.8.2 2 0 4 .5 6 1.2 1 .3 2 .7 2.8 1.3.2 0 .3 0 .4.2 0 .2 0 .4.2.7l-1-.6c-2-.8-4-1-6-1.3h-6.2l-5.7 1c-1.8.3-3.6.8-5.4 1.4-1 0-2 .4-2.8.7l-2.7 1c-1.8.7-3.6 1.7-5.3 2.6l-5 3c-1.6 1.2-3 2.4-4.4 3.8-1.2 1.5-2.3 3-2.8 4.8 0 .2 0 .5-.2.7v1l-.4-.7-.3-.7-.5-1.4V106M236.3 68l-.8 1.5-1 1.5-4 6-4.4 5.6c-1.4 2-3 3.8-4.4 5.7l-.8 1c-.2 0-.3-.2-.4-.4.3-.5.6-1 1-1.3 1-1.8 2.3-3.6 3.5-5.4l3.4-5.5c1-1.8 2.2-3.7 3.2-5.7.8-1.6 2-3.5 2.2-5.7h.2l1.2.8.7.5.5.5v.2c0 .3 0 .6-.2.7" fill="#FF1343"/>
      <path d="M224 73l-.5 1.8-1 3.6-1.2 3.5c-.3.4-.5 1-.7 1.6 0 .3-.2.6-.3.8 0 .3-.3.5-.5.8l-.6 1.6-.3.7c-.2 0-.3-.2-.4-.3l1-3c.8-2.2 1.5-4.4 2-6.7l.8-3.4.5-3.2c.2-2.2.3-4.5 0-6.7 0-1 0-2-.5-2.8 0-.5-.3-1-.5-1.3l-.4-.8s0-.2.4 0c.2 0 .5 0 .7.2.3 0 .5.2.8.3 0 0 .3 0 .4.2.2 0 .3.2.3.2 0 .3.2.6.3.8 0 .5.3 1 .4 1.6v1.7c.2 2.4 0 4.8-.6 7 0 .7-.3 1.2-.4 1.8M259.6 110V111.4c-.3-1-.6-2.2-1-3-.6-1.3-2.8-5-6-7.2-1.4-1-3-2-5.4-2.8-1.7-.8-4-1.3-5.3-1.7-1.7-.5-4.3-.8-8-1-1 0-2.4-.2-3.7 0h-2.8c-.3 0-2 0-2.8.2 0-.3 0-.4-.2-.6h1.4l1.8-.2c2.6-.3 5-.4 7.7-.3 2.6 0 5.2.4 7.7 1 2.5.5 5 1.4 7.4 2.5 2.2 1 4.3 2.4 6 4.2.6.8 1.5 2 2 3 .5.5.8 1.2 1 1.7v2.5M229.5 148.7l.4-.3 1-.8c1.5-1.2 2.6-2.8 3.5-4.6.5-1 1-2 1.5-3.5.6-1.7 1-4.2 1-5.3l.3-3c0-2 0-4-.3-6l-1.2-5.6c-.5-1.7-1-3.4-1.7-5-.6-1.7-1.5-3.3-2.4-5-1-1.4-2-3-3.3-4.4-1-1.2-2.4-2.3-3.8-3.3 0-.2.2-.4.3-.5l1.2.8c1.7 1 3.3 2.6 4.7 4 1.4 1.7 2.6 3.4 3.6 5 1 1.8 2 3.6 2.7 5.5.8 2 1.4 3.8 2 5.8l1 6.3v3c0 .7 0 1.2-.2 1.8 0 .5 0 1-.2 1.6 0 1.2-.3 2.3-.6 3.4l-1.2 3c-1 2-2 3.6-3.6 5-.2 0-.5.3-.8.5h-.4v.2h-.5v.2h-.5v.2h-.5-.2s-.2 0-.3.2h-.2-.3v.2h-.2-.3l-.3.2h-.2" fill="#FF1343"/>
      <path d="M251 134l.2-.6.3-.6c.6-1.7.8-3.4.8-5.2 0-1.6-.2-3-.5-4.6-.8-3-2.2-6-4-8.6-1.5-2.5-3.6-4.8-5.8-7-2.6-2.2-5-4-8-5.5-1-.5-2.7-1.5-5.7-2.4l-3.3-.8v-.3c4.7.8 6.6 1.5 7.5 2 1 .2 1.8.6 2.7 1 1.7 1 3.3 1.8 5 3 1.3.8 2.7 2 4 3 1.2 1 2.4 2.3 3.5 3.6l3 4.2c.8 1.4 1.5 3 2 4.4.6 1.6.8 2.6 1 4.5.3 1.6.3 2.3.3 3v2.6c-.7 1-1.3 2-2 2.8 0 .2 0 .3-.3.5l-.3.4-.4.6z" fill="#FF1343"/>
      <path d="M245.3 139.7c1-1.5 1.8-3.2 2.2-5 .3-1.8.4-3.6.4-5.4-.2-1.8-.5-3.5-1-5.2l-1.5-4.4c-.6-1.5-1.4-3-2.2-4.3-.8-1.4-1.7-2.7-2.7-4-1-1.4-2.4-2.7-3.7-4-1.4-1.2-2.7-2.4-4.2-3.4-1.4-1.2-3-2-4.5-2.8-1-.4-1.7-.8-2.5-1l-.8-.3v-.4l2.4.7 1.5.5 1.3.7 2.7 1.4c1 .4 1.7 1 2.5 1.6 1.4 1 2.7 2 4 3.3 1.3 1 2.4 2.4 3.5 3.8l3 4.3c.8 1.6 1.6 3.2 2.2 4.8.6 1.6 1 3.3 1.4 5 .3 1.8.4 3.6.2 5.5 0 1.5-.6 3.8-1.2 5.5 0 .2-.3.3-.4.5l-.5.4-.4.5-.5.4-2 1.8.5-.7" fill="#FF1343"/>
      <path d="M237.8 145.5l.4-.4c1.4-1.3 2.5-3 3.2-4.8.8-2 1.3-4.2 1.4-6.3.2-2.2 0-4.3-.2-6.3-.2-1.8-.6-3.5-1-5.2-.5-1.6-1-3.2-1.8-4.8-.7-1.6-1.5-3-2.4-4.6l-3-4.2c-1.2-1.5-2.6-3-4-4.2-1.7-1.3-3.4-2.5-5.4-3.5v-.3l2.6 1.2c2 1 3.6 2.2 5.2 3.6 1.5 1.2 2.8 2.6 4 4 1.2 1.5 2.3 3 3.3 4.6 1 1.5 2 3.2 2.6 4.8l1.8 5.4c.5 2 .8 4 1 6 0 2.2-.2 4.4-.7 6.5l-1.2 3-.8 1.4c-.3.5-.5 1-1 1.3 0 .3-.3.5-.6.8l-.2.2c-.2 0-.3.2-.5.3l-2.5 1.5" fill="#FF1343"/>
      <path d="M254 116c-1-2.6-3-5-5-7s-3.6-3.4-6-5c-1.4-.7-3.2-1.8-6.3-3-.8-.5-2.7-1.2-3.5-1.5l-2.5-.6-2.5-.7-2.4-.2h-.8v-.2h2c1 0 1.8.2 2.6.3l1.4.3 1.3.3 2.7.7c1.8.5 3.5 1.2 5 2 1.8.6 3.3 1.5 4.8 2.4 2.8 1.8 5.3 4 7.5 6.4 1.8 2.3 3.4 4.8 4 7.6.4 1.2 1 3.2 1 4.7-.5 1.7-1.2 3.5-2 5.2l.5-2.8c0-1.5 0-3-.2-4.5-.3-1.4-.8-2.8-1.5-4" fill="#FF1343"/>
      <path d="M258 115.8c-.3-1.2-1-2.7-1.4-3.8-.5-1-1-2-1.8-3-1.5-1.8-3.2-3.4-5-4.8-1-.8-3.3-2-4.4-2.5-2.5-1.3-4.5-2-5.7-2.6-2-.5-5.2-1.4-8-1.8l-7-.4c0-.2 0-.4-.2-.6h3l5.3.3c4.2.6 6.8 1.4 8 1.8 1.4.4 2.7 1 4 1.5 2.5 1 5 2.4 7 4s3.6 3.3 4.8 5.3c1 1.5 1.8 3.8 2.3 6-.2.3-.2.6-.2.8 0 .5-.2 1-.3 1.3l-.2 1.3-.4-2.5M229.6 62.6l.2.2h.3l.2.2.4.2v2l-.5 2c0 1-.5 2.2-1 3.4l-1.4 3.3c-1 2.2-2 4.4-3.2 6.6l-3.7 6.4-1 1.4c0-.2-.2-.3-.2-.3l1-1.6 2.8-6c.4-1 1-2 1.3-3.2.5-1 1-2 1.2-3l1-3.4 1-3.2c0-1 .3-2 .3-3.2V63c0-.2 0-.6-.3-1 0-.2 0-.3.2-.2h.3l.6.5s.2 0 .3.2h.3M226.5 92.7zm28.8 0c-1-.5-2.4-1-5-1.8-1.7-.6-3.7-1-6-1-2 0-4 0-6 .3-2 .2-4.4.6-6.5 1-1.5.4-4.3 1-8 2.3v-.2s-.2 0-.2-.2l4.4-1.6h.3l1.5-.6 3-.8c2-.5 4.3-1 6.5-1.3 2.2-.4 4-.5 6-.5 2.6 0 4.6.4 6.4 1l4 1.5c.6 1 1 2.3 1.4 3.4-.4-.5-1-1.2-1.7-1.6z" fill="#FF1343"/>
      <path d="M253.6 87.7c-.5-.3-1.6-.7-2.6-1-1.6 0-3.5-.3-4.6-.2-1 0-1.5 0-2 .2l-3.4.5-3.2.6-3 .8-6.3 2.2c-1 .4-2 1-3 1.3l-1.6.8c-.3 0-.5 0-.7.2 0 0 0-.2-.2-.3.3 0 .4 0 .5-.2l3-1.5 3-1.4 6-2.3c2-.7 4-1.3 6.2-1.7 2-.5 5-.7 7-.8 1.2 0 3 0 4 .2l1.5 3-.6-.3M176 132.2l2.4-3c1.7-2 3.5-3.8 5.3-5.6 1.8-2 3.6-3.7 5.4-5.5 2-1.7 3.8-3.5 5.7-5.3l5.8-5.3 5.7-5c1-1 2-1.7 3-2.5.5-.5 1-1 1.5-1.3l1.3-.8c.2 0 .3.3.4.4.2 0 .3.3.4.4-.7 1-1.7 2-3 3.2l-1.3 1.4-.8 1-5.3 5.8c-1.8 2-3.5 4-5.3 5.8l-5.2 6-5.4 5.8c-1.7 2-3.5 4-5.3 5.8L180 135l-.7.8c0 .2-.2.3-.4.5 0-.2-.2-.3-.4-.4 0-.2-.2-.4-.4-.5l-2.4-2.4c0-.2.3-.6.6-.8M170.8 125.7l1-1.7 2.7-3 3-3c1.8-1.7 4-3.5 6-5.2 2-1.7 4.2-3.3 6.4-5l6.5-4.5c2.2-1.4 4.5-3 7-4 1-.7 2.2-1.3 3.5-1.8 1-.5 2.3-1 3.5-1 .2 0 .4 0 .6-.2l.5.6h.2s-.2 0-.3.2c-.3 0-.6.2-1 .4l-1.6 1c-2.4 1.2-4.6 2.8-6.7 4.4l-6.5 5-6.3 5.4-6 5.6-6 5.8c-1 1-1.8 2-2.6 3-.4.6-.8 1-1 1.7-.3.2-.4.5-.5.8 0-.3-.4-.5-.6-.8l-.7-1-.7-.7-.7-1c0-.3.4-.7.5-1M162.6 114.3v-.5c0-1 .3-2 .7-2.7 1-1.7 2.3-3.2 3.8-4.6 1.5-1.3 3-2.5 4.7-3.6l5-3c1.7-1 3.4-1.8 5.2-2.5 1.7-.8 3.5-1.5 5.3-2 2-.8 3.8-1.3 5.7-1.8 2-.4 3.8-.8 5.8-1 2-.3 4-.4 6-.2 1 0 2 .3 3 .6.6 0 1 .2 1.5.4l.3.7c-1.5-.5-3.2-.5-4.8-.4-1.8 0-3.7.4-5.5.7-1.8.4-3.5 1-5.3 1.5-1.7.5-3.4 1.2-5 2-1.8.6-3.4 1.3-5 2l-5 2.7-4.5 3c-1.6 1-3 2-4.4 3.3-1.3 1.2-2.6 2.5-3.7 4-.6.6-1 1.4-1.5 2l-.5 1.4c0 .3 0 .5-.2.7v.3l-.3-.6-.8-1.6-.4-.7z" fill="#FF1343"/>
      <path d="M167.2 122.2l-1-1.6c0-1 .4-1.7.8-2.4.4-.8 1-1.6 1.6-2.4.7-.7 1.3-1.5 2-2 1.4-1.5 3-2.8 4.4-4 1.5-1.2 3-2.4 4.7-3.5l5-3 5-2.8c1.8-1 3.6-1.7 5.3-2.4l5.5-2c1.8-.5 3.7-1 5.7-1.3 1 0 2-.2 2.8 0h1.4c0 .3.2.6.4.8h-.8c-1.3 0-2.6.4-3.8.7-2.5.8-5 2-7.4 3-2.4 1.2-4.8 2.5-7.2 4-2.3 1.3-4.6 2.8-6.8 4.4-2.2 1.5-4.4 3-6.5 4.8l-6 5.4c-1.6 1.8-3.3 3.7-4 6l-.5-.7-.6-.8zM183.5 138l1.4-1.4c1.7-1.8 3.4-3.7 5-5.7 1.8-2 3.4-4 5-6l5-6 4.7-6.2 4.6-6.2 2.8-4c1-1 1.5-2 2-3l.8.7c0 .3-.6 1.4-1 2l-1 2-2 3.7-2.3 3.6-4.6 7-5 6.8-5 6.6-2.8 3c-1 1-1.8 2.2-2.7 3l-1.5 1.5-1.6 1.2-.7.2-1.2-1-1.2-1 1.2-1M189 143.2h.3c.3-.3.6-.4 1-.6 1-.7 2-1.6 2.8-2.5l3-2.8c1.6-2 3.3-4.3 4.8-6.6l4.7-7 4.2-7.3 2-3.7.7-2 1-1.8c.5-1.2 1-2.5 1.4-4l.6-2 .5-1.8 1 .8-.2 2.8c-.3 2.2-1 4.5-1.3 6l-2 6-2 4.4-2.6 5-4 6.8c-1.5 2.3-3 4.5-4.7 6.6-1.7 2-3.4 4-5.7 5.4l-2 .7-.7-.5h-.3l-.3-.2h-.3c0-.2 0-.3-.2-.3h-.2c0-.2-.2-.2-.3-.3h-.2c0-.2 0-.2-.2-.3l-.2-.2-.4-.2-.2-.2h-.3l.4-.2M220 103.6h1.1c.4.5.6 1 .8 1.5.8 2 1.2 3.8 1.5 5.7.3 2 .4 4 .4 6.2 0 2-.2 4-.4 6.2l-1.2 6.3c-.4 2-1 4-1.8 6-.4 1.2-.7 2.2-1.2 3.2l-1.4 2.8c-1 1.8-2 3.5-3.5 5-1.2 1.5-2.7 2.8-4.5 3.5l-1.6.5h-.4-1v-.2h-1l-2-.6c.5 0 1-.3 1.2-.4.5 0 1-.3 1.3-.5l1.2-.6 2-1.8c1.3-1.3 2.4-2.7 3.4-4.3 1-1.5 2-3 2.8-4.8 1-1.8 1.6-3.7 2.3-5.5.7-1.8 1.3-3.7 1.8-5.7l.7-3 .5-2.8c.3-2 .6-4 .7-5.8v-5.7c-.3-1.7-.6-3.5-1.3-5" fill="#FF1343"/>
      <path d="M221 150c1.8-.7 3.2-2 4.4-3.3 1-1.3 2-3 2.8-4.6.8-1.7 1.5-3.6 2-5.6l1-6v-5.8c0-2-.2-3.8-.5-5.6-.3-1.8-.7-3.5-1.3-5.2-.5-1.7-1-3.3-2-5-.6-1.5-1.5-3-2.6-4.4l-1.4-1.6v-.2h.3v-.2c1 .8 2 1.7 2.8 2.7 1.3 1.6 2.3 3.3 3.2 5 1 1.7 1.6 3.5 2.2 5.4.6 2 1 3.8 1.4 5.8l.6 6c0 2 0 4.2-.3 6.3-.2 2.3-.7 4.7-1.4 6.6-.8 2.2-1.5 3.8-2.8 5.5-1 1.5-2.4 3-4 4l-1 .3-2.3.4h-.5l-.6.2H220c.5 0 1-.2 1-.3" fill="#FF1343"/>
      <path d="M213.5 150.2l2.2-1.3c1.4-1.3 2.7-2.8 3.7-4.4l3-5.4 1.8-6c.6-2 1-4 1.2-6 .3-2 .4-4 .5-6.2 0-2-.2-4-.4-6-.2-1.8-.5-3.7-1-5.5-.5-1.8-1.2-3.5-2-5l-.6-1h.5l.2-.2c.8 1 1.5 2 2 3 1 1.7 1.6 3.5 2.2 5.2.4 1.8.8 3.7 1 5.5.4 2 .5 4 .6 6 0 2 0 4-.3 6 0 1-.3 2-.4 3l-.4 1.6c0 .5-.2 1-.4 1.5l-1 3c-.2 1-.5 2-1 3-.7 2-1.7 3.7-3 5.3-1 1.5-2.4 2.8-4 3.7-.8.4-1.6.8-2.4 1h-1.5c-1 0-2 0-3.2-.2.6 0 2-.5 2.3-.6M219.2 106c.2 1.4.2 2.4.2 4.3l-.4 4-.5 3-1.5 6-2 6c-1 2-1.7 4-2.7 5.8-1 2-1.8 3.7-3 5.5-1 1.6-2.3 3.2-3.7 4.7-1.2 1.2-2.7 2.4-4.4 3-.4.2-1 .5-1.6.5h-.5v-.2h-.4s0-.2-.2-.2h-.3c-.7-.4-1.3-.6-2-.8l-.4-.2.5-.2 1-.2c.8-.3 1.5-.8 2-1.3.8-.6 1.5-1 2-1.8 1.4-1.3 2.5-2.6 3.6-4 2-3 4-6.2 5.5-9.5 1-1.7 1.8-3.3 2.5-5l1-2.6c.4-1 .8-1.8 1-2.7.8-2 1.3-3.7 1.8-5.5.4-1.8 1-3.6 1.2-5.4.2-1.7.4-3.5.3-5.3 0-.3 0-.7-.2-1 .2 0 .4 0 .6.2h.5v.4c.3 1 .4 1.7.5 2.7" fill="#FF1343"/>
    </g>
    <g>
      <path d="M209.6 52.3c.3-.4 0-.7 0-1-.5-1-1-2.4-1.7-3.5-1.6-2.3-3.2-4.5-5-6.5-.8-1-1.7-2-2.8-2.5l-1.4-.7c-.6 0-1 .3-.8.8 0 .3.2.6.4 1 .6 1 1.6 2.2 2.5 3.2l5.4 6c.7 1 1.5 1.8 2.3 2.6l1 .7M218.7 85.2c-.4 0-.4.4-.5.6l-.8 4c-.5 3-1.2 6-2 9l-.4 3c0 .3 0 .7.2 1 .6 0 .8-.4 1-.8.5-1 1-2 1.3-3 .8-2.2 1-4.6 1.3-7 .3-1.8.4-3.7.2-5.7 0-.3 0-.6-.2-1M215.3 69.7l-2.3 1.6-4 3c-1 .7-2 1.5-2.8 2.6l-.5 1c-.3 1 .2 1.4 1.2 1 1 0 1.7-.7 2.4-1.4l2.3-2.5 3.3-4.3.5-1h-.2M215 67l-1-.6c-2.3-1.3-4.8-2.2-7.4-3-.8-.3-1.7-.3-2.5-.3-.5 0-1.2.2-1.4.8-.3.7.3 1.2.8 1.5.7.5 1.6.8 2.4 1l8.7.8h.5M215 64l-1.8-3c-1.4-2.3-3-4.4-4.7-6.5l-2.2-2c-.3-.4-.7-.5-1-.7h-.7v.5c0 .4.3.8.5 1 1 1 1.7 2 2.6 3 2.4 2.4 4.6 5 6.8 7.4l.4.4h.2M215.6 87.6c.4-.6.6-1 .8-2 .7-4 1-8.2 1-12.2l-.3-.6v.6c-.5 4.2-1.4 8.3-2.3 12.5-.2.8 0 .5 0 1.4 0 .3.6 1 1 .2M209 39.2v.4l6 12.4s0 .2.3.4v-.6c0-.7 0-1.3-.2-2-.8-2.7-1.8-5.5-3.5-8-.5-.7-1-1.4-1.7-2l-.8-.7v.2M217.5 107.2c.5-1 1.7-3.4 2.2-5 .8-2.5 1.5-4.4 1.7-6.8 0-.4.2-1.5-.2-1.5-.2 0-.4.2-.4.4l-1 3-1.6 5.6c-.3 1.3-.8 2.5-1.2 3.7-.2.5-.6 1.4-.4 1.5.4.2.6-.6 1-1M216.2 62.8c0-.8-.2-1.6-.4-2.4-.7-3-1.5-6-2.8-9-.5-1-1-2-1.8-3.2 0-.2-.4-.4-.7-.7-.2.5 0 1 0 1.3.6 1.3 1 2.6 1.7 3.8 1.3 3 2.5 6 3.5 9 0 .5.2.8.4 1.2h.2M218.6 72l1 5 1 7.8c0 .6 0 1.3.2 2l.2.3c.4 0 .4-.4.4-.7.2-1.4.2-2.7 0-4-.5-3.4-1.3-6.6-2.5-9.7l-.4-.6M213 86.8c1.2.4 3.5-10.7 3.5-14.2v.5c-1 4-2.3 7.8-3.6 11.6-.4 1 0 .2-.2 1.2 0 .3 0 .7.3 1M223.8 90l.3-3c.2-2 0-4.2-.6-6.2-.2-.7-.3-1.4-.7-1.2-.4 0 0 1 0 1.3l.2 4.2v5.3c0 .4 0 1 .2 1 .3.3.5 0 .6-1.4M217.2 52.2v1c0 1.5.3 2.8.4 4.2v5.2c0 .4 0 .8.3 1.2v-.4c.6-2.8 1-5.6.4-8.4 0-1-.5-1.7-.8-2.5l-.2-.3h-.2M219.2 69.6c1.7 2.4 3.2 5 4.6 7.5 0 .2 0 .2.3.3 0-.3.2-.5 0-.8 0-1.4-.3-2.6-1.2-3.8-1-1.2-2-2.3-3.6-3M222.2 62.5l-.4.3-3 4c.6 0 1 0 1.6-.3.5 0 1-.3 1.5-.5.5-.3.8-.7.8-1.3 0-.8 0-1.5-.6-2.2M220.7 59.4c.4-.2.5-.6.4-1 0-.7 0-1.5-.2-2.3l-1.3-2.8c-.2 1 .7 5.7 1.2 6.2M225 73.2l-.6-4c0-.2 0-.3-.2-.5-.3-.3-.6-.3-.8 0-.2.5-.3 1 0 1.3.2.7.5 1.5 1 2.2 0 .3.3.7.4 1h.2M216.6 68c-2.5 0-4 .4-4.5 1.3.4.2.8.3 1 0 1-.2 1.7-.5 2.6-.8.3 0 .5-.3 1-.6M216.5 69.4c-.8 1.7-1.7 3.3-2 5v.2c.2 0 .4-.2.4-.3l.8-2 1-3h-.3M212 63.2c1 1.5 2.6 2.5 4 3.6-1-1.4-2.2-3-4-3.6M216.2 65c-.6-1.8-1.2-3.7-2.4-5.3.6 2 1.5 3.6 2.4 5.4M217.8 67.8c1.2.8 2.4 1.2 3 1 .2-.4-.2-.6-.6-.8-.8-.2-1.6-.2-2.4-.2M217.6 66.7c1.4-1.5 2-2.8 1.7-3.7-.6.5-.7 1.2-1 1.8l-.7 2M218.5 76.5c0-2-.3-3.7-1-5.6l.7 5.5h.3M216.5 59.7c0 1.8.3 3.5.5 5.4.3-1 0-4.5-.5-5.3M218 69.4c1 1.5 1.5 3 2.4 4.5-.3-1.8-1.3-3.2-2.3-4.6" fill="#FF1343"/>
      <path d="M194 61c1 32.6 28.3 58 60.7 56.8 32.4-1.2 57.7-28.6 56.5-61C310 24 282.8-1.3 250.4 0 218 1.2 192.6 28.6 194 61" fill="#000327"/>
      <path d="M290.6 15c-.3.2-1-.4-1-.6-.8-.4-1.2-1-1-1 .4-.3 2 1.3 2 1.6M301.5 87.6c-.2.3-.6.8-.8.7-.4 0-.2-.7 0-1 0-.6.5-1.4 1-1.8 0-.2.4-.8.7-.8.5 0 .7.3.3 1l-1.2 2M276.2 47c1.6-1 3.7 0 4.4 1.7.6 1.3.3 3-1 4-1.5 1-3.2.4-4-1-1-1.5-1-3.5.6-4.6M284 55.4c1 1.5.7 3.6-.8 4.6-1.3 1-3 .3-3.8-1-.8-1.3-.7-3 .3-4 .5-.7 1.3-1 2-1 1.2 0 1.7.7 2.3 1.4.7 1-.2-.3 0 0M270 32.7c.7.2 1.4.8 2 1.4 1.2 1.5.8 3.6-.8 4.3-1.5.7-3.5 0-4.3-1.4-.8-1.3-.8-3.4.6-4 .7-.3 1.5-.6 2.3-.3M283 66.2c-1-1.4-.6-3.4.6-4.5 1.2-1 3-.6 3.8 1 .6 1.3.3 3.3-1 4.2-1 .8-2.8.5-3.5-.8-1-1.3.8 1.6 0 0M262 29.4c-.6-1.2 1-3 2.2-3 1.6-.4 3.8 1.3 4 3 0 1.5-1.5 2.4-3 2.3-1.4 0-2.4-1-3-2.3-.6-.8 1 2 0 0M288.7 73.6c-1 .8-2.6.2-3-1-.6-1.4 0-3 1-4 1.3-1 3-.8 3.5.7.6 1.5 0 3.5-1.5 4.3-1.3 1 1.5-1 0 0M283.6 37.5c-.6-1-1-2.2 0-3.2 1-1.3 2.7-.3 3.5.7 1 1 1.4 3 .2 4-1.2.8-3-.2-3.6-1.5-.8-1.3.2.7 0 0M291 51.4c-.7-1.2-1-2.8 0-4 1-1 2.7 0 3.3 1 .5 1 .7 2.5 0 3.5-1 1.4-2.8.8-3.4-.6-.7-1.2 0 .5 0 0M289.7 74.5c1-.7 2.5-.2 2.7 1 .3 1.5-.4 3-1.4 3.8-1 1-2.7.6-3-1-.3-1.3.5-3 1.7-3.8 1.4-.8-1 .7 0 0M255 19.3c-1-.7-1.5-2-.5-2.8 1-1 2.5-1 3.7-.4.8.4 1.4 1 1.6 1.8.2.7-.4 1.2-.8 1.7-1.4.8-3 .7-4-.2M279 28.3c.3-.6 1-1 1.7-.8 1.3 0 2.4 1 2.8 2 .5 1.3.6 3-1 3.2-1.4.3-2.7-1-3.4-2-.4-1-.3-1.7 0-2.4M275.8 21.8c1.3-.2 3 .6 3.6 1.6.6 1 .7 2.8-1 2.8-1.5 0-2.6-.4-3.4-1.5-.3-.3-.8-2.6.8-3M297 54.8c.6 1 .6 2.5 0 3.7-.8 1.4-2.5 1-3-.2-.7-1.2-.8-2.7 0-3.8.8-1.3 2.3-1 3 .3.6 1.2-.4-.5 0 0M296.4 65c-.7-1-.6-2.7 0-3.8.7-1.3 2.2-1.5 3 0 .3 1 .2 2.4-.3 3.4s-2 1.6-2.6.3c-.7-1.2.5.8 0 0M274.8 20.7c-1.3.3-2.6 0-3.6-1-1-.7-1.5-2 0-2.8 2-1 6.2 2.2 3.6 3.7-.2 0 .7-.5 0 0M291.8 80.2c1-.6 2.2-.3 2.3 1 0 1.3-.6 2.6-1.6 3.3-1.2.8-2.5.4-2.5-1.2 0-1.3.7-2.4 1.8-3 0-.2-1.2.6 0 0M270.6 15.7c-1.2.2-2.3.2-3.3-.6-.5-.2-1-.7-1.2-1.3 0-.7.6-1 1.2-1.3 1-.2 2.3 0 3.2.8 1 .7 1.5 1.8.2 2.5 0 0 .8-.4 0 0M298.2 70.8c-.6-1-.3-2.5.2-3.5.4-.8 1.6-1.8 2.4-.7.6 1 .4 2.4 0 3.4s-2 2.3-2.6.8M295 85c.5 1 0 2.2-.7 3-.5.7-1.7 2-2.6 1.2-1-.7 0-2.3.4-3 .7-1 1.7-1.8 3-1.2.2.5-.2 0 0 0M292.5 30c1-.4 2 .8 2.5 1.4.6 1 1 2.5.2 3-1.6 1-4.7-4-2.7-4.5M289 24.3c1 0 2 1 2.5 2 .5.5 1 2.3-.2 2.4-1.2.2-2.5-1.2-3-2-.2-.5-.8-2.3.6-2.4M284.3 21c0-.3-.4-.8-.2-1.2.3-.6 1-.6 1.4-.4 1 .3 2.2 1.2 2.7 2.2.6 1.2 0 2-1.3 1.5-1-.2-1.8-1-2.4-2 0 0 .7 1.2 0 0M300.8 76.4c-1.2.6-1.5-.5-1.5-1.5s.6-2.8 1.6-3.2c1-.5 1.3 1 1.2 1.8 0 1-.6 2-1.4 2.8-.8.4 0 0 0 0M281.2 17.3c-.5-.4-2-1.7-1-2.4.8-.6 2.3.3 3 .8.6.6 1.7 2 .8 2.4-.8.4-2-.2-2.8-1M295.7 89c0 1.2-.3 2-1 3-.4.3-1.6 1.6-2.3.8-.6-.7.4-2 .8-2.6.6-.7 1.6-1.7 2.5-1 0 .2-.5-.4 0 0M302.7 77c.2.8 0 1.8-.4 2.7-.3.5-1.5 2.2-2 1-.7-1 1-4.8 2.4-3.8.3 1.3-.4-.4 0 0M278.7 11.6c.5.3 2 1.3 1.5 2-.5.8-2.2 0-2.7-.3-.4-.2-.8-.5-1-1-.6-.4-1.2-.8-.6-1.3.5-.4 1.8 0 2.7.6M272 8.5c-.6-1 1.5-.6 1.8-.5.7 0 2 .6 2.3 1.3.6 1-1 1-1.5.7-1-.2-2-.7-2.5-1.5 0-.2 0 0 0 0M294 93.5c.2-.3 1.8-1.8 2-.8 0 1-.8 1.8-1.3 2.3-.5.5-1.8 1.5-2 .8 0-.7.6-1.6 1.2-2.3M298 27.8c.6-.2 1.4 1.2 1.7 1.6.2.5 1 2 .4 2.2-.6.3-1.6-1-2-1.7-.3-.6-.8-2 0-2.2M301 35c-.3-.5-.7-2 .2-1.8.7 0 1.3 1.4 1.5 2 .4.5 1 2 0 1.8-.7-.2-1.4-1-1.8-2M303.8 41c-.4-.7-.8-1.7-.6-2.2.4-1 1.3.3 1.6.7.4.6.7 1.4.6 2.2 0 .3 0 .7-.5.6-.5 0-.8-.6-1.2-1.3M290 17.6c-.5.5-3.6-2.5-3-3 .3-.3 3.7 2.4 3 3M283 11.3c.8-.5 4 2.2 3.5 2.5-.5.2-4-2-3.4-2.5M294.7 97.2c-.5.5-1.5 1.3-1.8 1-.4-.5 2.3-3.4 2.8-3 .2.5-.5 1.5-1 2M294.4 99c-.4.2-1.3.8-1.4.7-.2-.3 2.2-2.4 2.5-2 0 .2-.6.8-1 1.2M294.4 100c-.3.4-1 1-1.2.8 0-.3 2-2 2-1.7.2.3-.3.8-.8 1M305.6 36.3c.5 0 1.6 2.8 1.3 3-.5 0-2-2.6-1.4-3M275.2 45.6c3.8-2 .3-7.8-3-5.7-1.6.8-1.8 2.7-1 4 1 1.6 2.5 2 4 1.6 1.2-.6 0 0 0 0M287.5 44.6c.6 1.2 2.4 2 3.5 1 1-1.2.6-3-.2-4-.7-1-2.2-2-3.3-.8-1 1-.6 2.7 0 3.8.2.5-.6-1 0 0M255 14.7c1.2-.7 1.2-1.8 0-2.5-1-.6-3-.7-4 0-1.2 1-.7 2.2.5 2.7 1.2.4 2.5.3 3.6-.3.2 0-1.3.8 0 0M251.5 11c.4-.4 1-.6 1-1.2s-.6-1-1-1c-1-.5-3-.4-3.8.2-1.2 1-.4 2 .7 2.2 1 .4 2 .2 3-.3.4-.3-1 .5 0 0M299.3 46c.5.4 1.4 1.4 2 .4.7-1 0-2.8-.6-3.8-.7-1-1.8-1.3-2 0-.4 1.3 0 2.3.6 3.3 0 0-.6-1 0 0M267 10c-.6-.7-1.8-1.2-2.8-1.2-1 0-2.5.2-1.8 1.4.5 1 1.8 1.4 2.8 1.4.8 0 2.8-.2 2-1.5-.2 0 .3.6 0 0M301.5 51.7c.5.8 1.4 1.7 2 .6.6-1 .3-2.5 0-3.4-.6-1-1.7-2-2.2-.5-.4 1-.2 2.2.2 3.2.5 1-.4-1 0 0M296.8 36c-.5-.2-.8 0-1 .2-.4.7-.4 1.6 0 2.4.2.8 1.5 2.7 2.6 2 .8-.7.4-2 0-2.6-.2-.7-.7-1.7-1.6-2M248.4 8c.8-.7 1-1.4 0-1.8-1-.3-2.6-.2-3.5.3-1.2.6-.8 1.4.3 1.7 1 .3 2 0 3-.3.3-.3-1 .3 0 0M305 54.3c-.6-1-1.3-.7-1.7.4-.3 1-.2 2.4.3 3.3.7 1.2 1.6.4 1.8-.6.2-1 .2-2-.3-3 0-.3.6 1 0 0M261 8.2c.7 0 2.7 0 2.4-1-.2-.8-1.8-1.2-2.5-1.3h-1.6c-.6.2-1 1-.3 1.4.3 0 1 .6 2 .8M306.4 60c-.6-1.2-1-.5-1.4.3-.3 1-.4 2 0 3 0 .4.2 1 .8.7.5 0 .6-.8.8-1.2.3-1 .2-2-.2-3-.4-.6.5 1.2 0 0M259.6 5.2c1-.5-1-1.3-1.3-1.3-.6-.3-2.3-.5-2.8 0-.7 1 1 1.3 1.5 1.4.8 0 1.8 0 2.6-.2.3 0 0 0 0 0M307 64.5c-1 .6-1.2 1.5-1.3 2.4 0 .4 0 2 .7 2s1-1.6 1-2c.2-1 0-2-.5-2.5-.3 0 0 0 0 0M244.2 6c.5 0 2.2-.6 2-1.2 0-1.2-5-.4-4.4.7.3.6 1.6.6 2.4.5M302.4 81c-.7.5-1.2 1.2-1.5 2-.3.4-1 2 0 2s3-4 1.4-4c-1 1 .5 0 0 0M295 25.3c.4.4 1.5 1.6 2 1.3.7-.5-.4-2-.7-2.2-.6-.7-1.7-2-2-1.5-.5.3.2 1.6.8 2.3M292.5 19.5c-.4-.3-1.5-1.3-2-.7-.3.7 1 1.7 1.4 2 .5.7 1.5 1.3 2 1 .3-.3-.8-1.7-1.5-2.3M270.3 7c.8 0 2.4.3 2.2-.2-.8-1-3.6-2-4.3-1.5-.5.3 1.3 1.3 2 1.6M307 45.3c0-.4-.5-2.2-1.2-1.7-.5.3-.2 1.6 0 2 0 1 .7 2.3 1 2.3.5-.2.5-1.8.3-2.7M307.7 69.3c-.8 0-1 1-1.3 1.6 0 .4-.5 2 0 2.4.3.4.5 0 .7-.4.3-.3.4-.7.5-1 .3-1 .3-1.8.2-2.7-1 0 .2 1.6 0 0M308.7 51c0-.5-.6-2.3-1-2.3-.5 0-.3 1.8-.3 2 0 1 .5 2.4 1 2.4.4 0 .4-1.4.3-2M241.5 3.2c-.4 0-1.7.2-1.7.8 0 .7 1.5.4 2 .3 1 0 2.6-.7 2.2-1-.4-.5-1.7-.3-2.5 0M309 58c.7 0 .7-1.4.7-2 0-.8-.3-2-.8-2.3-.6 0-.3 4 0 4.3M268.6 4.5c0-.4-1-.8-1.8-1-.7-.2-2-.3-2 0-.2.4 3.4 1.6 3.8 1M306.4 77.5c.7-.2.8-1 1-1.8.2-.7.4-1.4.2-2-1.2.6-1.4 2.6-1.2 3.8.5-.2-.2-1 0 0M279.3 8.4c-.3.6 3 2.4 3.5 2 .5-.3-3-2.3-3.5-2M309.8 58.8c-.5 0-.5 3.6 0 3.7.5 0 .6-3.6 0-3.7M300.7 27.3c-.2.5 1.4 3 2 2.8.4 0-1.2-3-2-2.7M303.5 31.6c-.4.3 1 3 1.4 3 .4-.5-1-3.2-1.5-3M298 23c-.8.5 1.5 3 2 2.8.3-.3-1.6-3-2-2.8M275.7 6c-.3.7 2.6 2 3.2 1.6 0-.4-3-2-3.3-1.5M272.2 4.7c0 .5 2.4 1.2 2.7.7 0-.3-2.5-1-2.8-.7M307.2 77.6c-.6.2-1.6 3-1.2 3.2.7 0 1.5-3 1.2-3.2M309.8 66.7c.5-.3.8-3.5.4-3.6-.5 0-.8 3.4-.4 3.7M308.7 44.2c.2-.4-.5-3.3-1-3.3-.6.3.5 3.3 1 3.2M296.8 21.6c.4-.3-1.6-2.6-2-2.5-.4.6 1.4 2.6 2 2.6M293.5 18c.2-.5-1.6-2.3-2-2-.2.4 1.6 2 2 2M309 45.7c-.5.3 0 2.6.6 2.7.3 0 0-1 0-1.6-.2-.7-.4-1-.6-1M263.4 24.6c.4-.5.7-1.3.5-2 0-.2-.4-.5-.6-.8-1-1-2.8-1.5-4-1-1.5.7-2 2.2-1 3.4 1 1 2.7 1.6 4 1 .4 0 .8-.2 1-.6M245.7 116.5c0-.2.7 0 1.2 0 0 0 .6 0 .7.2.4.3 0 .3-.2.3-.6 0-1.8 0-1.8-.5M241.5 115.2c.2-.2 1.7 0 2 .2.6 0 1.8.2 1.7.6 0 .3-2 0-2.4 0-.2-.2-1.7-.3-1.3-.8M245 25.8c-1.4.6-3.3.8-4.3-.5-.8-1-.4-2.5.7-3.2 1-.8 3-1 4 0 1.6 1 1 3-.5 3.8-1 .5.4-.3 0 0M247 63.7c-1.7 1-2.3 2.8-1.6 4.5 1 1.8 3 2.5 4.8 1.6 1.7-.8 2.4-3 1.5-4.7-1-1.6-3-2.2-4.8-1.3-2 1 1.6-1 0 0M242.5 56c-1.7 1-2.3 3.5-1 5 1 1.6 3 2 4.7 1 1.5-1 2-3 1-4.7-1-1.6-3-2.3-4.7-1.2-1.6 1 1.5-1 0 0M261 59.8c.8 1.6 2.7 2.2 4.3 1.5 1.7-.8 2.4-2.6 1.8-4.4-.5-2-2.7-3-4.6-2-1.8.8-2.4 3-1.4 4.8.7 1.4-1-1.7 0 0M261.4 53.4c1.6-1 2.2-3.2 1-4.8-1-1.6-3.3-2-5-1-1.3 1-1.6 3-.8 4.5 1 1.7 3.2 2.5 4.8 1.4 1.6-1-1.5 1 0 0M237 53.3c1 1.6 3 2 4.7 1 1.6-.8 2.2-3 1.3-4.6-1-1.5-3-2-4.6-1.2-1.6 1-2.2 3.2-1.3 4.8 1 1.6-.8-1.7 0 0M251 71.4c-1.5 1-2 3-1 4.6 1 1.5 3 2 4.7 1 1.5-.8 2.2-3 1.2-4.5-1-1.6-3.2-2-5-1-1.5.8 1.8-1 0 0M252.3 44.7c1 1.5 3 2 4.7 1.2 1.6-1 2.2-3 1.2-4.6-1-1.6-3.2-2.2-4.8-1.3-1.6 1-2 3.2-1 4.7 1 1.7-1-1.5 0 0M269.6 68.5c1.7-.6 2.2-3.2 1.3-4.7-1-1.6-3.2-2-4.7-1s-2 3-1.2 4.6c1 1.6 3 2 4.6 1 1.5-.5-1.7 1 0 0M237.4 47c1.5-.8 2.4-2.4 1.8-4-.6-1.6-2.3-2.4-3.8-2-1.8.7-3 2.7-2.4 4.5.7 1.7 2.8 2.6 4.4 1.5 1.3-.7-1 .7 0 0M248 37.4c1 1.5 3 2 4.6 1.3 1.8-1 2.3-3.2 1-4.7-2.3-2.7-7.5 0-5.5 3.4.7 1.2-.6-1.2 0 0M260 79.8c-.8-1.8-3.3-2-4.8-1s-2 3-.8 4.3c2.2 3 7.7 0 5.7-3.2-.2-.7.5.7 0 0M231.2 76c.8 1.5 2.5 2.3 4 1.7 2-.7 2.4-3 1.4-4.6-1-1.3-2.8-2-4.3-1.2-1.6 1-1.7 2.8-1 4.2.8 1.6 0 0 0 0M227.3 69.2c1 1.4 2.8 2 4.2 1 1.6-1 1.7-3.2.7-4.7-.8-1.3-2.6-2-4-1-1.8 1-1.8 3-1 4.7.6.7-.5-1 0 0M273 75.8c1.3-.8 2.3-2.2 2-4-.4-1.5-2-2.6-3.8-2-1.7.4-3 2.3-2.4 4 .4 2 2.4 2.8 4 2 1.8-1-.7.4 0 0M226.8 63c1.5-.7 2.3-2 2-3.7-.3-2-2.5-3.3-4.3-2.3-1.4.8-2 2.7-1.4 4.2.6 1.3 2.4 2.8 3.8 2 1.7-1-.7.3 0 0M235.4 83c1 1.4 2.8 2.3 4.4 1.6 1.7-.7 2.2-2.6 1.3-4-.7-1.4-2.4-2-4-1.7-.8 0-1.4.6-1.7 1.4-.3 1 0 1.6 0 2.5 1 1.5 0-.3 0 0M231.3 35c-1.5.8-2.3 2.6-1.5 4.2.7 1.5 2.8 1.6 4 .8 1.3-.7 2-2.2 1.7-3.6-.4-2-2.7-2.4-4.2-1.5-1.3.7.7-.5 0 0M262.6 90c1.5-.7 2.2-2.7 1-4-1-1.4-3-1.4-4.3-.6-1.3.8-2 2.5-1.2 3.8 1 1.5 3.2 1.6 4.6.8.6-.3-1 .5 0 0" fill="#FF1343"/>
      <path d="M244 30.8c1.8 3.2 7.8.7 6-2.6-1.7-3.2-7.8-.8-6 2.6.8 1.3-.5-1 0 0M221.3 50c-1.4.8-2 2.7-1.5 4.3.6 1.6 2.4 2.3 4 1.3 1.2-1 1.7-2.5 1.2-4-.5-1.6-2-2.5-3.7-1.6-1.7 1 1.4-.8 0 0M244.5 90.7c1.4-.8 1.8-2.5.7-3.7-1-1.2-2.8-1.8-4.3-1-1.7.8-2 2.6-.8 4 1 1.2 3 1.6 4.3.7 1.6-.8-1.8 1 0 0M276.3 82c1.3-.7 2.3-2.2 1.8-3.8-.4-1.6-2.3-2.2-3.7-1.3-1.4.7-2.5 2.4-1.8 4s2.3 1.7 3.8 1c1-.5-.2.2 0 0M221.6 44.2c-2-3.4-6.3 1.3-4.3 4 2 3 5.8-1.4 4.3-4-.6-1 1 1.7 0 0M245 92.3c-1.3.8-1.6 2.3-.7 3.4 1 1.2 3 1.6 4.5.8 1.2-.7 1.5-2.3.6-3.4-1-1-3-1.5-4.5-.7-1.4.8 1.2-.7 0 0M230.4 33.7c1.3-.6 2.4-2.2 1.8-3.7-.8-1.7-2.7-1.5-4-.6-1.2.7-2 2.4-1.4 3.7.8 1.5 2.3 1.3 3.6.7.8-.4-.3 0 0 0M266.2 95.2c1-1 2-2.2.8-3.5-1-1-2.7-1-4-.4-1 .7-2.2 2.5-1 3.7 1 1.3 3 1 4.2.2.2-.2-1 .6 0 0M216 75.6c.5 1.2 2 2.3 3.4 1.5 1.4-.8 1.2-3 .3-4.2-.8-1-2-1.8-3.3-1-1.3.7-1.3 2.7-.5 3.8.3 1-.5-.6 0 0M280.8 84c-.7-1.5-2.4-1.5-3.6-.7-.6.3-1 1-1.4 1.5-.4.8-.6 1.5-.3 2.2 1.2 2.5 6.6-.2 5.3-3M223.8 80.2c-.6-1.2-2-2.3-3.5-1.7-1.4.6-1.4 2.4-.8 3.5.6 1.2 2 2.2 3.3 2 1.7-.2 2-2.6 1-3.8-.4-1 .4.5 0 0M223.8 88.5c.7 1.3 2.5 2.3 4 1.6 1.2-.6 1-2.3.2-3.4-.8-1-2.2-2-3.5-1.5-1.7.6-1.4 2.3-.7 3.5.5 1-.2-.2 0 0M215.7 70.2c1-1 1.3-2.5.7-4-.5-1.2-2-2.3-3.4-1.3-2.2 1.6-.2 6.8 2.7 5.2 0 0-1 .5 0 0M217.4 42.5c1.3-.6 2-2.3 2-3.7-.3-1.5-1.7-2-3-1.3s-2 2.2-2 3.6c.4 1.5 1.8 2.2 3 1.5 1.3-.7-1.3.8 0 0M209.8 62.6c.7 1.2 2 1.5 3 .4 1-1 1-2.6.4-3.8-.5-1.2-2-2-3-1s-1.3 3.2-.4 4.4c0 0-.7-1 0 0M248.8 98c-.6.6-1 1-1 2 .2.6.8 1 1.3 1.4 1.4.6 3.2.5 4.2-.5s.6-2.2-.4-3c-1.2-.8-2.7-.6-4 0-.2.2 1.4-.8 0 0M232.3 92.8c-.8-1-2.6-2-4-1.3-1.7.8-.8 2.7.3 3.6 1 1 2.6 1.5 3.8.6 1-.8.4-2 0-2.8-.6-.7 0 .4 0 0M227.5 28.2c1.2-.6 2.5-2.2 2-3.6-.8-1.3-2.7-1-3.7-.3s-2 2-1.6 3.2c.5 1.6 2.3 1.3 3.3.7 1-.5-.7.4 0 0M241.6 20.5c1-.8 2-2 .8-3.2-1.3-1-3-.4-4.2.4-1 .6-1.6 2-.4 3 1 .8 2.6.4 3.8-.2.2-.2-1.2.6 0 0M266.2 96.6c-1 .6-2 2.2-1 3.3 1 .7 2.7.5 3.7 0 1-.7 2-2.2 1-3.3-.8-1-2.6-.7-3.8 0-.4.2 1-.6 0 0M283.2 89.6c-.2-1.5-2-1.5-3-1-1.2.6-2.3 1.8-2.2 3.2.2 1.6 2 1.6 3 1 1.3-.5 2.4-1.8 2.2-3.2M236.8 98.6c-.7-1-2.2-1.7-3.5-1.6-1.4 0-2 1.4-1.2 2.6.8 1 2.2 1.6 3.5 1.5 1.4 0 2.2-1.2 1.3-2.4-.7-1 .8 1 0 0M210.5 52.5c-.3-.5-.6-1-1.2-1-.6-.2-1.3.3-1.7.8-.8 1-1 2.6-.3 3.7.7 1.5 2 1.4 3 0 .7-1 .8-2.3.2-3.5-.2-.3.6 1.3 0 0M215.4 36.7c1-.8 2-2 1.8-3.4-.2-1.5-1.7-1.7-2.7-1-1 .8-1.8 2-1.7 3.3 0 1.6 1.4 1.6 2.6 1 1-.7-.3.2 0 0M252.4 103c-1.2.8-.8 2 .5 2.5 1 .5 2.5.4 3.6-.4 1-.7.7-2-.5-2.5-1-.5-2.5-.3-3.6.4 0 0 1.4-1 0 0M207.4 50.6c1-.8 1.5-2 1.3-3.3 0-1.4-1.2-2.4-2.4-1.3-1 .8-1.2 2.3-1 3.4 0 1.2 1 2 2 1.2 0 0-.8.7 0 0M238.5 16c1-.3 2-1.6 1-2.5-1-.8-3-.4-3.8.3-1 .6-1.8 1.8-.6 2.6 1 .7 2.6.3 3.5-.3.6 0-1 .7 0 0M240.4 103c-1-1-2-1.2-3.2-1-1.5.2-1.7 1.6-.6 2.5 1 1 2.5 1.2 3.7.8 1-.4 1-1.6 0-2.4M225.3 23.5c1-.6 2-1.7 1.8-3-.2-1.4-2-.8-3-.3-.8.5-2 1.8-1.7 3 .4 1.3 2 .5 3 .3.8-.5-.6 0 0 0M271.4 103.5c.8-.5 2.3-1.8 1-2.8-.8-.7-2.4-.3-3.3.2-.8.3-2 1.6-1 2.6.8 1 2.5.4 3.4 0 .5-.5-1 .4 0 0M282.3 93.3c-1 .7-2.4 1.7-2 3 .2 1.3 1.7 1 2.6.6 1-.6 2-1.8 2-3 0-1.5-2-1-2.7-.7-1 .6.3 0 0 0M211.2 86.3c.5.8 1.8 2.3 3 1.8 1-.4.5-2 0-2.8-.4-.8-1.3-2-2.4-2-1.5 0-1 2.2-.6 3 .5 1-.3-.4 0 0M207 71.8c-.5-.7-1.5-1.6-2.2-.4-.6 1.3 0 2.6.6 3.7.8 1.3 2.2 1.4 2.5-.2 0-1-.3-2-1-3 0 0 .4.5 0 0M210.6 78.7c-.5-.7-1.5-2-2.5-1.4-1 .6-.5 2.3 0 3.2.4.8 1.7 2.3 2.7 1.5 1-.7.3-2.5 0-3.3-.5-.6 0 .3 0 0M218.3 91.4c-.6-1-1.6-2.2-2.8-2.2-1.5 0-1 1.8-.6 2.6.4 1 1.5 1.8 2.6 2 1.5 0 1-1.6.7-2.4-.5-1 0 .2 0 0M213.5 31.7c1-.5 1.8-1.5 2-2.7.2-1.4-.8-2-2-1.3-1 .6-2 2-2 3 0 1.4 1 1.6 2 1 1.2-.6 0 0 0 0M203 64.6c-1 .7-1 2-.7 3 0 .7 1 2.8 2 2.2 1.8-1 .8-5.4-1.3-5.2-.6.5.7 0 0 0M256 106.5c-.4.3-.8.6-1 1 0 .7.5 1 1 1.3 1 .4 2.6.3 3.5-.3 1.2-.8 1-1.8-.2-2.2-1-.4-2.3-.2-3.3.2-.5.4 1.2-.5 0 0M222.5 97c-.7-1-1.7-2-3-2.2-1.3-.3-1.4 1-.8 2 .5 1 1.5 1.7 2.6 2 .5 0 1 0 1.4-.4.2-.5 0-1-.2-1.5-.7-1 0 0 0 0M205.8 45c.8-.7 1.3-1.7 1.4-2.8 0-1.2-.5-2.5-1.8-1.6-1 .6-1.4 2-1.4 3s.5 2.2 1.8 1.4c0 0-1 .6 0 0M241.4 108.8c1 .3 2.7.7 3.5-.2.6-1-.6-1.8-1.3-2-1-.5-2-.6-3.2 0-1.4.4 0 2 1 2.2M220.8 19.4c.3 1 2 .6 2.6.2.8-.5 2-1.5 2-2.5-.2-1.3-2.2-.5-3-.2-.5.4-1.8 1.6-1.6 2.6M233.2 13.3c1 .2 2-.2 3-.7.5-.3 1.7-1.4.8-2-1-.8-2.7-.2-3.3.2-.6.3-2.3 2-.5 2.5M273.4 106.3c.7-.3 2-1.5 1.2-2.2-.8-.6-2.5 0-3.3.5-.6.4-2 1.5-1 2.2 1 .6 2.3 0 3-.4.7-.2 0 0 0 0M286.2 97.5c-.2-1.2-2-.5-2.6 0-.8.4-1.7 1.2-1.8 2.2 0 1.5 1.4 1 2.4.4s2-1.5 2-2.5M200.8 63.2c.8 1 1.6.7 2-.5.3-1 .2-2.3-.3-3.2-.6-1.2-1.6-1-2 .3-.3 1.2-.2 2.3.3 3.4 0 0-.6-1.4 0 0M226.6 101.8c-.6-1-1.5-1.6-2.5-2-1-.2-2.2.4-1.4 1.6.6 1 1.8 1.7 2.8 2 1.3 0 1.8-.6 1.2-1.6-.7-1 0 0 0 0M212.5 27.5c.8-.6 1.5-1.3 1.8-2.3.4-1.2-.3-2-1.5-1.2-.8.6-1.5 1.4-2 2.3 0 .5-.2 1 .3 1.5.5.3 1 0 1.5-.3 1-.6-.3.2 0 0M204.4 40.2c1-.5 1.4-1.6 1.7-2.5.2-.7.3-2.4-1-2-.8.3-1.4 1.7-1.6 2.5-.2.7-.3 2.7 1 2M259 109.6c-1 .6-1.2 1.5 0 1.8 1 .2 2.2 0 3-.4 1-.4 1.6-1.3.4-1.8-1-.3-2.4 0-3.4.4-.2 0 1-.4 0 0M248.2 111.6c1.2-.7-.5-1.6-1.2-1.8-.8-.2-2.4-.4-3 .3-1 1 .7 1.6 1.3 1.8 1 .2 2 .3 3-.2.4-.3-1 .6 0 0M199.3 57.6c.7 1.2 1.6-.2 1.8-1 .4-1 .5-2.4-.2-3.2-.8-1-1.5.5-1.7 1.2 0 1 0 2 .3 3M229.3 107c1 .3 2.4 0 1.3-1.2-.6-.8-1.6-1.3-2.5-1.5-1-.2-1.8 0-1.3 1.3.2.4 1.6 1.3 2.6 1.5M224 14.2c-.5-1-2-.2-2.6.2-.5.3-1.6 1.3-1.6 2 0 1 1.2.5 2.3 0 1-.5 2.2-1.5 2-2.2M275.2 108.3c.5-.2 1.8-1.3 1-1.8-1-.4-2.4.3-3 .7-.6.3-1.8 1.4-.8 1.8 1 .4 2-.2 2.8-.7.4-.2-1 .6 0 0M232.5 8.4c-.6.2-2.2 1-1.8 1.8.3.8 1.8.4 2.4 0 .6 0 1-.4 1.5-.6.4-.4 1-.8.8-1-.3-.7-1.8-.6-2.8-.2M287 100.4c-.2-1-1.8-.2-2.3 0-.6.5-1.8 1.5-1.7 2.3.2 1 1.6.2 2.3-.3.7-.5 1.8-1.2 1.7-2M234.6 110.3c1-.6-.5-1.5-1-1.8-1-.5-2.5-1-3-.5-.7 1 3 3 4 2.3M198.7 52.8c1-.6 1.2-1.3 1.4-2.3.2-.6.4-2.3-.4-2.5-1 0-1.3 1.6-1.4 2-.2 1.2 0 2 .5 2.8.4-.2-.2-.4 0 0M204.7 82.6l-.7-1c-.2-.3-.8-.8-1.2-.7-.7.3 0 2 .2 2.4.4 1 1.4 2.3 2 2 .6-.5 0-2-.3-2.8M205.8 86.4c-.8.3 0 2 .2 2.3.4.6 1.2 1.7 2 1.7 1 0 .3-1.6 0-2.4-.4-.7-1.6-1.8-2.2-1.6M212.6 21c-.8.5-1.5 1.2-2 2-.4 1 0 1.7 1 1 .8-.4 1.5-1 2-2 0-.2.4-.7 0-1-.2-.4-.7 0-1 0-1 .6 0 0 0 0M209.6 94c.4.4 1.7 1.8 2.3 1 .3-.4-.7-1.8-1-2.2-.6-.7-1.8-1.5-2.3-1.2-.4.4.3 1.7 1 2.4M205.2 34c.2-.4 1-2.2 0-2.3-.6 0-1.4 1.2-1.7 1.7-.4.7-1 2.6-.2 2.5.6 0 1.5-1 2-2M262.6 111.6c-.5 0-2.4.7-1.6 1.4.6.6 1.8.3 2.5 0 .8 0 2.2-.8 1.8-1.3-.3-.6-1.8-.4-2.7 0M264.8 113.4c-.4 0-2 .6-1.4 1.2.3.2 1.5 0 2-.2.7-.2 2-1 1.6-1.3-.2-.2-1 0-2.2.4M249.4 112.3c-.6 0-2.6 0-2 1 .4 1 4.5 1.2 4.5-.2-.3-.5-1.7-.7-2.6-.7M200.8 78.7c.4.5 1.3 1.8 1.6.5.2-1-.2-2-.7-2.7-.3-.5-1.2-1.6-1.5-.5-.3.8.2 2 .6 2.7.3.4-.5-.8 0 0M213.8 99c.4.3 1.7 1.4 2 .4 0-.6-1-1.6-1.4-2-.6-.5-1.5-1.3-2.2-.7-.2.5.8 1.8 1.6 2.4M198.6 70c-.7 0-.5 1.3-.3 2.3 0 .4.2.7.3 1 .3.6.5 1 1 1 .8 0 0-4.2-1-4.4M233.4 6.7c-.3-.6-4.5 1-4.2 1.8.5.8 4.6-1 4.2-1.8M219.2 14.6c.7.5 1.7-.3 2.5-1 .3-.2 1.6-1.2 1-1.7-.4-.5-1.8.4-2 .6-.8.5-1.5 1-1.5 2 .4 0 0-.3 0 0M199.4 45.5l.2-1.2c0-.2 0-.5-.2-.7-.3-.2-.2-.2-.5 0-1 .6-2 3.6-.7 4.3.8-.8 1-1.6 1-2.5M196.7 66.8c0 .5.3 2.2 1 2 .7 0 .5-1.5.5-2 0-1-.5-2.2-1-2.3-.8 0-.6 1.4-.5 2.3M236.7 111.3c-.5-.2-1.7-.5-2.2 0-.6.6 1.3 1.3 1.8 1.4 1 .3 2.4.3 2.5 0 .2-.6-1.3-1.2-2-1.4M216 101c-.2.7.7 1.4 1.3 2 .4.2 1.7 1.2 2 .7.6-.5-.7-1.6-1-2-.7-.4-1.4-1-2.3-.8 0 .4 0 0 0 0M286.3 104c.4-.3 1.3-1 1-1.6 0-.5-1.7.4-2 .7-.7.6-1.6 1.5-1.4 2 0 .6 1.6-.4 2.3-1M273.6 110.4c.5.4 1.6 0 2.2-.2.4 0 2-1 1.8-1.5-.3-1-4 .7-4 1.7M275.3 111.7c.4.3 1.3 0 1.8-.3.5 0 2-1 1.8-1.4-.2-.8-3.4 1-3.5 1.7M276.8 112.6c.2.2 1 0 1.5-.3.3 0 1.5-.8 1.5-1 0-.7-3 .8-3 1.3M205 30.6c0-.4 1-1.8.3-2.2-.4-.2-1.4 1.3-1.6 1.6-.4.7-1 2-.5 2.2.4 0 1.2-1 1.7-1.6M211.3 19.8c-.5.5-1 1.4-1 1.8.4.3 3.4-2.4 3-3 0-.5-1.5.7-2 1.2M252.5 115.6c.7 0 2.3-.2 2-.7-.4-1-4-.7-4.2 0 0 .3 1.4.6 2.2.6M196.8 61.6c0-1 0-2.3-.8-2.3-.6.4-.4 4.5.3 4.4.6 0 .6-1.4.5-2M223.3 107.2c.3-.5-.8-1.3-1.3-1.7-.7-.5-2-1-2.2-.8-.5.6 3.3 2.8 3.5 2.5M199 41.8c.2-.4.8-2 .4-2.3-.5-.4-1 1-1.2 1.4-.3.7-.7 2.2-.3 2.4.2 0 .8-1 1-1.6M239.6 114.6c.5 0 2 .4 2.3 0 .5-.4-1.2-.8-1.6-1-.8 0-2-.4-2.4 0-.4.2 1 .8 1.6 1M195.3 58.8c.5-.2.6-1.2.7-2v-1.3c-.2-.5-.3-.8-.7-1-.5.3-.5 4 0 4.3M222 10.7c-.5-.2-1.3.2-2 .7-.4.4-1.6 1-1.3 1.4.4.4 3.7-1.6 3.3-2M221 9.8s-1 .3-1.3.6c-.4.4-1.3.8-1 1 .2.4 2.7-1.2 2.4-1.6M225.5 108.6c-.6-.4-1.6-1-2-.7.6 1.2 3 2.2 3.5 2 .4-.4-1-1.2-1.5-1.4M232 5.8c-.3-.4-4 .8-3.8 1.4.4.4 4-1 3.8-1.4M202 86.7c.4-.8-1-3.5-1.6-3.4-.7.4 1 3.4 1.7 3.4M204.8 91.2c.3-.4-1-3-1.8-3-.6.3 1 3 1.8 3M203.6 28.8c.3.3 2.8-2 2.2-3-.2-.3-3 2-2.2 3M285.7 105c-.5.5-1.5 1.2-1.3 1.5.3.6 3.5-1.6 3.2-2.3 0-.3-1.3.4-2 1M212.2 17.3c-1 1-1.8 1.7-1.6 2 .2.3 1.7-.8 2.2-1.5.2-.2 1-1 .5-1-.2-.2-.6.2-1 .5M211.8 16c-.7.8-1.2 1.4-1 1.7 0 .2 1.2-.8 1.7-1.2.2-.2.8-.6.6-1l-1.2.6M198.2 39.5c.3 0 1-1.4 1.3-2.2 0-.3.3-.8.2-1 0-.3-2.3 3-1.5 3.2M199 36c.6-.4 1-1 1-1.8l.3-1S199 34.8 199 36M253 116.2c0 .5 4.4.2 4.2-.2-.4-.7-4-.3-4.3.2M198.3 80l1 2c.7.3.3-1 .2-1.3-.3-.8-1-2.3-1.3-2.3-.3.2 0 1 0 1.5M205.6 92.6c-.4.5 1.6 2.8 2 2.8.3-.5-1.4-3-2-2.8M195 54c.5-.5 1-3.5.3-3.6-.5.4-.8 3.4-.4 3.6M197.6 77c.4-.4-.4-3.3-1-3.5-.6.5.3 3.7 1 3.6M230.6 112.2c0-.5-2.8-2-3.3-1.5-.2.6 2.8 1.8 3.3 1.5M208.8 96.8c-.5.6 2.3 3 2.4 2.7 0-.6-2-3.2-2.4-2.7M230.5 5c-.4-.3-3.3.8-3 1.4.4.2 3-1 3-1.3M212.2 100.8c-.2.4 2 2.4 2.4 2 0-.6-1.7-2.2-2.4-2M205.6 25c.2-.3.8-1 .6-1.4-.2-.3-1 .7-1 1-.4.4-1 1-.8 1.2.2.3 1-.5 1.2-1M231 113c0 .4 2.7 1.5 3 1 0-.3-2.6-1.5-3-1M285 107.6c.4.3 3-1.3 2.6-1.8-.3 0-2.7 1.4-2.5 1.8M195.4 69c-.4.3 0 3 .5 3.2.3-.4-.2-2.8-.6-3M195.4 46.8c-.4 0-.8 2.6-.5 2.7.4 0 .8-2.5.4-2.7M256 117c.3.4 2.8.2 3-.3-.2-.4-3 0-3 .2M266.5 114.7c-.4.2-1.6.6-1.3 1l1.6-.4c.6-.2 1.8-1 1.4-1-.2 0-.8 0-1.7.4M194.8 65c-.5.2-.2 2.6.2 2.8.5-.2.2-2.8-.2-2.8M301.5 89.6c-.4.4-1.2 1.2-1.4 1-.2-.3 2.2-2.8 2.5-2.6 0 .3-.5 1.2-1 1.6M301.3 91.3c-.4.4-1 1-1.2 1 0-.4 2-2.4 2-2.3.2.3-.3 1-.7 1.3M253.2 2c-.8.2-1.2.4-1.2.6.5 1 2.7 1 3.7.7.3 0 .7-.2.5-.6l-.7-.4c-.8-.2-1.3-.3-2.3-.2M252.4 1.8c.5-.2.5-.5 0-.6l-1-.3c-.6 0-1.7 0-2 .2-.8.6 1 .8 1.4.8.7 0 1 0 1.6-.2M249.4 1c.3-.3.3-.4 0-.5l-1-.2c-.4 0-1.6 0-1.8.3-.4.4.5.4 1.3.4h1.4M261 1.8c-.6.3 1 1 1.8 1 .3 0 1.8.3 1.8 0 0-.6-3-1.2-3.6-1M239.2 2.5c-.8.2-1.5.4-1.5.8s3.8-.2 3.6-.7c0-.3-1.4-.3-2 0M261 1.2c0-.3-2-1-2.8-.4-.2.3 2.7 1 3 .4" fill="#FF1343"/>
    </g>
  </g>
</svg>
