<?xml version="1.0" encoding="UTF-8"?>
<svg width="200px" height="77px" viewBox="0 0 200 77" version="1.1" xmlns="http://www.w3.org/2000/svg" xmlns:xlink="http://www.w3.org/1999/xlink">
    <!-- Generator: Sketch 42 (36781) - http://www.bohemiancoding.com/sketch -->
    <title>Group</title>
    <desc>Created with Sketch.</desc>
    <defs></defs>
    <g id="Page-1" stroke="none" stroke-width="1" fill="none" fill-rule="evenodd">
        <g id="Desktop-&gt;-navigate" transform="translate(-621.000000, -193.000000)">
            <g id="Group" transform="translate(621.000000, 193.000000)">
                <path d="M34.6732087,61.3634354 L36.0193146,59.7530866 C36.9501558,60.521549 37.9264798,61.0084493 39.1093458,61.0084493 C40.041433,61.0084493 40.6037383,60.6391518 40.6037383,60.0337154 L40.6037383,60.003848 C40.6037383,59.4279679 40.2485981,59.1330277 38.5180685,58.689684 C36.4327103,58.1582938 35.0872274,57.5821025 35.0872274,55.52841 L35.0872274,55.499476 C35.0872274,53.6243655 36.5959502,52.3833142 38.7105919,52.3833142 C40.2190031,52.3833142 41.505296,52.8559031 42.5554517,53.6977894 L41.3722741,55.4114295 C40.4551402,54.7755035 39.5529595,54.3918945 38.6806854,54.3918945 C37.8080997,54.3918945 37.3498442,54.7907483 37.3498442,55.2928934 L37.3498442,55.3224496 C37.3498442,56.00131 37.7931464,56.2231374 39.582866,56.6811037 C41.6831776,57.2274275 42.8660436,57.9806452 42.8660436,59.7823318 L42.8660436,59.8121991 C42.8660436,61.8652694 41.2984424,63.0167185 39.065109,63.0167185 C37.4975078,63.0167185 35.9155763,62.4700835 34.6732087,61.3634354 Z" id="Fill-1" fill="#FFFFFF"></path>
                <path d="M53.7224299,57.7295726 L53.7224299,57.7000164 C53.7224299,55.9281972 52.4208723,54.4506959 50.5869159,54.4506959 C48.753271,54.4506959 47.4813084,55.8986409 47.4813084,57.6704601 L47.4813084,57.7000164 C47.4813084,59.4724578 48.782866,60.9496479 50.6165109,60.9496479 C52.4501558,60.9493368 53.7221184,59.5020141 53.7224299,57.7295726 Z M45.1006231,57.7295726 L45.1006231,57.7000164 C45.1006231,54.760881 47.4221184,52.3534469 50.6165109,52.3534469 C53.811215,52.3534469 56.1031153,54.7319469 56.1031153,57.6704601 L56.1031153,57.7000164 C56.1031153,60.6391518 53.7809969,63.0462748 50.5869159,63.0462748 C47.3928349,63.0462748 45.1006231,60.668708 45.1006231,57.7295726 Z" id="Fill-3" fill="#FFFFFF"></path>
                <polygon id="Fill-5" fill="#FFFFFF" points="58.7224299 52.5307843 60.8221184 52.5307843 65.6732087 58.8965777 65.6732087 52.5307843 67.9205607 52.5307843 67.9205607 62.8689373 65.9834891 62.8689373 60.970405 56.2971836 60.970405 62.8689373 58.7224299 62.8689373"></polygon>
                <path d="M70.8211838,57.7295726 L70.8211838,57.7000164 C70.8211838,54.760881 73.1133956,52.3534469 76.2489097,52.3534469 C78.1115265,52.3534469 79.2358255,52.8559031 80.3152648,53.7709022 L78.8806854,55.499476 C78.082243,54.8352383 77.3722741,54.4506959 76.1747664,54.4506959 C74.5186916,54.4506959 73.2015576,55.9129523 73.2015576,57.6704601 L73.2015576,57.7000164 C73.2015576,59.5906828 74.5037383,60.9792042 76.3373832,60.9792042 C77.1657321,60.9792042 77.9046729,60.7719993 78.4813084,60.3588341 L78.4813084,58.8810218 L76.1897196,58.8810218 L76.1897196,56.9169314 L80.6850467,56.9169314 L80.6850467,61.4073031 C79.6202492,62.3079908 78.1560748,63.0462748 76.2635514,63.0462748 C73.0392523,63.0462748 70.8211838,60.786933 70.8211838,57.7295726 Z" id="Fill-7" fill="#FFFFFF"></path>
                <path d="M88.628972,57.7295726 L88.628972,57.7000164 C88.628972,54.760881 90.8470405,52.3534469 94.0267913,52.3534469 C95.9778816,52.3534469 97.1470405,53.0033732 98.1087227,53.9491731 L96.658567,55.617701 C95.8598131,54.8937285 95.0464174,54.4506959 94.011838,54.4506959 C92.2666667,54.4506959 91.0096573,55.8986409 91.0096573,57.6704601 L91.0096573,57.7000164 C91.0096573,59.4724578 92.2370717,60.9496479 94.011838,60.9496479 C95.1943925,60.9493368 95.9186916,60.476748 96.7320872,59.7384641 L98.1819315,61.2007205 C97.1168224,62.3375471 95.9336449,63.0462748 93.9380062,63.0462748 C90.8915888,63.0462748 88.628972,60.6979532 88.628972,57.7295726 Z" id="Fill-9" fill="#FFFFFF"></path>
                <path d="M108.757944,57.7295726 L108.757944,57.7000164 C108.757944,55.9281972 107.455763,54.4506959 105.622741,54.4506959 C103.788162,54.4506959 102.516822,55.8986409 102.516822,57.6704601 L102.516822,57.7000164 C102.516822,59.4724578 103.81838,60.9496479 105.652336,60.9496479 C107.485981,60.9493368 108.757944,59.5020141 108.757944,57.7295726 Z M100.136137,57.7295726 L100.136137,57.7000164 C100.136137,54.760881 102.457321,52.3534469 105.652336,52.3534469 C108.846729,52.3534469 111.138318,54.7319469 111.138318,57.6704601 L111.138629,57.7000164 C111.138629,60.6391518 108.816822,63.0462748 105.622741,63.0462748 C102.42866,63.0462748 100.136137,60.668708 100.136137,57.7295726 L100.136137,57.7295726 Z" id="Fill-11" fill="#FFFFFF"></path>
                <polyline id="Fill-12" fill="#FFFFFF" points="113.758255 52.5307843 115.857944 52.5307843 120.709034 58.8965777 120.709034 52.5307843 122.957009 52.5307843 122.957009 62.8689373 121.019003 62.8689373 116.005919 56.2971836 116.005919 62.8689373 113.758255 62.8689373 113.758255 52.5307843"></polyline>
                <polyline id="Fill-13" fill="#FFFFFF" points="128.518692 54.6280334 125.368536 54.6280334 125.368536 52.5307843 133.945794 52.5307843 133.945794 54.6280334 130.79595 54.6280334 130.79595 62.8689373 128.518692 62.8689373 128.518692 54.6280334"></polyline>
                <polyline id="Fill-14" fill="#FFFFFF" points="136.579751 52.5307843 144.38785 52.5307843 144.38785 54.5539872 138.842991 54.5539872 138.842991 56.6509252 143.722741 56.6509252 143.722741 58.6747503 138.842991 58.6747503 138.842991 60.8460455 144.462305 60.8460455 144.462305 62.8689373 136.579751 62.8689373 136.579751 52.5307843"></polyline>
                <path d="M146.652648,61.3634354 L147.998131,59.7530866 C148.929595,60.521549 149.905919,61.0084493 151.089408,61.0084493 C152.020249,61.0084493 152.582866,60.6391518 152.582866,60.0337154 L152.582866,60.003848 C152.582866,59.4279679 152.227726,59.1330277 150.497508,58.689684 C148.41215,58.1582938 147.066667,57.5821025 147.066667,55.52841 L147.066978,55.499476 C147.066978,53.6243655 148.574766,52.3833142 150.690031,52.3833142 C152.197819,52.3833142 153.485047,52.8559031 154.534891,53.6977894 L153.351713,55.4114295 C152.434891,54.7755035 151.532399,54.3918945 150.660125,54.3918945 C149.788162,54.3918945 149.329283,54.7907483 149.329283,55.2928934 L149.329283,55.3224496 C149.329283,56.00131 149.772586,56.2231374 151.561994,56.6811037 C153.662305,57.2274275 154.845171,57.9806452 154.845171,59.7823318 L154.845483,59.8121991 C154.845483,61.8652694 153.277882,63.0167185 151.044237,63.0167185 C149.47757,63.0167185 147.895016,62.4700835 146.652648,61.3634354" id="Fill-15" fill="#FFFFFF"></path>
                <polyline id="Fill-16" fill="#FFFFFF" points="159.890031 54.6280334 156.740187 54.6280334 156.740187 52.5307843 165.317134 52.5307843 165.317134 54.6280334 162.166667 54.6280334 162.166667 62.8689373 159.890031 62.8689373 159.890031 54.6280334"></polyline>
                <polygon id="Fill-17" fill="#0064A3" points="117.533645 2.16133945 109.505919 1.8965777 104.574766 5.40412641 100.569159 10.1409039 95.4190031 6.47250696 86.9367601 8.74149337 82.8470405 15.9270837 85.4978193 31.5078926 100.493458 42.8531357 118.51838 24.2470116 121.320249 8.21196987"></polygon>
                <polyline id="Fill-19" fill="#FBCE31" points="84.6218069 23.3656132 84.8595016 31.4665138 99.8548287 42.811757 118.91028 21.6899296 119.207788 19.9865564 84.6218069 23.3656132"></polyline>
                <path d="M169.714953,38.4769445 C167.046417,38.3419191 165.521184,35.1878009 165.707477,31.9643033 C166.034891,26.2832815 170.788785,20.5493696 170.788785,20.5493696 C171.898754,21.5608155 175.237072,27.0430326 175.055763,31.2381529 C174.878816,35.3355821 172.38162,38.6116588 169.714953,38.4769445 Z M172.891589,18.6621254 C174.038941,17.3274275 174.825857,16.5493205 174.648598,15.6240544 C174.471963,14.6984772 171.333333,14.0566399 169.93676,15.3440478 C165.805607,12.070149 166.651402,15.9053054 167.249221,16.7605698 C162.36947,20.18785 159.06729,29.2099722 161.723676,36.2496479 C164.320561,43.1312756 172.153894,43.9803177 176.261059,39.1439823 C179.897508,34.8614377 179.248598,26.9892091 172.891589,18.6621254 L172.891589,18.6621254 Z" id="Fill-20" fill="#FFFFFF"></path>
                <path d="M19.9214953,4.9810054 C10.7146417,4.31490093 0.539563863,11.9301457 0.928660436,21.7929098 C0.966043614,22.7399542 1.76791277,23.6073522 2.91900312,23.6073522 C4.34299065,23.6073522 8.51370717,23.4496152 8.51370717,23.4496152 C8.51370717,23.4496152 0.284735202,29.9286556 0.284735202,37.5143442 C0.284735202,41.5171934 3.29158879,46.3118389 9.56853583,46.3118389 C18.3657321,46.3115278 24.923053,39.1187817 24.9105919,33.025217 C24.9099688,32.5613394 24.376947,31.9070575 23.5174455,32.9474374 C22.1542056,34.5982315 14.8426791,42.0971181 7.6165109,42.0971181 C5.19034268,42.0968069 3.08068536,40.7269527 3.08068536,37.8304405 C3.08068536,34.0372851 9.094081,26.6622237 19.4320872,23.7647781 C21.9641745,23.0280498 22.1747664,19.4981005 18.9573209,19.3403635 C15.794704,19.1851154 4.87383178,20.3934993 4.08286604,20.3934993 C3.29158879,20.3934993 3.22024922,20.2230064 3.50249221,19.4981005 C3.87196262,18.5498117 7.88037383,11.5437367 19.9068536,10.2267726 C23.9685358,9.91036515 23.5610592,5.2448338 19.9214953,4.9810054 Z" id="Fill-21" fill="#FFFFFF"></path>
                <path d="M32.9383178,16.5004749 C32.9383178,14.1182414 29.3959502,12.6550516 28.0610592,16.0285083 C25.4909657,22.5237269 24.7102804,42.2053873 33.311838,42.2053873 C37.0878505,42.2050761 41.9068536,33.9417717 41.9068536,25.8757164 C41.9068536,19.2236941 39.1797508,14.8761258 38.6028037,14.0911741 C38.0258567,13.305289 37.2389408,13.7243655 37.3439252,15.1915998 C37.4489097,16.6572785 37.8682243,30.2226625 33.6199377,35.1467333 C31.9420561,36.9792206 30.705296,35.0701981 30.5261682,33.2613558 C30.0015576,27.9707876 32.9383178,19.9573113 32.9383178,16.5004749 Z" id="Fill-23" fill="#FFFFFF"></path>
                <path d="M72.2470405,37.6409694 C69.8317757,37.6409694 68.4897196,34.5254298 68.4897196,31.1420174 C68.4897196,25.1791223 72.7831776,19.754151 72.7831776,19.754151 C73.9638629,21.2577861 76.8084112,25.5011299 76.8084112,29.798297 C76.8084112,34.0960865 74.6607477,37.6409694 72.2470405,37.6409694 Z M74.1788162,17.8740626 C74.1788162,17.8740626 75.5433022,16.022597 74.7221184,14.9778615 C73.7990654,13.8005895 70.8401869,13.4334698 68.0682243,16.535009 C64.4186916,20.6171934 61.8616822,29.2317505 64.6258567,36.4590306 C67.2682243,43.3695923 74.6672897,43.9532504 78.0959502,38.7158834 C81.1548287,34.0416407 80.3501558,26.253103 74.1788162,17.8740626 Z" id="Fill-25" fill="#FFFFFF"></path>
                <path d="M49.9080997,24.9240052 C50.1193146,22.2378091 50.3302181,19.4455215 50.3302181,19.4455215 C50.3305296,19.4452104 56.3439252,17.917308 58.4003115,18.1288685 C60.1912773,18.3118061 60.5632399,19.0765351 59.6514019,20.4905682 C57.5040498,23.8198461 52.5666667,24.9722286 49.9080997,24.9240052 Z M62.8165109,42.7401998 C60.2439252,39.174783 57.0130841,32.0374161 52.0707165,27.7162928 C57.0819315,27.3998854 63.358567,23.5021942 63.358567,19.3403635 C63.358567,16.2584248 60.1482866,14.0373506 55.9816199,14.0373506 C51.8146417,14.0373506 47.2183801,15.4423612 45.4775701,16.495497 C43.2090343,17.8124611 44.8971963,20.9202227 47.0074766,20.0780252 C47.0074766,20.0780252 46.2161994,23.7647781 46.005296,25.7142459 C44.2919003,25.5026854 43.9476636,25.819404 44.053271,26.1883904 C44.15919,26.5567545 44.8971963,26.8734731 45.741433,27.9275422 C45.4775701,30.2444408 45.0102804,40.5514819 45.1158879,41.4471917 C45.2221184,42.3494351 45.7663551,42.5049943 46.5398754,41.5523498 C47.2258567,40.7101523 48.6950156,38.6732602 49.3806854,30.9827247 C50.1719626,31.666563 52.3345794,34.559964 54.9722741,37.9355985 C58.8404984,42.8873588 60.1158879,43.2445227 61.7049844,43.8026691 C62.5623053,44.1050761 63.4464174,43.613198 62.8165109,42.7401998 Z" id="Fill-27" fill="#FFFFFF"></path>
                <path d="M85.2056075,20.3409203 C85.3158879,10.4912232 90.4482866,7.40835107 93.2436137,7.40835107 C97.147352,7.40835107 98.75919,10.3845096 99.0227414,11.702096 C99.2862928,13.018749 100.763551,14.0718847 101.238318,11.912412 C101.713396,9.75293925 106.305919,3.16749632 111.949533,3.16749632 C117.118692,3.1671852 118.908723,8.49104307 118.753583,13.0190601 C118.331153,25.3452595 102.430218,35.1831341 100.337383,41.3955461 C98.4738318,37.6328803 85.0744548,32.1942197 85.2056075,20.3409203 Z M113.79595,0.112624857 C109.154206,0.112624857 103.664174,3.53648272 100.341745,9.22621582 C99.4451713,7.17127886 96.2504673,4.93215982 92.453271,4.93215982 C89.3934579,4.93215982 80.8043614,8.75144916 80.8043614,21.078582 C80.8043614,36.9873096 96.9208723,40.2549861 100.179128,45.1992795 C100.402804,45.5393319 101.124299,45.7960046 101.399065,44.9836745 C103.998754,37.3214508 124.157321,28.6639594 124.157321,13.071328 C124.157321,4.32672343 118.437695,0.112624857 113.79595,0.112624857 L113.79595,0.112624857 Z" id="Fill-29" fill="#FFFFFF"></path>
                <path d="M126.9081,14.7208777 C127.047664,20.074914 122.334268,28.5874243 122.03271,34.8010807 C121.811526,39.3306533 122.624611,41.1631407 123.011215,41.7598657 C123.415265,42.3845915 124.300312,42.4384149 124.53676,41.3025217 C125.241433,37.9085312 130.095327,28.9613886 130.717445,21.7664647 C131.098754,17.3563616 129.728972,14.6577206 128.152336,14.1474865 C127.448598,13.9200589 126.888474,14.0056165 126.9081,14.7208777" id="Fill-30" fill="#FFFFFF"></path>
                <path d="M144.48785,14.0373506 C137.892835,14.0373506 133.136137,16.3726052 133.136137,21.675307 C133.136449,24.941739 135.562305,27.1889471 139.43053,27.8214508 C141.681308,28.2427051 143.871963,28.407909 144.670093,28.6994269 C146.113084,29.2255281 142.658879,30.8856558 137.283178,34.5266743 C133.610592,37.0143769 130.928037,39.6427051 129.494704,42.433437 C128.998131,43.3994596 129.670093,44.3219257 130.7081,43.6082201 C132.723988,42.2218765 137.141433,39.9115114 141.427414,37.5566563 C145.506231,35.3153594 149.348287,32.8525463 149.348287,29.7883412 C149.348287,27.0131652 147.262928,25.9671852 145.65514,25.7842476 C142.876947,25.4690847 136.863551,25.7142459 136.863551,22.2378091 C136.863863,20.9382676 138.586604,19.2345833 144.125234,19.2345833 C148.398131,19.2345833 147.96729,14.0373506 144.48785,14.0373506" id="Fill-31" fill="#FFFFFF"></path>
                <path d="M152.792523,15.0039954 C154.950467,19.1409366 151.278193,30.3943999 151.278193,34.6697888 C151.278505,38.9451777 151.760125,40.4522351 152.893458,41.8379564 C153.472897,42.5479286 154.233645,42.1223187 154.303738,41.3557229 C154.65514,37.5871459 158.708723,27.3591289 158.970405,22.6064844 C159.304673,16.5527428 156.311215,14.2072212 154.557632,14.0591289 C153.585981,13.9773047 152.300935,14.1527755 152.792523,15.0039954" id="Fill-32" fill="#FFFFFF"></path>
                <path d="M154.277259,9.16679221 C154.166978,13.1089733 160.750779,13.7452104 160.750779,8.92567545 C160.750779,4.72557721 157.232087,1.25131816 156.525545,0.673260193 C155.427103,-0.221205174 153.873832,-0.0597347306 154.239564,1.38603242 C155.081931,4.41601441 154.314953,7.7894711 154.277259,9.16679221" id="Fill-33" fill="#FFFFFF"></path>
                <path d="M199.441433,41.7956443 C198.580997,36.5007205 199.764486,29.6875389 199.764486,23.2676109 C199.764486,18.3662518 195.685981,15.846504 193.266044,15.846504 C190.121807,15.846504 188.254206,17.2624038 188.254206,17.2624038 C188.289408,16.3296709 188.450779,14.8944817 188.421184,14.4418045 C188.386604,13.9241035 187.765109,13.9234813 186.866667,14.4072703 C181.923364,17.4789422 181.209657,26.292615 181.209657,32.4017357 C181.209969,38.5111675 182.183489,40.6765515 182.28567,41.5044375 C182.384735,42.2906337 183.352025,42.4082364 183.732399,41.7178647 C186.35919,36.6089897 186.666044,27.3059276 187.563551,22.1279843 C188.808723,20.4367447 193.88785,20.1262486 194.09595,24.1648764 C194.307165,28.2744392 193.91028,38.6642378 198.119315,42.2915671 C198.686916,42.7800229 199.565732,42.5563288 199.441433,41.7956443" id="Fill-34" fill="#FFFFFF"></path>
                <polyline id="Fill-35" fill="#FFFFFF" points="67.4570093 68.3539545 68.4080997 68.3539545 68.4080997 73.3803832 73.2485981 68.3539545 74.476947 68.3539545 70.864486 72.0335517 74.6333333 76.7715736 73.441433 76.7715736 70.2021807 72.6949894 68.4080997 74.5109874 68.4080997 76.7715736 67.4570093 76.7715736 67.4570093 68.3539545"></polyline>
                <polyline id="Fill-36" fill="#FFFFFF" points="79.8352025 73.440429 76.3311526 68.3539545 77.4872274 68.3539545 80.323053 72.562764 83.1825545 68.3539545 84.2903427 68.3539545 80.7862928 73.4286065 80.7862928 76.7715736 79.8352025 76.7715736 79.8352025 73.440429"></polyline>
                <polygon id="Fill-37" fill="#FFFFFF" points="86.9875389 76.7715736 87.9386293 76.7715736 87.9386293 68.3539545 86.9875389 68.3539545"></polygon>
                <polyline id="Fill-38" fill="#FFFFFF" points="90.7685358 68.3539545 91.8283489 68.3539545 94.8264798 75.6051908 97.8367601 68.3539545 98.8601246 68.3539545 95.2358255 76.8319306 94.3931464 76.8319306 90.7685358 68.3539545"></polyline>
                <path d="M103.520249,76.0379564 L106.578816,73.3442934 C106.899688,73.0558867 107.172586,72.7951695 107.397508,72.562764 C107.622118,72.3303586 107.802804,72.1119535 107.939252,71.9072376 C108.075701,71.7028328 108.176012,71.5024726 108.240498,71.3061569 C108.304673,71.10953 108.33676,70.9073031 108.33676,70.6988538 C108.33676,70.4502702 108.290654,70.2278205 108.198131,70.0315048 C108.105919,69.834878 107.983489,69.666563 107.830841,69.5262486 C107.678505,69.3859342 107.497819,69.277665 107.289097,69.2017521 C107.080374,69.1255281 106.863551,69.0875716 106.638941,69.0875716 C106.157321,69.0875716 105.743614,69.2098412 105.398754,69.4540691 C105.053583,69.6986082 104.71215,70.0573277 104.375078,70.5305387 L103.676636,70.0252825 C103.86947,69.7449648 104.066044,69.4923367 104.266667,69.2677092 C104.467601,69.0433928 104.686293,68.8548551 104.923053,68.7027182 C105.159813,68.5502702 105.424611,68.4339119 105.717757,68.3539545 C106.010592,68.2736859 106.341745,68.2335517 106.711215,68.2335517 C107.088474,68.2335517 107.437695,68.2935975 107.758567,68.4140003 C108.079751,68.534092 108.356698,68.7005404 108.589408,68.9149009 C108.82243,69.1273948 109.003115,69.3781562 109.131464,69.666563 C109.259813,69.9552808 109.323988,70.2738661 109.323988,70.6185852 L109.323988,70.6428525 C109.323988,70.9474374 109.281931,71.2299329 109.197508,71.4925168 C109.113396,71.7529229 108.984735,72.0095955 108.812461,72.2622237 C108.639564,72.5145407 108.419003,72.7752579 108.150156,73.0397085 C107.880997,73.3044703 107.561994,73.5969216 107.192835,73.9176846 L104.941121,75.9178647 L109.408411,75.9178647 L109.408411,76.7715736 L103.520249,76.7715736 L103.520249,76.0379564" id="Fill-39" fill="#FFFFFF"></path>
                <path d="M115.561371,76.0622237 C115.954829,76.0622237 116.309969,75.9679548 116.626791,75.7797282 C116.943925,75.5893237 117.213084,75.3366956 117.433645,75.0181104 C117.654517,74.7013918 117.823053,74.3305387 117.939564,73.9077288 C118.055763,73.4867857 118.114019,73.0456198 118.114019,72.5867202 L118.114019,72.562764 C118.114019,72.1038644 118.053894,71.6626985 117.933333,71.2420665 C117.813084,70.8189455 117.640498,70.4462256 117.415576,70.1257737 C117.190966,69.8028328 116.919938,69.5464713 116.602804,69.353889 C116.28567,69.1597511 115.93053,69.0633044 115.537383,69.0633044 C115.143925,69.0633044 114.788785,69.1575733 114.471651,69.3457999 C114.154517,69.5362044 113.88567,69.7888325 113.664798,70.1074177 C113.444237,70.4241362 113.27352,70.7931226 113.153271,71.211888 C113.03271,71.6287866 112.972586,72.0718192 112.972586,72.5388079 L112.972586,72.562764 C112.972586,73.0216637 113.03271,73.4625184 113.153271,73.8834616 C113.27352,74.3065826 113.446106,74.6793024 113.671028,74.9997544 C113.895639,75.3226953 114.168536,75.5790568 114.48972,75.7716391 C114.810592,75.965777 115.167913,76.0622237 115.561371,76.0622237 Z M115.537383,76.9159325 C114.991277,76.9159325 114.499688,76.8017521 114.062305,76.5730801 C113.624611,76.3447192 113.251402,76.0320452 112.942368,75.6350581 C112.633333,75.2383822 112.396573,74.7794826 112.231776,74.2583593 C112.06729,73.737236 111.985047,73.1800229 111.985047,72.5867202 L111.985047,72.562764 C111.985047,71.9775504 112.06947,71.4203373 112.238006,70.8911249 C112.406542,70.3622237 112.647352,69.8992795 112.960436,69.5022925 C113.27352,69.1056165 113.64891,68.7907647 114.086293,68.5583593 C114.523676,68.3259538 115.015576,68.2095955 115.561371,68.2095955 C116.099065,68.2095955 116.586916,68.323776 117.024299,68.552448 C117.461682,68.7808089 117.835202,69.0934829 118.144237,69.4901588 C118.453271,69.8871459 118.690031,70.3482234 118.854517,70.8730801 C119.019315,71.3982479 119.101246,71.9535942 119.101246,72.5388079 L119.101246,72.562764 C119.101246,73.1560668 119.017134,73.7151466 118.848598,74.2403144 C118.680062,74.7654822 118.441121,75.2262486 118.132087,75.6232356 C117.823053,76.0202227 117.447664,76.3347634 117.006231,76.5671688 C116.564798,76.7995743 116.075078,76.9159325 115.537383,76.9159325 L115.537383,76.9159325 Z" id="Fill-40" fill="#FFFFFF"></path>
                <polyline id="Fill-41" fill="#FFFFFF" points="123.087227 69.2798428 121.497819 69.7729654 121.268847 69.0032586 123.331776 68.2935975 124.038318 68.2935975 124.038318 76.7715736 123.087227 76.7715736 123.087227 69.2798428"></polyline>
                <polyline id="Fill-42" fill="#FFFFFF" points="131.780685 69.2076633 127.14486 69.2076633 127.14486 68.3539545 132.864486 68.3539545 132.864486 69.0633044 129.035514 76.7715736 127.975701 76.7715736 131.780685 69.2076633"></polyline>
            </g>
        </g>
    </g>
</svg>